Datalegreya-Gradient
<glyph name="plus" format="1">
  <advance width="480"/>
  <unicode hex="002B"/>
  <outline>
    <contour>
      <point x="250" y="468" type="line"/>
      <point x="247" y="471" type="line"/>
      <point x="230" y="469" type="line"/>
      <point x="230" y="280" type="line"/>
      <point x="41" y="280" type="line"/>
      <point x="39" y="263" type="line"/>
      <point x="42" y="260" type="line"/>
      <point x="230" y="260" type="line"/>
      <point x="230" y="72" type="line"/>
      <point x="233" y="69" type="line"/>
      <point x="250" y="71" type="line"/>
      <point x="250" y="260" type="line"/>
      <point x="439" y="260" type="line"/>
      <point x="441" y="277" type="line"/>
      <point x="438" y="280" type="line"/>
      <point x="250" y="280" type="line"/>
    </contour>
  </outline>
</glyph>
<glyph name="period" format="1">
  <advance width="230"/>
  <unicode hex="002E"/>
  <outline>
    <contour>
      <point x="115" y="38" type="curve" smooth="yes"/>
      <point x="103" y="38"/>
      <point x="95" y="30"/>
      <point x="95" y="18" type="curve" smooth="yes"/>
      <point x="95" y="6"/>
      <point x="103" y="-2"/>
      <point x="115" y="-2" type="curve" smooth="yes"/>
      <point x="127" y="-2"/>
      <point x="135" y="6"/>
      <point x="135" y="18" type="curve" smooth="yes"/>
      <point x="135" y="30"/>
      <point x="127" y="38"/>
    </contour>
  </outline>
</glyph>
<glyph name="one" format="1">
  <advance width="296"/>
  <unicode hex="0031"/>
  <outline>
    <contour>
      <point x="147" y="484" type="line"/>
      <point x="147" y="0" type="line"/>
      <point x="168" y="0" type="line"/>
      <point x="168" y="508" type="line"/>
      <point x="164" y="512" type="line"/>
      <point x="26" y="468" type="line"/>
      <point x="26" y="451" type="line"/>
      <point x="31" y="449" type="line"/>
    </contour>
  </outline>
</glyph>
<glyph name="six" format="1">
  <advance width="404"/>
  <unicode hex="0036"/>
  <outline>
    <contour>
      <point x="198" y="-5" type="curve" smooth="yes"/>
      <point x="296" y="-5"/>
      <point x="350" y="51"/>
      <point x="350" y="151" type="curve" smooth="yes"/>
      <point x="350" y="240"/>
      <point x="300" y="290"/>
      <point x="216" y="290" type="curve" smooth="yes"/>
      <point x="165" y="290"/>
      <point x="120" y="271"/>
      <point x="81" y="239" type="curve"/>
      <point x="80" y="241" type="line"/>
      <point x="101" y="357"/>
      <point x="185" y="445"/>
      <point x="325" y="496" type="curve"/>
      <point x="325" y="500" type="line"/>
      <point x="314" y="511" type="line"/>
      <point x="311" y="511" type="line"/>
      <point x="147" y="452"/>
      <point x="54" y="332"/>
      <point x="54" y="178" type="curve" smooth="yes"/>
      <point x="54" y="60"/>
      <point x="106" y="-5"/>
    </contour>
    <contour>
      <point x="76" y="213" type="curve"/>
      <point x="116" y="248"/>
      <point x="164" y="270"/>
      <point x="214" y="270" type="curve" smooth="yes"/>
      <point x="286" y="270"/>
      <point x="329" y="228"/>
      <point x="329" y="150" type="curve" smooth="yes"/>
      <point x="329" y="63"/>
      <point x="283" y="14"/>
      <point x="199" y="14" type="curve" smooth="yes"/>
      <point x="118" y="14"/>
      <point x="74" y="73"/>
      <point x="74" y="178" type="curve" smooth="yes"/>
      <point x="74" y="190"/>
      <point x="75" y="202"/>
    </contour>
  </outline>
</glyph>
<glyph name="seven" format="1">
  <advance width="358"/>
  <unicode hex="0037"/>
  <outline>
    <contour>
      <point x="84" y="485" type="line"/>
      <point x="300" y="485" type="line"/>
      <point x="86" y="2" type="line"/>
      <point x="87" y="-2" type="line"/>
      <point x="106" y="-8" type="line"/>
      <point x="136" y="68" type="line"/>
      <point x="322" y="488" type="line"/>
      <point x="321" y="507" type="line"/>
      <point x="291" y="506" type="line"/>
      <point x="90" y="506" type="line"/>
      <point x="34" y="507" type="line"/>
      <point x="31" y="489" type="line"/>
      <point x="35" y="484" type="line"/>
    </contour>
  </outline>
</glyph>
<glyph name="E" format="1">
  <advance width="454"/>
  <unicode hex="0045"/>
  <outline>
    <contour>
      <point x="266" y="637" type="move" name="mark0"/>
    </contour>
    <contour>
      <point x="267" y="0" type="move" name="mark1"/>
    </contour>
    <contour>
      <point x="425" y="16" type="line"/>
      <point x="422" y="20" type="line"/>
      <point x="130" y="20" type="line"/>
      <point x="130" y="320" type="line"/>
      <point x="367" y="320" type="line"/>
      <point x="371" y="336" type="line"/>
      <point x="368" y="340" type="line"/>
      <point x="130" y="340" type="line"/>
      <point x="130" y="617" type="line"/>
      <point x="417" y="617" type="line"/>
      <point x="421" y="633" type="line"/>
      <point x="418" y="637" type="line"/>
      <point x="110" y="637" type="line"/>
      <point x="110" y="0" type="line"/>
      <point x="421" y="0" type="line"/>
    </contour>
  </outline>
</glyph>
<glyph name="I" format="1">
  <advance width="240"/>
  <unicode hex="0049"/>
  <outline>
    <contour>
      <point x="120" y="637" type="move" name="mark0"/>
    </contour>
    <contour>
      <point x="0" y="0" type="move" name="mark1"/>
    </contour>
    <contour>
      <point x="130" y="0" type="line"/>
      <point x="130" y="637" type="line"/>
      <point x="110" y="637" type="line"/>
      <point x="110" y="0" type="line"/>
    </contour>
  </outline>
</glyph>
<glyph name="L" format="1">
  <advance width="398"/>
  <unicode hex="004C"/>
  <outline>
    <contour>
      <point x="196" y="637" type="move" name="mark0"/>
    </contour>
    <contour>
      <point x="236" y="0" type="move" name="mark1"/>
    </contour>
    <contour>
      <point x="393" y="16" type="line"/>
      <point x="390" y="20" type="line"/>
      <point x="129" y="20" type="line"/>
      <point x="129" y="637" type="line"/>
      <point x="109" y="637" type="line"/>
      <point x="109" y="0" type="line"/>
      <point x="389" y="0" type="line"/>
    </contour>
  </outline>
</glyph>
<glyph name="R" format="1">
  <advance width="518"/>
  <unicode hex="0052"/>
  <outline>
    <contour>
      <point x="259" y="637" type="move" name="mark0"/>
    </contour>
    <contour>
      <point x="259" y="0" type="move" name="mark1"/>
    </contour>
    <contour>
      <point x="285" y="267" type="curve"/>
      <point x="380" y="296"/>
      <point x="432" y="366"/>
      <point x="432" y="464" type="curve" smooth="yes"/>
      <point x="432" y="577"/>
      <point x="367" y="639"/>
      <point x="251" y="639" type="curve"/>
      <point x="110" y="637" type="line"/>
      <point x="110" y="0" type="line"/>
      <point x="130" y="0" type="line"/>
      <point x="130" y="263" type="line"/>
      <point x="264" y="263" type="line"/>
      <point x="319" y="172"/>
      <point x="381" y="83"/>
      <point x="448" y="-5" type="curve"/>
      <point x="454" y="-7" type="line"/>
      <point x="459" y="-5"/>
      <point x="462" y="-3"/>
      <point x="466" y="1" type="curve"/>
      <point x="466" y="5" type="line"/>
      <point x="400" y="91"/>
      <point x="340" y="177"/>
    </contour>
    <contour>
      <point x="130" y="283" type="line"/>
      <point x="130" y="618" type="line"/>
      <point x="258" y="619" type="line"/>
      <point x="357" y="615"/>
      <point x="412" y="560"/>
      <point x="412" y="464" type="curve" smooth="yes"/>
      <point x="412" y="371"/>
      <point x="362" y="306"/>
      <point x="272" y="283" type="curve"/>
    </contour>
  </outline>
</glyph>
<glyph name="e" format="1">
  <advance width="412"/>
  <unicode hex="0065"/>
  <outline>
    <contour>
      <point x="366" y="0" type="line" smooth="yes"/>
      <point x="108" y="0" type="line"/>
      <point x="108" y="506" type="line"/>
      <point x="364" y="506" type="line"/>
      <point x="367" y="501" type="line"/>
      <point x="363" y="485" type="line"/>
      <point x="128" y="486" type="line"/>
      <point x="128" y="264" type="line"/>
      <point x="323" y="264" type="line"/>
      <point x="325" y="260" type="line"/>
      <point x="322" y="243" type="line"/>
      <point x="128" y="243" type="line"/>
      <point x="128" y="19" type="line"/>
      <point x="367" y="19" type="line"/>
      <point x="370" y="16" type="line"/>
    </contour>
  </outline>
</glyph>
<glyph name="g" format="1">
  <advance width="532"/>
  <unicode hex="0067"/>
  <outline>
    <contour>
      <point x="449" y="466" type="curve" smooth="yes"/>
      <point x="443" y="448" type="line"/>
      <point x="438" y="448" type="line"/>
      <point x="392" y="474"/>
      <point x="344" y="489"/>
      <point x="301" y="489" type="curve" smooth="yes"/>
      <point x="158" y="489"/>
      <point x="79" y="404"/>
      <point x="79" y="247" type="curve" smooth="yes"/>
      <point x="79" y="98"/>
      <point x="148" y="15"/>
      <point x="272" y="15" type="curve" smooth="yes"/>
      <point x="323" y="15"/>
      <point x="357" y="20"/>
      <point x="424" y="38" type="curve" smooth="yes"/>
      <point x="424" y="209" type="line"/>
      <point x="444" y="211" type="line"/>
      <point x="444" y="24" type="line"/>
      <point x="372" y="4"/>
      <point x="332" y="-3"/>
      <point x="272" y="-3" type="curve" smooth="yes"/>
      <point x="134" y="-3"/>
      <point x="58" y="86"/>
      <point x="58" y="248" type="curve" smooth="yes"/>
      <point x="58" y="416"/>
      <point x="145" y="509"/>
      <point x="301" y="509" type="curve" smooth="yes"/>
      <point x="348" y="509"/>
      <point x="401" y="494"/>
    </contour>
  </outline>
</glyph>
<glyph name="i" format="1">
  <advance width="237"/>
  <unicode hex="0069"/>
  <outline>
    <contour>
      <point x="128" y="506" type="line"/>
      <point x="108" y="506" type="line"/>
      <point x="108" y="0" type="line"/>
      <point x="128" y="0" type="line"/>
    </contour>
  </outline>
</glyph>
<glyph name="j" format="1">
  <advance width="261"/>
  <unicode hex="006A"/>
  <outline>
    <contour>
      <point x="153" y="507" type="line"/>
      <point x="31" y="507" type="line"/>
      <point x="28" y="490" type="line"/>
      <point x="31" y="487" type="line"/>
      <point x="133" y="487" type="line"/>
      <point x="133" y="92" type="line"/>
      <point x="133" y="26"/>
      <point x="109" y="-17"/>
      <point x="48" y="-61" type="curve"/>
      <point x="48" y="-66" type="line"/>
      <point x="60" y="-77" type="line"/>
      <point x="128" y="-29"/>
      <point x="153" y="18"/>
      <point x="153" y="93" type="curve"/>
    </contour>
  </outline>
</glyph>
<glyph name="m" format="1">
  <advance width="678"/>
  <unicode hex="006D"/>
  <outline>
    <contour>
      <point x="117" y="155" type="line"/>
      <point x="152" y="460" type="line"/>
      <point x="156" y="460" type="line"/>
      <point x="326" y="81" type="line"/>
      <point x="349" y="81" type="line"/>
      <point x="522" y="460" type="line"/>
      <point x="526" y="460" type="line"/>
      <point x="562" y="154" type="line"/>
      <point x="578" y="0" type="line"/>
      <point x="598" y="0" type="line"/>
      <point x="543" y="506" type="line"/>
      <point x="520" y="506" type="line"/>
      <point x="489" y="436" type="line"/>
      <point x="339" y="111" type="line"/>
      <point x="336" y="111" type="line"/>
      <point x="193" y="427" type="line"/>
      <point x="161" y="506" type="line"/>
      <point x="137" y="506" type="line"/>
      <point x="80" y="0" type="line"/>
      <point x="101" y="0" type="line"/>
    </contour>
  </outline>
</glyph>
<glyph name="p" format="1">
  <advance width="437"/>
  <unicode hex="0070"/>
  <outline>
    <contour>
      <point x="128" y="192" type="line"/>
      <point x="200" y="192" type="line"/>
      <point x="313" y="192"/>
      <point x="377" y="253"/>
      <point x="377" y="363" type="curve" smooth="yes"/>
      <point x="377" y="454"/>
      <point x="323" y="507"/>
      <point x="227" y="507" type="curve"/>
      <point x="108" y="506" type="line"/>
      <point x="108" y="0" type="line"/>
      <point x="128" y="0" type="line"/>
    </contour>
    <contour>
      <point x="128" y="487" type="line"/>
      <point x="231" y="488" type="line"/>
      <point x="312" y="484"/>
      <point x="356" y="439"/>
      <point x="356" y="362" type="curve" smooth="yes"/>
      <point x="356" y="276"/>
      <point x="309" y="220"/>
      <point x="225" y="211" type="curve"/>
      <point x="128" y="211" type="line"/>
    </contour>
  </outline>
</glyph>
<glyph name="q" format="1">
  <advance width="554"/>
  <unicode hex="0071"/>
  <outline>
    <contour>
      <point x="320" y="2" type="curve"/>
      <point x="433" y="21"/>
      <point x="495" y="113"/>
      <point x="495" y="264" type="curve" smooth="yes"/>
      <point x="495" y="422"/>
      <point x="419" y="512"/>
      <point x="281" y="512" type="curve" smooth="yes"/>
      <point x="137" y="512"/>
      <point x="58" y="419"/>
      <point x="58" y="253" type="curve" smooth="yes"/>
      <point x="58" y="89"/>
      <point x="135" y="-2"/>
      <point x="272" y="-2" type="curve" smooth="yes"/>
      <point x="280" y="-2"/>
      <point x="288" y="-2"/>
      <point x="296" y="-1" type="curve"/>
      <point x="383" y="-77"/>
      <point x="494" y="-129"/>
      <point x="605" y="-143" type="curve"/>
      <point x="609" y="-143" type="line"/>
      <point x="610" y="-142"/>
      <point x="613" y="-138"/>
      <point x="617" y="-130" type="curve"/>
      <point x="617" y="-125" type="line"/>
      <point x="508" y="-112"/>
      <point x="402" y="-67"/>
    </contour>
    <contour>
      <point x="272" y="17" type="curve" smooth="yes"/>
      <point x="148" y="17"/>
      <point x="79" y="101"/>
      <point x="79" y="254" type="curve" smooth="yes"/>
      <point x="79" y="408"/>
      <point x="150" y="491"/>
      <point x="280" y="491" type="curve" smooth="yes"/>
      <point x="406" y="491"/>
      <point x="475" y="410"/>
      <point x="475" y="261" type="curve" smooth="yes"/>
      <point x="475" y="104"/>
      <point x="402" y="17"/>
    </contour>
  </outline>
</glyph>
<glyph name="s" format="1">
  <advance width="404"/>
  <unicode hex="0073"/>
  <outline>
    <contour>
      <point x="341" y="130" type="curve" smooth="yes"/>
      <point x="341" y="277"/>
      <point x="93" y="259"/>
      <point x="93" y="380" type="curve" smooth="yes"/>
      <point x="93" y="430"/>
      <point x="138" y="488"/>
      <point x="220" y="488" type="curve" smooth="yes"/>
      <point x="246" y="488"/>
      <point x="281" y="482"/>
      <point x="314" y="465" type="curve"/>
      <point x="320" y="466" type="line"/>
      <point x="324" y="485" type="line"/>
      <point x="285" y="503"/>
      <point x="248" y="508"/>
      <point x="222" y="508" type="curve" smooth="yes"/>
      <point x="133" y="508"/>
      <point x="73" y="451"/>
      <point x="73" y="382" type="curve" smooth="yes"/>
      <point x="73" y="238"/>
      <point x="321" y="257"/>
      <point x="321" y="129" type="curve" smooth="yes"/>
      <point x="321" y="73"/>
      <point x="270" y="16"/>
      <point x="187" y="16" type="curve" smooth="yes"/>
      <point x="149" y="16"/>
      <point x="102" y="29"/>
      <point x="67" y="54" type="curve"/>
      <point x="62" y="53" type="line"/>
      <point x="61" y="34" type="line"/>
      <point x="97" y="9"/>
      <point x="146" y="-3"/>
      <point x="187" y="-3" type="curve" smooth="yes"/>
      <point x="278" y="-3"/>
      <point x="341" y="59"/>
    </contour>
  </outline>
</glyph>
<glyph name="t" format="1">
  <advance width="428"/>
  <unicode hex="0074"/>
  <outline>
    <contour>
      <point x="131" y="486" type="line"/>
      <point x="205" y="486" type="line"/>
      <point x="205" y="0" type="line"/>
      <point x="225" y="0" type="line"/>
      <point x="225" y="486" type="line"/>
      <point x="301" y="486" type="line"/>
      <point x="384" y="485" type="line"/>
      <point x="387" y="501" type="line"/>
      <point x="385" y="506" type="line"/>
      <point x="45" y="506" type="line"/>
      <point x="42" y="489" type="line"/>
      <point x="45" y="485" type="line"/>
    </contour>
  </outline>
</glyph>
<glyph name="v" format="1">
  <advance width="481"/>
  <unicode hex="0076"/>
  <outline>
    <contour>
      <point x="246" y="0" type="line"/>
      <point x="453" y="506" type="line"/>
      <point x="430" y="506" type="line"/>
      <point x="418" y="470" type="line"/>
      <point x="238" y="31" type="line"/>
      <point x="235" y="31" type="line"/>
      <point x="69" y="470" type="line"/>
      <point x="58" y="506" type="line"/>
      <point x="35" y="506" type="line"/>
      <point x="225" y="0" type="line"/>
    </contour>
  </outline>
</glyph>
<glyph name="y" format="1">
  <advance width="447"/>
  <unicode hex="0079"/>
  <outline>
    <contour>
      <point x="206" y="0" type="line"/>
      <point x="226" y="0" type="line"/>
      <point x="226" y="186" type="line"/>
      <point x="405" y="506" type="line"/>
      <point x="380" y="506" type="line"/>
      <point x="370" y="484" type="line"/>
      <point x="218" y="218" type="line"/>
      <point x="214" y="218" type="line"/>
      <point x="74" y="484" type="line"/>
      <point x="65" y="506" type="line"/>
      <point x="40" y="506" type="line"/>
      <point x="206" y="187" type="line"/>
    </contour>
  </outline>
</glyph>
<glyph name="z" format="1">
  <advance width="455"/>
  <unicode hex="007A"/>
  <outline>
    <contour>
      <point x="389" y="0" type="line"/>
      <point x="392" y="16" type="line"/>
      <point x="388" y="20" type="line"/>
      <point x="331" y="19" type="line"/>
      <point x="64" y="19" type="line"/>
      <point x="390" y="488" type="line"/>
      <point x="390" y="507" type="line"/>
      <point x="359" y="506" type="line"/>
      <point x="110" y="506" type="line"/>
      <point x="55" y="507" type="line"/>
      <point x="52" y="489" type="line"/>
      <point x="55" y="485" type="line"/>
      <point x="104" y="486" type="line"/>
      <point x="363" y="486" type="line"/>
      <point x="37" y="16" type="line"/>
      <point x="37" y="-1" type="line"/>
      <point x="68" y="0" type="line"/>
    </contour>
  </outline>
</glyph>
<glyph name="bar" format="1">
  <advance width="320"/>
  <unicode hex="007C"/>
  <outline>
    <contour>
      <point x="170" y="789" type="line"/>
      <point x="168" y="791" type="line"/>
      <point x="150" y="789" type="line"/>
      <point x="150" y="-261" type="line"/>
      <point x="153" y="-265" type="line"/>
      <point x="170" y="-265" type="line"/>
    </contour>
  </outline>
</glyph>
<glyph name="Adieresis" format="1">
  <advance width="554"/>
  <unicode hex="00C4"/>
  <outline>
    <contour>
      <point x="277" y="637" type="move" name="mark0"/>
    </contour>
    <contour>
      <point x="0" y="0" type="move" name="mark1"/>
    </contour>
    <contour>
      <point x="207" y="760" type="curve" smooth="yes"/>
      <point x="219" y="760"/>
      <point x="227" y="768"/>
      <point x="227" y="780" type="curve" smooth="yes"/>
      <point x="227" y="792"/>
      <point x="219" y="800"/>
      <point x="207" y="800" type="curve" smooth="yes"/>
      <point x="195" y="800"/>
      <point x="187" y="792"/>
      <point x="187" y="780" type="curve" smooth="yes"/>
      <point x="187" y="768"/>
      <point x="195" y="760"/>
    </contour>
    <contour>
      <point x="347" y="760" type="curve" smooth="yes"/>
      <point x="359" y="760"/>
      <point x="367" y="768"/>
      <point x="367" y="780" type="curve" smooth="yes"/>
      <point x="367" y="792"/>
      <point x="359" y="800"/>
      <point x="347" y="800" type="curve" smooth="yes"/>
      <point x="335" y="800"/>
      <point x="327" y="792"/>
      <point x="327" y="780" type="curve" smooth="yes"/>
      <point x="327" y="768"/>
      <point x="335" y="760"/>
    </contour>
    <contour>
      <point x="526" y="0" type="line"/>
      <point x="293" y="637" type="line"/>
      <point x="273" y="637" type="line"/>
      <point x="19" y="0" type="line"/>
      <point x="43" y="0" type="line"/>
      <point x="57" y="43" type="line"/>
      <point x="125" y="213" type="line"/>
      <point x="427" y="213" type="line"/>
      <point x="490" y="43" type="line"/>
      <point x="503" y="0" type="line"/>
    </contour>
    <contour>
      <point x="420" y="233" type="line"/>
      <point x="133" y="233" type="line"/>
      <point x="280" y="603" type="line"/>
      <point x="284" y="603" type="line"/>
    </contour>
  </outline>
</glyph>
<glyph name="Ecircumflex" format="1">
  <advance width="454"/>
  <unicode hex="00CA"/>
  <outline>
    <contour>
      <point x="266" y="637" type="move" name="mark0"/>
    </contour>
    <contour>
      <point x="267" y="0" type="move" name="mark1"/>
    </contour>
    <contour>
      <point x="166" y="738" type="line"/>
      <point x="171" y="738" type="line"/>
      <point x="204" y="761"/>
      <point x="235" y="784"/>
      <point x="266" y="808" type="curve"/>
      <point x="297" y="784"/>
      <point x="328" y="761"/>
      <point x="361" y="738" type="curve"/>
      <point x="366" y="738" type="line"/>
      <point x="373" y="752" type="line"/>
      <point x="339" y="776"/>
      <point x="306" y="802"/>
      <point x="273" y="828" type="curve"/>
      <point x="257" y="828" type="line"/>
      <point x="226" y="802"/>
      <point x="193" y="776"/>
      <point x="159" y="752" type="curve"/>
    </contour>
    <contour>
      <point x="425" y="16" type="line"/>
      <point x="422" y="20" type="line"/>
      <point x="130" y="20" type="line"/>
      <point x="130" y="320" type="line"/>
      <point x="367" y="320" type="line"/>
      <point x="371" y="336" type="line"/>
      <point x="368" y="340" type="line"/>
      <point x="130" y="340" type="line"/>
      <point x="130" y="617" type="line"/>
      <point x="417" y="617" type="line"/>
      <point x="421" y="633" type="line"/>
      <point x="418" y="637" type="line"/>
      <point x="110" y="637" type="line"/>
      <point x="110" y="0" type="line"/>
      <point x="421" y="0" type="line"/>
    </contour>
  </outline>
</glyph>
<glyph name="Icircumflex" format="1">
  <advance width="240"/>
  <unicode hex="00CE"/>
  <outline>
    <contour>
      <point x="120" y="637" type="move" name="mark0"/>
    </contour>
    <contour>
      <point x="0" y="0" type="move" name="mark1"/>
    </contour>
    <contour>
      <point x="20" y="738" type="line"/>
      <point x="25" y="738" type="line"/>
      <point x="58" y="761"/>
      <point x="89" y="784"/>
      <point x="120" y="808" type="curve"/>
      <point x="151" y="784"/>
      <point x="182" y="761"/>
      <point x="215" y="738" type="curve"/>
      <point x="220" y="738" type="line"/>
      <point x="227" y="752" type="line"/>
      <point x="193" y="776"/>
      <point x="160" y="802"/>
      <point x="127" y="828" type="curve"/>
      <point x="111" y="828" type="line"/>
      <point x="80" y="802"/>
      <point x="47" y="776"/>
      <point x="13" y="752" type="curve"/>
    </contour>
    <contour>
      <point x="130" y="0" type="line"/>
      <point x="130" y="637" type="line"/>
      <point x="110" y="637" type="line"/>
      <point x="110" y="0" type="line"/>
    </contour>
  </outline>
</glyph>
<glyph name="ae" format="1">
  <advance width="688"/>
  <unicode hex="00E6"/>
  <outline>
    <contour>
      <point x="65" y="36" type="line"/>
      <point x="157" y="192" type="line"/>
      <point x="356" y="228" type="line"/>
      <point x="389" y="36" type="line"/>
      <point x="394" y="0" type="line"/>
      <point x="646" y="0" type="line"/>
      <point x="649" y="16" type="line"/>
      <point x="647" y="20" type="line"/>
      <point x="412" y="20" type="line"/>
      <point x="376" y="232" type="line"/>
      <point x="566" y="262" type="line"/>
      <point x="568" y="279" type="line"/>
      <point x="565" y="281" type="line"/>
      <point x="373" y="250" type="line"/>
      <point x="333" y="486" type="line"/>
      <point x="557" y="485" type="line"/>
      <point x="561" y="502" type="line"/>
      <point x="558" y="506" type="line"/>
      <point x="307" y="506" type="line"/>
      <point x="22" y="0" type="line"/>
      <point x="48" y="0" type="line"/>
    </contour>
    <contour>
      <point x="310" y="474" type="line"/>
      <point x="313" y="474" type="line"/>
      <point x="352" y="247" type="line"/>
      <point x="171" y="214" type="line"/>
    </contour>
  </outline>
</glyph>
<glyph name="eacute" format="1">
  <advance width="412"/>
  <unicode hex="00E9"/>
  <outline>
    <contour>
      <point x="370" y="16" type="line"/>
      <point x="367" y="20" type="line"/>
      <point x="128" y="20" type="line"/>
      <point x="128" y="243" type="line"/>
      <point x="322" y="243" type="line"/>
      <point x="325" y="260" type="line"/>
      <point x="323" y="264" type="line"/>
      <point x="128" y="264" type="line"/>
      <point x="128" y="486" type="line"/>
      <point x="363" y="485" type="line"/>
      <point x="367" y="502" type="line"/>
      <point x="364" y="506" type="line"/>
      <point x="108" y="506" type="line"/>
      <point x="108" y="0" type="line"/>
      <point x="366" y="0" type="line"/>
    </contour>
    <contour>
      <point x="167" y="555" type="line"/>
      <point x="204" y="574"/>
      <point x="253" y="599"/>
      <point x="299" y="625" type="curve"/>
      <point x="303" y="624" type="line"/>
      <point x="310" y="613" type="line"/>
      <point x="308" y="609" type="line"/>
      <point x="268" y="585"/>
      <point x="219" y="560"/>
      <point x="178" y="540" type="curve"/>
      <point x="174" y="542" type="line"/>
    </contour>
  </outline>
</glyph>
<glyph name="ecircumflex" format="1">
  <advance width="412"/>
  <unicode hex="00EA"/>
  <outline>
    <contour>
      <point x="370" y="16" type="line"/>
      <point x="367" y="20" type="line"/>
      <point x="128" y="20" type="line"/>
      <point x="128" y="243" type="line"/>
      <point x="322" y="243" type="line"/>
      <point x="325" y="260" type="line"/>
      <point x="323" y="264" type="line"/>
      <point x="128" y="264" type="line"/>
      <point x="128" y="486" type="line"/>
      <point x="363" y="485" type="line"/>
      <point x="367" y="502" type="line"/>
      <point x="364" y="506" type="line"/>
      <point x="108" y="506" type="line"/>
      <point x="108" y="0" type="line"/>
      <point x="366" y="0" type="line"/>
    </contour>
    <contour>
      <point x="242" y="606" type="line"/>
      <point x="242" y="606"/>
      <point x="293" y="562"/>
      <point x="334" y="532" type="curve"/>
      <point x="338" y="533" type="line"/>
      <point x="346" y="545" type="line"/>
      <point x="308" y="574"/>
      <point x="247" y="626"/>
      <point x="247" y="626" type="curve"/>
      <point x="234" y="626" type="line"/>
      <point x="234" y="626"/>
      <point x="170" y="571"/>
      <point x="135" y="545" type="curve"/>
      <point x="143" y="533" type="line"/>
      <point x="148" y="532" type="line"/>
      <point x="187" y="561"/>
      <point x="239" y="606"/>
      <point x="239" y="606" type="curve"/>
    </contour>
  </outline>
</glyph>
<glyph name="edieresis" format="1">
  <advance width="412"/>
  <unicode hex="00EB"/>
  <outline>
    <contour>
      <point x="371" y="16" type="line"/>
      <point x="368" y="20" type="line"/>
      <point x="129" y="20" type="line"/>
      <point x="129" y="243" type="line"/>
      <point x="323" y="243" type="line"/>
      <point x="326" y="260" type="line"/>
      <point x="324" y="264" type="line"/>
      <point x="129" y="264" type="line"/>
      <point x="129" y="486" type="line"/>
      <point x="364" y="485" type="line"/>
      <point x="368" y="502" type="line"/>
      <point x="365" y="506" type="line"/>
      <point x="109" y="506" type="line"/>
      <point x="109" y="0" type="line"/>
      <point x="367" y="0" type="line"/>
    </contour>
    <contour>
      <point x="177" y="567" type="curve" smooth="yes"/>
      <point x="189" y="567"/>
      <point x="197" y="575"/>
      <point x="197" y="587" type="curve" smooth="yes"/>
      <point x="197" y="599"/>
      <point x="189" y="607"/>
      <point x="177" y="607" type="curve" smooth="yes"/>
      <point x="165" y="607"/>
      <point x="157" y="599"/>
      <point x="157" y="587" type="curve" smooth="yes"/>
      <point x="157" y="575"/>
      <point x="165" y="567"/>
    </contour>
    <contour>
      <point x="297" y="567" type="curve" smooth="yes"/>
      <point x="309" y="567"/>
      <point x="317" y="575"/>
      <point x="317" y="587" type="curve" smooth="yes"/>
      <point x="317" y="599"/>
      <point x="309" y="607"/>
      <point x="297" y="607" type="curve" smooth="yes"/>
      <point x="285" y="607"/>
      <point x="277" y="599"/>
      <point x="277" y="587" type="curve" smooth="yes"/>
      <point x="277" y="575"/>
      <point x="285" y="567"/>
    </contour>
  </outline>
</glyph>
<glyph name="icircumflex" format="1">
  <advance width="237"/>
  <unicode hex="00EE"/>
  <outline>
    <contour>
      <point x="108" y="0" type="line"/>
      <point x="128" y="0" type="line"/>
      <point x="128" y="506" type="line"/>
      <point x="108" y="506" type="line"/>
    </contour>
    <contour>
      <point x="120" y="606" type="line"/>
      <point x="120" y="606"/>
      <point x="153" y="573"/>
      <point x="192" y="541" type="curve"/>
      <point x="196" y="541" type="line"/>
      <point x="204" y="553" type="line"/>
      <point x="169" y="585"/>
      <point x="125" y="626"/>
      <point x="125" y="626" type="curve"/>
      <point x="112" y="626" type="line"/>
      <point x="112" y="626"/>
      <point x="65" y="583"/>
      <point x="34" y="554" type="curve"/>
      <point x="43" y="543" type="line"/>
      <point x="47" y="543" type="line"/>
      <point x="83" y="575"/>
      <point x="117" y="606"/>
      <point x="117" y="606" type="curve"/>
    </contour>
  </outline>
</glyph>
<glyph name="ucircumflex" format="1">
  <advance width="541"/>
  <unicode hex="00FB"/>
  <outline>
    <contour>
      <point x="270" y="-3" type="curve" smooth="yes"/>
      <point x="387" y="-3"/>
      <point x="455" y="65"/>
      <point x="452" y="181" type="curve"/>
      <point x="452" y="506" type="line"/>
      <point x="432" y="506" type="line"/>
      <point x="432" y="182" type="line"/>
      <point x="432" y="75"/>
      <point x="375" y="17"/>
      <point x="270" y="17" type="curve" smooth="yes"/>
      <point x="165" y="17"/>
      <point x="108" y="75"/>
      <point x="109" y="182" type="curve"/>
      <point x="111" y="506" type="line"/>
      <point x="90" y="506" type="line"/>
      <point x="90" y="255" type="line"/>
      <point x="89" y="181" type="line"/>
      <point x="87" y="63"/>
      <point x="152" y="-3"/>
    </contour>
    <contour>
      <point x="279" y="606" type="line"/>
      <point x="279" y="606"/>
      <point x="330" y="562"/>
      <point x="371" y="532" type="curve"/>
      <point x="375" y="533" type="line"/>
      <point x="383" y="545" type="line"/>
      <point x="345" y="574"/>
      <point x="284" y="626"/>
      <point x="284" y="626" type="curve"/>
      <point x="271" y="626" type="line"/>
      <point x="271" y="626"/>
      <point x="207" y="571"/>
      <point x="172" y="545" type="curve"/>
      <point x="180" y="533" type="line"/>
      <point x="185" y="532" type="line"/>
      <point x="224" y="561"/>
      <point x="276" y="606"/>
      <point x="276" y="606" type="curve"/>
    </contour>
  </outline>
</glyph>
<glyph name="udieresis" format="1">
  <advance width="541"/>
  <unicode hex="00FC"/>
  <outline>
    <contour>
      <point x="270" y="-3" type="curve" smooth="yes"/>
      <point x="387" y="-3"/>
      <point x="455" y="65"/>
      <point x="452" y="181" type="curve"/>
      <point x="452" y="506" type="line"/>
      <point x="432" y="506" type="line"/>
      <point x="432" y="182" type="line"/>
      <point x="432" y="75"/>
      <point x="375" y="17"/>
      <point x="270" y="17" type="curve" smooth="yes"/>
      <point x="165" y="17"/>
      <point x="108" y="75"/>
      <point x="109" y="182" type="curve"/>
      <point x="111" y="506" type="line"/>
      <point x="90" y="506" type="line"/>
      <point x="90" y="255" type="line"/>
      <point x="89" y="181" type="line"/>
      <point x="87" y="63"/>
      <point x="152" y="-3"/>
    </contour>
    <contour>
      <point x="183" y="587" type="curve" smooth="yes"/>
      <point x="183" y="599"/>
      <point x="191" y="607"/>
      <point x="203" y="607" type="curve" smooth="yes"/>
      <point x="215" y="607"/>
      <point x="223" y="599"/>
      <point x="223" y="587" type="curve" smooth="yes"/>
      <point x="223" y="575"/>
      <point x="215" y="567"/>
      <point x="203" y="567" type="curve" smooth="yes"/>
      <point x="191" y="567"/>
      <point x="183" y="575"/>
    </contour>
    <contour>
      <point x="323" y="587" type="curve" smooth="yes"/>
      <point x="323" y="599"/>
      <point x="331" y="607"/>
      <point x="343" y="607" type="curve" smooth="yes"/>
      <point x="355" y="607"/>
      <point x="363" y="599"/>
      <point x="363" y="587" type="curve" smooth="yes"/>
      <point x="363" y="575"/>
      <point x="355" y="567"/>
      <point x="343" y="567" type="curve" smooth="yes"/>
      <point x="331" y="567"/>
      <point x="323" y="575"/>
    </contour>
  </outline>
</glyph>
<glyph name="oe" format="1">
  <advance width="722"/>
  <unicode hex="0153"/>
  <outline>
    <contour>
      <point x="304" y="-9" type="curve" smooth="yes"/>
      <point x="346" y="-9"/>
      <point x="392" y="0"/>
      <point x="439" y="0" type="curve"/>
      <point x="677" y="0" type="line"/>
      <point x="680" y="16" type="line"/>
      <point x="678" y="19" type="line"/>
      <point x="439" y="19" type="line"/>
      <point x="439" y="237" type="line"/>
      <point x="632" y="237" type="line"/>
      <point x="636" y="253" type="line"/>
      <point x="633" y="257" type="line"/>
      <point x="439" y="257" type="line"/>
      <point x="439" y="472" type="line"/>
      <point x="674" y="471" type="line"/>
      <point x="677" y="487" type="line"/>
      <point x="675" y="491" type="line"/>
      <point x="439" y="491" type="line"/>
      <point x="394" y="491"/>
      <point x="357" y="500"/>
      <point x="313" y="500" type="curve" smooth="yes"/>
      <point x="150" y="500"/>
      <point x="58" y="405"/>
      <point x="58" y="244" type="curve" smooth="yes"/>
      <point x="58" y="85"/>
      <point x="147" y="-9"/>
    </contour>
    <contour>
      <point x="312" y="481" type="curve" smooth="yes"/>
      <point x="348" y="481"/>
      <point x="392" y="473"/>
      <point x="406" y="472" type="curve"/>
      <point x="415" y="471"/>
      <point x="417" y="466"/>
      <point x="417" y="447" type="curve"/>
      <point x="419" y="38" type="line"/>
      <point x="419" y="25"/>
      <point x="415" y="21"/>
      <point x="396" y="18" type="curve"/>
      <point x="381" y="15"/>
      <point x="340" y="10"/>
      <point x="308" y="10" type="curve" smooth="yes"/>
      <point x="157" y="10"/>
      <point x="79" y="97"/>
      <point x="79" y="244" type="curve" smooth="yes"/>
      <point x="79" y="394"/>
      <point x="163" y="481"/>
    </contour>
  </outline>
</glyph>
<glyph name="dotaccent" format="1">
  <advance width="232"/>
  <unicode hex="02D9"/>
  <outline>
    <contour>
      <point x="115" y="631" type="curve" smooth="yes"/>
      <point x="103" y="631"/>
      <point x="95" y="623"/>
      <point x="95" y="611" type="curve" smooth="yes"/>
      <point x="95" y="599"/>
      <point x="103" y="591"/>
      <point x="115" y="591" type="curve" smooth="yes"/>
      <point x="127" y="591"/>
      <point x="135" y="599"/>
      <point x="135" y="611" type="curve" smooth="yes"/>
      <point x="135" y="623"/>
      <point x="127" y="631"/>
    </contour>
  </outline>
</glyph>
<glyph name="mu" format="1">
  <advance width="499"/>
  <unicode hex="03BC"/>
  <outline>
    <contour>
      <point x="479" y="29" type="line"/>
      <point x="473" y="32" type="line"/>
      <point x="461" y="22"/>
      <point x="444" y="17"/>
      <point x="431" y="17" type="curve" smooth="yes"/>
      <point x="406" y="17"/>
      <point x="395" y="36"/>
      <point x="395" y="79" type="curve" smooth="yes"/>
      <point x="395" y="453" type="line"/>
      <point x="375" y="449" type="line"/>
      <point x="375" y="108" type="line"/>
      <point x="321" y="47"/>
      <point x="265" y="16"/>
      <point x="212" y="16" type="curve" smooth="yes"/>
      <point x="146" y="16"/>
      <point x="110" y="58"/>
      <point x="110" y="133" type="curve" smooth="yes"/>
      <point x="110" y="453" type="line"/>
      <point x="90" y="449" type="line"/>
      <point x="90" y="-185" type="line"/>
      <point x="110" y="-185" type="line"/>
      <point x="110" y="50" type="line"/>
      <point x="128" y="15"/>
      <point x="160" y="-4"/>
      <point x="209" y="-4" type="curve" smooth="yes"/>
      <point x="266" y="-4"/>
      <point x="321" y="26"/>
      <point x="371" y="79" type="curve"/>
      <point x="375" y="79" type="line"/>
      <point x="375" y="20"/>
      <point x="394" y="-3"/>
      <point x="430" y="-3" type="curve" smooth="yes"/>
      <point x="447" y="-3"/>
      <point x="462" y="2"/>
      <point x="475" y="11" type="curve"/>
    </contour>
  </outline>
</glyph>
<glyph name="guilsinglright" format="1">
  <advance width="209"/>
  <unicode hex="203A"/>
  <outline>
    <contour>
      <point x="188" y="229" type="line"/>
      <point x="33" y="396" type="line"/>
      <point x="21" y="387" type="line"/>
      <point x="21" y="381" type="line"/>
      <point x="166" y="223" type="line"/>
      <point x="21" y="65" type="line"/>
      <point x="21" y="59" type="line"/>
      <point x="33" y="50" type="line"/>
      <point x="188" y="218" type="line"/>
    </contour>
  </outline>
</glyph>
<glyph name="zerosuperior" format="1">
  <advance width="373"/>
  <unicode hex="2070"/>
  <outline>
    <contour>
      <point x="188" y="701" type="curve" smooth="yes"/>
      <point x="99" y="701"/>
      <point x="50" y="634"/>
      <point x="50" y="514" type="curve" smooth="yes"/>
      <point x="50" y="394"/>
      <point x="98" y="328"/>
      <point x="186" y="328" type="curve" smooth="yes"/>
      <point x="275" y="328"/>
      <point x="323" y="395"/>
      <point x="323" y="516" type="curve" smooth="yes"/>
      <point x="323" y="635"/>
      <point x="275" y="701"/>
    </contour>
    <contour>
      <point x="186" y="681" type="curve" smooth="yes"/>
      <point x="263" y="681"/>
      <point x="305" y="622"/>
      <point x="305" y="514" type="curve" smooth="yes"/>
      <point x="305" y="407"/>
      <point x="263" y="348"/>
      <point x="188" y="348" type="curve" smooth="yes"/>
      <point x="111" y="348"/>
      <point x="68" y="407"/>
      <point x="68" y="516" type="curve" smooth="yes"/>
      <point x="68" y="622"/>
      <point x="110" y="681"/>
    </contour>
  </outline>
</glyph>
<glyph name="foursuperior" format="1">
  <advance width="335"/>
  <unicode hex="2074"/>
  <outline>
    <contour>
      <point x="295" y="465" type="line"/>
      <point x="292" y="468" type="line"/>
      <point x="223" y="468" type="line"/>
      <point x="223" y="700" type="line"/>
      <point x="204" y="700" type="line"/>
      <point x="30" y="467" type="line"/>
      <point x="30" y="452" type="line"/>
      <point x="33" y="449" type="line"/>
      <point x="64" y="450" type="line"/>
      <point x="204" y="450" type="line"/>
      <point x="204" y="331" type="line"/>
      <point x="206" y="329" type="line"/>
      <point x="222" y="331" type="line"/>
      <point x="224" y="333" type="line"/>
      <point x="223" y="450" type="line"/>
      <point x="242" y="450" type="line"/>
      <point x="292" y="449" type="line"/>
    </contour>
    <contour>
      <point x="204" y="468" type="line"/>
      <point x="52" y="468" type="line"/>
      <point x="201" y="668" type="line"/>
      <point x="204" y="668" type="line"/>
    </contour>
  </outline>
</glyph>
<glyph name="fivesuperior" format="1">
  <advance width="288"/>
  <unicode hex="2075"/>
  <outline>
    <contour>
      <point x="245" y="699" type="line"/>
      <point x="243" y="701" type="line"/>
      <point x="197" y="700" type="line"/>
      <point x="105" y="700" type="line"/>
      <point x="72" y="701" type="line"/>
      <point x="66" y="695" type="line"/>
      <point x="62" y="546" type="line"/>
      <point x="65" y="542" type="line"/>
      <point x="116" y="531" type="line" smooth="yes"/>
      <point x="189" y="515"/>
      <point x="223" y="490"/>
      <point x="223" y="448" type="curve" smooth="yes"/>
      <point x="223" y="386"/>
      <point x="170" y="346"/>
      <point x="91" y="346" type="curve" smooth="yes"/>
      <point x="76" y="346"/>
      <point x="58" y="348"/>
      <point x="38" y="351" type="curve"/>
      <point x="36" y="349" type="line"/>
      <point x="39" y="333" type="line"/>
      <point x="57" y="330"/>
      <point x="76" y="328"/>
      <point x="90" y="328" type="curve" smooth="yes"/>
      <point x="182" y="328"/>
      <point x="243" y="376"/>
      <point x="243" y="448" type="curve" smooth="yes"/>
      <point x="243" y="500"/>
      <point x="205" y="532"/>
      <point x="124" y="549" type="curve" smooth="yes"/>
      <point x="80" y="559" type="line"/>
      <point x="84" y="682" type="line"/>
      <point x="210" y="682" type="line"/>
      <point x="240" y="680" type="line"/>
      <point x="243" y="682" type="line"/>
    </contour>
  </outline>
</glyph>
<glyph name="eightsuperior" format="1">
  <advance width="320"/>
  <unicode hex="2078"/>
  <outline>
    <contour>
      <point x="164" y="702" type="curve" smooth="yes"/>
      <point x="103" y="702"/>
      <point x="60" y="669"/>
      <point x="60" y="612" type="curve" smooth="yes"/>
      <point x="60" y="563"/>
      <point x="95" y="540"/>
      <point x="134" y="524" type="curve"/>
      <point x="134" y="522" type="line"/>
      <point x="90" y="506"/>
      <point x="42" y="478"/>
      <point x="42" y="422" type="curve" smooth="yes"/>
      <point x="42" y="366"/>
      <point x="85" y="328"/>
      <point x="154" y="328" type="curve" smooth="yes"/>
      <point x="225" y="328"/>
      <point x="272" y="367"/>
      <point x="272" y="427" type="curve" smooth="yes"/>
      <point x="272" y="485"/>
      <point x="225" y="505"/>
      <point x="178" y="523" type="curve"/>
      <point x="178" y="525" type="line"/>
      <point x="221" y="541"/>
      <point x="258" y="566"/>
      <point x="258" y="618" type="curve" smooth="yes"/>
      <point x="258" y="671"/>
      <point x="222" y="702"/>
    </contour>
    <contour>
      <point x="163" y="685" type="curve" smooth="yes"/>
      <point x="210" y="685"/>
      <point x="240" y="659"/>
      <point x="240" y="617" type="curve" smooth="yes"/>
      <point x="240" y="567"/>
      <point x="198" y="545"/>
      <point x="157" y="532" type="curve"/>
      <point x="116" y="548"/>
      <point x="79" y="566"/>
      <point x="79" y="612" type="curve" smooth="yes"/>
      <point x="79" y="657"/>
      <point x="113" y="685"/>
    </contour>
    <contour>
      <point x="154" y="514" type="curve"/>
      <point x="203" y="495"/>
      <point x="253" y="479"/>
      <point x="253" y="425" type="curve" smooth="yes"/>
      <point x="253" y="378"/>
      <point x="215" y="346"/>
      <point x="154" y="346" type="curve" smooth="yes"/>
      <point x="97" y="346"/>
      <point x="61" y="376"/>
      <point x="61" y="422" type="curve" smooth="yes"/>
      <point x="61" y="477"/>
      <point x="111" y="499"/>
    </contour>
  </outline>
</glyph>
<glyph name="threeeighths" format="1">
  <advance width="674"/>
  <unicode hex="215C"/>
  <outline>
    <contour>
      <point x="558" y="664" type="line"/>
      <point x="548" y="669" type="line"/>
      <point x="63" y="-77" type="line"/>
      <point x="67" y="-86" type="line"/>
      <point x="76" y="-90" type="line"/>
      <point x="561" y="656" type="line"/>
    </contour>
    <contour>
      <point x="130" y="640" type="curve" smooth="yes"/>
      <point x="96" y="640"/>
      <point x="66" y="627"/>
      <point x="35" y="599" type="curve"/>
      <point x="39" y="582" type="line"/>
      <point x="42" y="582" type="line"/>
      <point x="71" y="608"/>
      <point x="98" y="621"/>
      <point x="128" y="621" type="curve" smooth="yes"/>
      <point x="170" y="621"/>
      <point x="199" y="597"/>
      <point x="199" y="561" type="curve" smooth="yes"/>
      <point x="199" y="511"/>
      <point x="144" y="474"/>
      <point x="105" y="474" type="curve" smooth="yes"/>
      <point x="76" y="474" type="line"/>
      <point x="75" y="459" type="line"/>
      <point x="77" y="457" type="line"/>
      <point x="110" y="457" type="line"/>
      <point x="180" y="454"/>
      <point x="219" y="425"/>
      <point x="219" y="375" type="curve" smooth="yes"/>
      <point x="219" y="320"/>
      <point x="171" y="285"/>
      <point x="99" y="285" type="curve" smooth="yes"/>
      <point x="82" y="285"/>
      <point x="58" y="287"/>
      <point x="39" y="290" type="curve"/>
      <point x="37" y="288" type="line"/>
      <point x="39" y="272" type="line"/>
      <point x="58" y="268"/>
      <point x="82" y="266"/>
      <point x="99" y="266" type="curve" smooth="yes"/>
      <point x="182" y="266"/>
      <point x="239" y="311"/>
      <point x="239" y="375" type="curve" smooth="yes"/>
      <point x="239" y="423"/>
      <point x="207" y="456"/>
      <point x="150" y="468" type="curve"/>
      <point x="150" y="470" type="line"/>
      <point x="193" y="489"/>
      <point x="220" y="527"/>
      <point x="220" y="564" type="curve" smooth="yes"/>
      <point x="220" y="610"/>
      <point x="183" y="640"/>
    </contour>
    <contour>
      <point x="518" y="371" type="curve" smooth="yes"/>
      <point x="457" y="371"/>
      <point x="414" y="338"/>
      <point x="414" y="281" type="curve" smooth="yes"/>
      <point x="414" y="232"/>
      <point x="449" y="209"/>
      <point x="488" y="193" type="curve"/>
      <point x="488" y="191" type="line"/>
      <point x="444" y="175"/>
      <point x="396" y="147"/>
      <point x="396" y="91" type="curve" smooth="yes"/>
      <point x="396" y="35"/>
      <point x="439" y="-3"/>
      <point x="508" y="-3" type="curve" smooth="yes"/>
      <point x="579" y="-3"/>
      <point x="626" y="36"/>
      <point x="626" y="96" type="curve" smooth="yes"/>
      <point x="626" y="154"/>
      <point x="579" y="174"/>
      <point x="532" y="192" type="curve"/>
      <point x="532" y="194" type="line"/>
      <point x="575" y="210"/>
      <point x="612" y="235"/>
      <point x="612" y="287" type="curve" smooth="yes"/>
      <point x="612" y="340"/>
      <point x="576" y="371"/>
    </contour>
    <contour>
      <point x="517" y="354" type="curve" smooth="yes"/>
      <point x="564" y="354"/>
      <point x="594" y="328"/>
      <point x="594" y="286" type="curve" smooth="yes"/>
      <point x="594" y="236"/>
      <point x="552" y="214"/>
      <point x="511" y="201" type="curve"/>
      <point x="470" y="217"/>
      <point x="433" y="235"/>
      <point x="433" y="281" type="curve" smooth="yes"/>
      <point x="433" y="326"/>
      <point x="467" y="354"/>
    </contour>
    <contour>
      <point x="508" y="183" type="curve"/>
      <point x="557" y="164"/>
      <point x="607" y="148"/>
      <point x="607" y="94" type="curve" smooth="yes"/>
      <point x="607" y="47"/>
      <point x="569" y="15"/>
      <point x="508" y="15" type="curve" smooth="yes"/>
      <point x="451" y="15"/>
      <point x="415" y="45"/>
      <point x="415" y="91" type="curve" smooth="yes"/>
      <point x="415" y="146"/>
      <point x="465" y="168"/>
    </contour>
  </outline>
</glyph>
<glyph name="fiveeighths" format="1">
  <advance width="659"/>
  <unicode hex="215D"/>
  <outline>
    <contour>
      <point x="543" y="664" type="line"/>
      <point x="533" y="669" type="line"/>
      <point x="48" y="-77" type="line"/>
      <point x="52" y="-86" type="line"/>
      <point x="61" y="-90" type="line"/>
      <point x="546" y="656" type="line"/>
    </contour>
    <contour>
      <point x="245" y="636" type="line"/>
      <point x="243" y="638" type="line"/>
      <point x="197" y="637" type="line"/>
      <point x="105" y="637" type="line"/>
      <point x="72" y="638" type="line"/>
      <point x="66" y="632" type="line"/>
      <point x="62" y="483" type="line"/>
      <point x="65" y="479" type="line"/>
      <point x="116" y="468" type="line" smooth="yes"/>
      <point x="189" y="452"/>
      <point x="223" y="427"/>
      <point x="223" y="385" type="curve" smooth="yes"/>
      <point x="223" y="323"/>
      <point x="170" y="283"/>
      <point x="91" y="283" type="curve" smooth="yes"/>
      <point x="76" y="283"/>
      <point x="58" y="285"/>
      <point x="38" y="288" type="curve"/>
      <point x="36" y="286" type="line"/>
      <point x="39" y="270" type="line"/>
      <point x="57" y="267"/>
      <point x="76" y="265"/>
      <point x="90" y="265" type="curve" smooth="yes"/>
      <point x="182" y="265"/>
      <point x="243" y="313"/>
      <point x="243" y="385" type="curve" smooth="yes"/>
      <point x="243" y="437"/>
      <point x="205" y="469"/>
      <point x="124" y="486" type="curve" smooth="yes"/>
      <point x="80" y="496" type="line"/>
      <point x="84" y="619" type="line"/>
      <point x="210" y="619" type="line"/>
      <point x="240" y="617" type="line"/>
      <point x="243" y="619" type="line"/>
    </contour>
    <contour>
      <point x="503" y="371" type="curve" smooth="yes"/>
      <point x="442" y="371"/>
      <point x="399" y="338"/>
      <point x="399" y="281" type="curve" smooth="yes"/>
      <point x="399" y="232"/>
      <point x="434" y="209"/>
      <point x="473" y="193" type="curve"/>
      <point x="473" y="191" type="line"/>
      <point x="429" y="175"/>
      <point x="381" y="147"/>
      <point x="381" y="91" type="curve" smooth="yes"/>
      <point x="381" y="35"/>
      <point x="424" y="-3"/>
      <point x="493" y="-3" type="curve" smooth="yes"/>
      <point x="564" y="-3"/>
      <point x="611" y="36"/>
      <point x="611" y="96" type="curve" smooth="yes"/>
      <point x="611" y="154"/>
      <point x="564" y="174"/>
      <point x="517" y="192" type="curve"/>
      <point x="517" y="194" type="line"/>
      <point x="560" y="210"/>
      <point x="597" y="235"/>
      <point x="597" y="287" type="curve" smooth="yes"/>
      <point x="597" y="340"/>
      <point x="561" y="371"/>
    </contour>
    <contour>
      <point x="502" y="354" type="curve" smooth="yes"/>
      <point x="549" y="354"/>
      <point x="579" y="328"/>
      <point x="579" y="286" type="curve" smooth="yes"/>
      <point x="579" y="236"/>
      <point x="537" y="214"/>
      <point x="496" y="201" type="curve"/>
      <point x="455" y="217"/>
      <point x="418" y="235"/>
      <point x="418" y="281" type="curve" smooth="yes"/>
      <point x="418" y="326"/>
      <point x="452" y="354"/>
    </contour>
    <contour>
      <point x="493" y="183" type="curve"/>
      <point x="542" y="164"/>
      <point x="592" y="148"/>
      <point x="592" y="94" type="curve" smooth="yes"/>
      <point x="592" y="47"/>
      <point x="554" y="15"/>
      <point x="493" y="15" type="curve" smooth="yes"/>
      <point x="436" y="15"/>
      <point x="400" y="45"/>
      <point x="400" y="91" type="curve" smooth="yes"/>
      <point x="400" y="146"/>
      <point x="450" y="168"/>
    </contour>
  </outline>
</glyph>
<glyph name="arrowleft" format="1">
  <advance width="500"/>
  <unicode hex="2190"/>
  <outline>
    <contour>
      <point x="473" y="217" type="line"/>
      <point x="475" y="235" type="line"/>
      <point x="473" y="237" type="line"/>
      <point x="58" y="237" type="line"/>
      <point x="225" y="407" type="line"/>
      <point x="225" y="413" type="line"/>
      <point x="211" y="421" type="line"/>
      <point x="21" y="229" type="line"/>
      <point x="21" y="225" type="line"/>
      <point x="211" y="33" type="line"/>
      <point x="225" y="41" type="line"/>
      <point x="225" y="47" type="line"/>
      <point x="58" y="217" type="line"/>
    </contour>
  </outline>
</glyph>
<glyph name="arrowupright" format="1">
  <advance width="500"/>
  <unicode hex="2197"/>
  <outline>
    <contour>
      <point x="394" y="117" type="line"/>
      <point x="392" y="387" type="line"/>
      <point x="390" y="389" type="line"/>
      <point x="119" y="391" type="line"/>
      <point x="115" y="375" type="line"/>
      <point x="119" y="371" type="line"/>
      <point x="358" y="369" type="line"/>
      <point x="64" y="76" type="line"/>
      <point x="76" y="61" type="line"/>
      <point x="78" y="61" type="line"/>
      <point x="372" y="355" type="line"/>
      <point x="374" y="117" type="line"/>
      <point x="378" y="112" type="line"/>
    </contour>
  </outline>
</glyph>
<glyph name="radical" format="1">
  <advance width="519"/>
  <unicode hex="221A"/>
  <outline>
    <contour>
      <point x="242" y="0" type="line"/>
      <point x="525" y="710" type="line"/>
      <point x="507" y="710" type="line"/>
      <point x="503" y="707" type="line"/>
      <point x="234" y="31" type="line"/>
      <point x="230" y="31" type="line"/>
      <point x="89" y="448" type="line"/>
      <point x="84" y="452" type="line"/>
      <point x="-17" y="452" type="line"/>
      <point x="-19" y="435" type="line"/>
      <point x="-16" y="432" type="line"/>
      <point x="72" y="432" type="line"/>
      <point x="220" y="0" type="line"/>
    </contour>
  </outline>
</glyph>
<glyph name="D.ss01" format="1">
  <advance width="637"/>
  <outline>
    <contour>
      <point x="110" y="637" type="line"/>
      <point x="110" y="0" type="line"/>
      <point x="154" y="-2"/>
      <point x="276" y="-5"/>
      <point x="301" y="-5" type="curve" smooth="yes"/>
      <point x="486" y="-5"/>
      <point x="589" y="118"/>
      <point x="589" y="339" type="curve" smooth="yes"/>
      <point x="589" y="534"/>
      <point x="490" y="642"/>
      <point x="311" y="642" type="curve"/>
    </contour>
    <contour>
      <point x="301" y="15" type="curve" smooth="yes"/>
      <point x="278" y="15"/>
      <point x="173" y="18"/>
      <point x="130" y="20" type="curve"/>
      <point x="130" y="617" type="line"/>
      <point x="171" y="619"/>
      <point x="290" y="622"/>
      <point x="311" y="622" type="curve" smooth="yes"/>
      <point x="477" y="622"/>
      <point x="569" y="521"/>
      <point x="569" y="339" type="curve" smooth="yes"/>
      <point x="569" y="131"/>
      <point x="473" y="15"/>
    </contour>
  </outline>
</glyph>
<glyph name="Euro.1.3" format="1">
  <advance width="503"/>
  <outline>
    <contour>
      <point x="507" y="550" type="curve" smooth="yes"/>
      <point x="505" y="551"/>
      <point x="503" y="552"/>
      <point x="501" y="550" type="curve"/>
      <point x="438" y="502" type="line"/>
      <point x="446" y="497" type="line"/>
      <point x="506" y="544" type="line"/>
      <point x="508" y="545"/>
      <point x="508" y="548"/>
    </contour>
    <contour>
      <point x="346" y="312" type="line"/>
      <point x="343" y="315" type="line"/>
      <point x="263" y="315" type="line"/>
      <point x="237" y="294" type="line"/>
      <point x="344" y="294" type="line"/>
    </contour>
    <contour>
      <point x="302" y="15" type="curve" smooth="yes"/>
      <point x="208" y="15"/>
      <point x="148" y="69"/>
      <point x="129" y="168" type="curve"/>
      <point x="344" y="168" type="line"/>
      <point x="346" y="185" type="line"/>
      <point x="343" y="188" type="line"/>
      <point x="125" y="188" type="line"/>
      <point x="124" y="194"/>
      <point x="124" y="200"/>
      <point x="123" y="206" type="curve"/>
      <point x="103" y="190" type="line"/>
      <point x="103" y="190"/>
      <point x="103" y="189"/>
      <point x="103" y="188" type="curve"/>
      <point x="106" y="168" type="line"/>
      <point x="127" y="56"/>
      <point x="195" y="-5"/>
      <point x="302" y="-5" type="curve" smooth="yes"/>
      <point x="352" y="-5"/>
      <point x="406" y="13"/>
      <point x="450" y="46" type="curve"/>
      <point x="452" y="65" type="line"/>
      <point x="446" y="67" type="line"/>
      <point x="405" y="34"/>
      <point x="352" y="15"/>
    </contour>
    <contour>
      <point x="104" y="315" type="curve"/>
      <point x="39" y="315" type="line"/>
      <point x="37" y="297" type="line"/>
      <point x="40" y="294" type="line"/>
      <point x="102" y="294" type="line"/>
      <point x="101" y="279"/>
      <point x="100" y="263"/>
      <point x="100" y="247" type="curve" smooth="yes"/>
      <point x="100" y="244"/>
      <point x="100" y="241"/>
      <point x="100" y="238" type="curve"/>
      <point x="-2" y="158" type="line"/>
      <point x="-4" y="156"/>
      <point x="-4" y="154"/>
      <point x="-3" y="152" type="curve" smooth="yes"/>
      <point x="-2" y="151"/>
      <point x="-1" y="150"/>
      <point x="0" y="150" type="curve" smooth="yes"/>
      <point x="1" y="150"/>
      <point x="2" y="150"/>
      <point x="3" y="151" type="curve"/>
      <point x="384" y="449" type="line"/>
      <point x="375" y="452" type="line"/>
      <point x="121" y="254" type="line"/>
      <point x="122" y="268"/>
      <point x="123" y="282"/>
      <point x="123" y="294" type="curve"/>
      <point x="126" y="315" type="line"/>
      <point x="144" y="427"/>
      <point x="208" y="487"/>
      <point x="314" y="487" type="curve" smooth="yes"/>
      <point x="361" y="487"/>
      <point x="407" y="472"/>
      <point x="442" y="444" type="curve"/>
      <point x="448" y="444" type="line"/>
      <point x="454" y="462" type="line"/>
      <point x="415" y="491"/>
      <point x="364" y="508"/>
      <point x="315" y="508" type="curve" smooth="yes"/>
      <point x="196" y="508"/>
      <point x="123" y="440"/>
    </contour>
  </outline>
</glyph>
<glyph name="Euro.2" format="1">
  <advance width="503"/>
  <outline>
    <contour>
      <point x="303" y="15" type="curve" smooth="yes"/>
      <point x="254" y="15"/>
      <point x="214" y="30"/>
      <point x="185" y="57" type="curve"/>
      <point x="167" y="44" type="line"/>
      <point x="201" y="12"/>
      <point x="246" y="-5"/>
      <point x="303" y="-5" type="curve" smooth="yes"/>
      <point x="353" y="-5"/>
      <point x="407" y="13"/>
      <point x="451" y="46" type="curve"/>
      <point x="453" y="65" type="line"/>
      <point x="447" y="67" type="line"/>
      <point x="406" y="34"/>
      <point x="353" y="15"/>
    </contour>
    <contour>
      <point x="244" y="143" type="line"/>
      <point x="230" y="143" type="line"/>
      <point x="160" y="88" type="line"/>
      <point x="146" y="110"/>
      <point x="136" y="136"/>
      <point x="130" y="168" type="curve"/>
      <point x="345" y="168" type="line"/>
      <point x="347" y="185" type="line"/>
      <point x="344" y="188" type="line"/>
      <point x="126" y="188" type="line"/>
      <point x="123" y="207"/>
      <point x="122" y="226"/>
      <point x="122" y="247" type="curve" smooth="yes"/>
      <point x="122" y="263"/>
      <point x="123" y="280"/>
      <point x="124" y="294" type="curve"/>
      <point x="345" y="294" type="line"/>
      <point x="347" y="312" type="line"/>
      <point x="344" y="315" type="line"/>
      <point x="127" y="315" type="line"/>
      <point x="145" y="427"/>
      <point x="209" y="487"/>
      <point x="315" y="487" type="curve" smooth="yes"/>
      <point x="362" y="487"/>
      <point x="408" y="472"/>
      <point x="443" y="444" type="curve"/>
      <point x="449" y="444" type="line"/>
      <point x="455" y="462" type="line"/>
      <point x="416" y="491"/>
      <point x="365" y="508"/>
      <point x="316" y="508" type="curve" smooth="yes"/>
      <point x="197" y="508"/>
      <point x="124" y="440"/>
      <point x="105" y="315" type="curve"/>
      <point x="40" y="315" type="line"/>
      <point x="38" y="297" type="line"/>
      <point x="41" y="294" type="line"/>
      <point x="103" y="294" type="line"/>
      <point x="102" y="279"/>
      <point x="101" y="263"/>
      <point x="101" y="247" type="curve" smooth="yes"/>
      <point x="101" y="226"/>
      <point x="102" y="207"/>
      <point x="104" y="188" type="curve"/>
      <point x="40" y="188" type="line"/>
      <point x="38" y="171" type="line"/>
      <point x="41" y="168" type="line"/>
      <point x="107" y="168" type="line"/>
      <point x="113" y="131"/>
      <point x="126" y="100"/>
      <point x="142" y="74" type="curve"/>
      <point x="-2" y="-39" type="line"/>
      <point x="-4" y="-40"/>
      <point x="-4" y="-43"/>
      <point x="-3" y="-45" type="curve" smooth="yes"/>
      <point x="-2" y="-46"/>
      <point x="-1" y="-46"/>
      <point x="1" y="-46" type="curve" smooth="yes"/>
      <point x="1" y="-46"/>
      <point x="2" y="-46"/>
      <point x="3" y="-45" type="curve"/>
    </contour>
    <contour>
      <point x="507" y="353" type="curve" smooth="yes"/>
      <point x="505" y="355"/>
      <point x="503" y="356"/>
      <point x="501" y="354" type="curve"/>
      <point x="320" y="213" type="line"/>
      <point x="335" y="213" type="line"/>
      <point x="506" y="347" type="line"/>
      <point x="508" y="349"/>
      <point x="508" y="351"/>
    </contour>
  </outline>
</glyph>
<glyph name="Euro.2.1" format="1">
  <advance width="503"/>
  <outline>
    <contour>
      <point x="505" y="158" type="curve"/>
      <point x="156" y="294" type="line"/>
      <point x="344" y="294" type="line"/>
      <point x="346" y="312" type="line"/>
      <point x="343" y="315" type="line"/>
      <point x="126" y="315" type="line"/>
      <point x="144" y="427"/>
      <point x="208" y="487"/>
      <point x="314" y="487" type="curve" smooth="yes"/>
      <point x="361" y="487"/>
      <point x="407" y="472"/>
      <point x="442" y="444" type="curve"/>
      <point x="448" y="444" type="line"/>
      <point x="454" y="462" type="line"/>
      <point x="415" y="491"/>
      <point x="364" y="508"/>
      <point x="315" y="508" type="curve" smooth="yes"/>
      <point x="196" y="508"/>
      <point x="123" y="440"/>
      <point x="104" y="315" type="curve"/>
      <point x="104" y="315" type="line"/>
      <point x="2" y="355" type="line"/>
      <point x="0" y="355"/>
      <point x="-3" y="354"/>
      <point x="-4" y="352" type="curve" smooth="yes"/>
      <point x="-4" y="350"/>
      <point x="-3" y="348"/>
      <point x="-1" y="347" type="curve"/>
      <point x="502" y="150" type="line"/>
      <point x="502" y="150"/>
      <point x="503" y="150"/>
      <point x="503" y="150" type="curve" smooth="yes"/>
      <point x="505" y="150"/>
      <point x="507" y="151"/>
      <point x="507" y="153" type="curve" smooth="yes"/>
      <point x="508" y="155"/>
      <point x="507" y="157"/>
    </contour>
    <contour>
      <point x="302" y="15" type="curve" smooth="yes"/>
      <point x="208" y="15"/>
      <point x="148" y="69"/>
      <point x="129" y="168" type="curve"/>
      <point x="344" y="168" type="line"/>
      <point x="346" y="185" type="line"/>
      <point x="343" y="188" type="line"/>
      <point x="125" y="188" type="line"/>
      <point x="122" y="207"/>
      <point x="121" y="226"/>
      <point x="121" y="247" type="curve" smooth="yes"/>
      <point x="121" y="253"/>
      <point x="122" y="260"/>
      <point x="122" y="266" type="curve"/>
      <point x="101" y="274" type="line"/>
      <point x="101" y="265"/>
      <point x="100" y="256"/>
      <point x="100" y="247" type="curve" smooth="yes"/>
      <point x="100" y="226"/>
      <point x="101" y="207"/>
      <point x="103" y="188" type="curve"/>
      <point x="39" y="188" type="line"/>
      <point x="37" y="171" type="line"/>
      <point x="40" y="168" type="line"/>
      <point x="106" y="168" type="line"/>
      <point x="127" y="56"/>
      <point x="195" y="-5"/>
      <point x="302" y="-5" type="curve" smooth="yes"/>
      <point x="352" y="-5"/>
      <point x="406" y="13"/>
      <point x="450" y="46" type="curve"/>
      <point x="452" y="65" type="line"/>
      <point x="446" y="67" type="line"/>
      <point x="405" y="34"/>
      <point x="352" y="15"/>
    </contour>
  </outline>
</glyph>
<glyph name="Euro.3.0" format="1">
  <advance width="503"/>
  <outline>
    <contour>
      <point x="507" y="-39" type="curve"/>
      <point x="222" y="294" type="line"/>
      <point x="345" y="294" type="line"/>
      <point x="347" y="312" type="line"/>
      <point x="344" y="315" type="line"/>
      <point x="204" y="315" type="line"/>
      <point x="146" y="383" type="line"/>
      <point x="176" y="451"/>
      <point x="233" y="487"/>
      <point x="315" y="487" type="curve" smooth="yes"/>
      <point x="362" y="487"/>
      <point x="408" y="472"/>
      <point x="443" y="444" type="curve"/>
      <point x="449" y="444" type="line"/>
      <point x="455" y="462" type="line"/>
      <point x="416" y="491"/>
      <point x="365" y="508"/>
      <point x="316" y="508" type="curve" smooth="yes"/>
      <point x="228" y="508"/>
      <point x="165" y="471"/>
      <point x="131" y="401" type="curve"/>
      <point x="4" y="550" type="line"/>
      <point x="2" y="552"/>
      <point x="0" y="552"/>
      <point x="-2" y="550" type="curve" smooth="yes"/>
      <point x="-4" y="549"/>
      <point x="-4" y="546"/>
      <point x="-3" y="544" type="curve"/>
      <point x="500" y="-45" type="line"/>
      <point x="501" y="-46"/>
      <point x="502" y="-46"/>
      <point x="504" y="-46" type="curve" smooth="yes"/>
      <point x="505" y="-46"/>
      <point x="506" y="-46"/>
      <point x="506" y="-45" type="curve" smooth="yes"/>
      <point x="508" y="-44"/>
      <point x="508" y="-41"/>
    </contour>
    <contour>
      <point x="303" y="15" type="curve" smooth="yes"/>
      <point x="209" y="15"/>
      <point x="149" y="69"/>
      <point x="130" y="168" type="curve"/>
      <point x="278" y="168" type="line"/>
      <point x="261" y="188" type="line"/>
      <point x="126" y="188" type="line"/>
      <point x="123" y="207"/>
      <point x="122" y="226"/>
      <point x="122" y="247" type="curve" smooth="yes"/>
      <point x="122" y="263"/>
      <point x="123" y="280"/>
      <point x="124" y="294" type="curve"/>
      <point x="170" y="294" type="line"/>
      <point x="153" y="315" type="line"/>
      <point x="127" y="315" type="line"/>
      <point x="128" y="324"/>
      <point x="130" y="332"/>
      <point x="131" y="340" type="curve"/>
      <point x="114" y="360" type="line"/>
      <point x="110" y="346"/>
      <point x="107" y="331"/>
      <point x="105" y="315" type="curve"/>
      <point x="40" y="315" type="line"/>
      <point x="38" y="297" type="line"/>
      <point x="41" y="294" type="line"/>
      <point x="103" y="294" type="line"/>
      <point x="102" y="279"/>
      <point x="101" y="263"/>
      <point x="101" y="247" type="curve" smooth="yes"/>
      <point x="101" y="226"/>
      <point x="102" y="207"/>
      <point x="104" y="188" type="curve"/>
      <point x="40" y="188" type="line"/>
      <point x="38" y="171" type="line"/>
      <point x="41" y="168" type="line"/>
      <point x="107" y="168" type="line"/>
      <point x="128" y="56"/>
      <point x="196" y="-5"/>
      <point x="303" y="-5" type="curve" smooth="yes"/>
      <point x="336" y="-5"/>
      <point x="372" y="3"/>
      <point x="405" y="19" type="curve"/>
      <point x="392" y="34" type="line"/>
      <point x="363" y="22"/>
      <point x="332" y="15"/>
    </contour>
  </outline>
</glyph>
<glyph name="Euro.3.1" format="1">
  <advance width="503"/>
  <outline>
    <contour>
      <point x="303" y="15" type="curve" smooth="yes"/>
      <point x="209" y="15"/>
      <point x="149" y="69"/>
      <point x="130" y="168" type="curve"/>
      <point x="345" y="168" type="line"/>
      <point x="347" y="185" type="line"/>
      <point x="344" y="188" type="line"/>
      <point x="126" y="188" type="line"/>
      <point x="123" y="207"/>
      <point x="122" y="226"/>
      <point x="122" y="247" type="curve" smooth="yes"/>
      <point x="122" y="263"/>
      <point x="123" y="280"/>
      <point x="124" y="294" type="curve"/>
      <point x="267" y="294" type="line"/>
      <point x="241" y="315" type="line"/>
      <point x="127" y="315" type="line"/>
      <point x="145" y="427"/>
      <point x="209" y="487"/>
      <point x="315" y="487" type="curve" smooth="yes"/>
      <point x="362" y="487"/>
      <point x="408" y="472"/>
      <point x="443" y="444" type="curve"/>
      <point x="449" y="444" type="line"/>
      <point x="455" y="462" type="line"/>
      <point x="416" y="491"/>
      <point x="365" y="508"/>
      <point x="316" y="508" type="curve" smooth="yes"/>
      <point x="197" y="508"/>
      <point x="124" y="440"/>
      <point x="105" y="315" type="curve"/>
      <point x="40" y="315" type="line"/>
      <point x="38" y="297" type="line"/>
      <point x="41" y="294" type="line"/>
      <point x="103" y="294" type="line"/>
      <point x="102" y="279"/>
      <point x="101" y="263"/>
      <point x="101" y="247" type="curve" smooth="yes"/>
      <point x="101" y="226"/>
      <point x="102" y="207"/>
      <point x="104" y="188" type="curve"/>
      <point x="40" y="188" type="line"/>
      <point x="38" y="171" type="line"/>
      <point x="41" y="168" type="line"/>
      <point x="107" y="168" type="line"/>
      <point x="128" y="56"/>
      <point x="196" y="-5"/>
      <point x="303" y="-5" type="curve" smooth="yes"/>
      <point x="353" y="-5"/>
      <point x="407" y="13"/>
      <point x="451" y="46" type="curve"/>
      <point x="453" y="65" type="line"/>
      <point x="447" y="67" type="line"/>
      <point x="406" y="34"/>
      <point x="353" y="15"/>
    </contour>
    <contour>
      <point x="506" y="158" type="curve"/>
      <point x="188" y="406" type="line"/>
      <point x="183" y="399" type="line"/>
      <point x="501" y="151" type="line"/>
      <point x="502" y="150"/>
      <point x="503" y="150"/>
      <point x="504" y="150" type="curve" smooth="yes"/>
      <point x="505" y="150"/>
      <point x="506" y="151"/>
      <point x="507" y="152" type="curve" smooth="yes"/>
      <point x="508" y="154"/>
      <point x="508" y="156"/>
    </contour>
    <contour>
      <point x="132" y="450" type="line"/>
      <point x="3" y="550" type="line"/>
      <point x="1" y="552"/>
      <point x="-1" y="552"/>
      <point x="-3" y="550" type="curve" smooth="yes"/>
      <point x="-4" y="548"/>
      <point x="-4" y="545"/>
      <point x="-2" y="544" type="curve"/>
      <point x="126" y="443" type="line"/>
    </contour>
  </outline>
</glyph>
<glyph name="I.ss01" format="1">
  <advance width="240"/>
  <outline>
    <contour>
      <point x="130" y="0" type="line"/>
      <point x="130" y="637" type="line"/>
      <point x="110" y="637" type="line"/>
      <point x="110" y="0" type="line"/>
    </contour>
  </outline>
</glyph>
<glyph name="L.ss01" format="1">
  <advance width="398"/>
  <outline>
    <contour>
      <point x="393" y="16" type="line"/>
      <point x="390" y="20" type="line"/>
      <point x="129" y="20" type="line"/>
      <point x="129" y="637" type="line"/>
      <point x="109" y="637" type="line"/>
      <point x="109" y="0" type="line"/>
      <point x="389" y="0" type="line"/>
    </contour>
  </outline>
</glyph>
<glyph name="X.ss01" format="1">
  <advance width="566"/>
  <outline>
    <contour>
      <point x="289" y="330" type="line"/>
      <point x="501" y="637" type="line"/>
      <point x="474" y="637" type="line"/>
      <point x="450" y="597" type="line"/>
      <point x="276" y="346" type="line"/>
      <point x="98" y="602" type="line"/>
      <point x="76" y="637" type="line"/>
      <point x="48" y="637" type="line"/>
      <point x="263" y="330" type="line"/>
      <point x="34" y="0" type="line"/>
      <point x="61" y="0" type="line"/>
      <point x="83" y="36" type="line"/>
      <point x="276" y="314" type="line"/>
      <point x="469" y="38" type="line"/>
      <point x="493" y="0" type="line"/>
      <point x="520" y="0" type="line"/>
    </contour>
  </outline>
</glyph>
<glyph name="a.0" format="1">
  <advance width="494"/>
  <outline>
    <contour>
      <point x="494" y="-38" type="curve"/>
      <point x="0" y="-38" type="line"/>
      <point x="-2" y="-38"/>
      <point x="-4" y="-40"/>
      <point x="-4" y="-42" type="curve" smooth="yes"/>
      <point x="-4" y="-44"/>
      <point x="-2" y="-46"/>
      <point x="0" y="-46" type="curve"/>
      <point x="494" y="-46" type="line"/>
      <point x="497" y="-46"/>
      <point x="498" y="-44"/>
      <point x="498" y="-42" type="curve" smooth="yes"/>
      <point x="498" y="-40"/>
      <point x="497" y="-38"/>
    </contour>
    <contour>
      <point x="69" y="36" type="line"/>
      <point x="113" y="142" type="line"/>
      <point x="379" y="142" type="line"/>
      <point x="419" y="36" type="line"/>
      <point x="429" y="0" type="line"/>
      <point x="452" y="0" type="line"/>
      <point x="397" y="149" type="line"/>
      <point x="262" y="506" type="line"/>
      <point x="241" y="506" type="line"/>
      <point x="34" y="0" type="line"/>
      <point x="57" y="0" type="line"/>
    </contour>
    <contour>
      <point x="249" y="475" type="line"/>
      <point x="252" y="475" type="line"/>
      <point x="372" y="161" type="line"/>
      <point x="121" y="161" type="line"/>
    </contour>
  </outline>
</glyph>
<glyph name="a.1.0" format="1">
  <advance width="494"/>
  <outline>
    <contour>
      <point x="64" y="134" type="line"/>
      <point x="2" y="158" type="line"/>
      <point x="0" y="159"/>
      <point x="-3" y="158"/>
      <point x="-3" y="156" type="curve" smooth="yes"/>
      <point x="-4" y="154"/>
      <point x="-3" y="152"/>
      <point x="-1" y="151" type="curve"/>
      <point x="61" y="126" type="line"/>
    </contour>
    <contour>
      <point x="496" y="-38" type="curve"/>
      <point x="128" y="108" type="line"/>
      <point x="125" y="101" type="line"/>
      <point x="493" y="-46" type="line"/>
      <point x="493" y="-46"/>
      <point x="494" y="-46"/>
      <point x="494" y="-46" type="curve" smooth="yes"/>
      <point x="496" y="-46"/>
      <point x="498" y="-45"/>
      <point x="498" y="-43" type="curve" smooth="yes"/>
      <point x="499" y="-41"/>
      <point x="498" y="-39"/>
    </contour>
    <contour>
      <point x="69" y="36" type="line"/>
      <point x="113" y="142" type="line"/>
      <point x="379" y="142" type="line"/>
      <point x="419" y="36" type="line"/>
      <point x="429" y="0" type="line"/>
      <point x="452" y="0" type="line"/>
      <point x="397" y="149" type="line"/>
      <point x="262" y="506" type="line"/>
      <point x="241" y="506" type="line"/>
      <point x="34" y="0" type="line"/>
      <point x="57" y="0" type="line"/>
    </contour>
    <contour>
      <point x="249" y="475" type="line"/>
      <point x="252" y="475" type="line"/>
      <point x="372" y="161" type="line"/>
      <point x="121" y="161" type="line"/>
    </contour>
  </outline>
</glyph>
<glyph name="a.2.1" format="1">
  <advance width="494"/>
  <outline>
    <contour>
      <point x="241" y="506" type="line"/>
      <point x="155" y="294" type="line"/>
      <point x="2" y="354" type="line"/>
      <point x="0" y="355"/>
      <point x="-3" y="354"/>
      <point x="-3" y="352" type="curve" smooth="yes"/>
      <point x="-4" y="350"/>
      <point x="-3" y="347"/>
      <point x="-1" y="347" type="curve"/>
      <point x="324" y="218" type="line"/>
      <point x="319" y="228" type="line"/>
      <point x="172" y="287" type="line"/>
      <point x="249" y="475" type="line"/>
      <point x="252" y="475" type="line"/>
      <point x="372" y="161" type="line"/>
      <point x="121" y="161" type="line"/>
      <point x="157" y="250" type="line"/>
      <point x="140" y="257" type="line"/>
      <point x="34" y="0" type="line"/>
      <point x="57" y="0" type="line"/>
      <point x="69" y="36" type="line"/>
      <point x="113" y="141" type="line"/>
      <point x="379" y="141" type="line"/>
      <point x="419" y="36" type="line"/>
      <point x="429" y="0" type="line"/>
      <point x="452" y="0" type="line"/>
      <point x="262" y="506" type="line"/>
    </contour>
    <contour>
      <point x="496" y="158" type="curve"/>
      <point x="406" y="194" type="line"/>
      <point x="410" y="183" type="line"/>
      <point x="493" y="150" type="line"/>
      <point x="493" y="150"/>
      <point x="494" y="150"/>
      <point x="494" y="150" type="curve" smooth="yes"/>
      <point x="496" y="150"/>
      <point x="498" y="151"/>
      <point x="498" y="153" type="curve" smooth="yes"/>
      <point x="499" y="155"/>
      <point x="498" y="157"/>
    </contour>
  </outline>
</glyph>
<glyph name="a.2.2" format="1">
  <advance width="494"/>
  <outline>
    <contour>
      <point x="241" y="506" type="line"/>
      <point x="180" y="354" type="line"/>
      <point x="0" y="354" type="line"/>
      <point x="-2" y="354"/>
      <point x="-4" y="353"/>
      <point x="-4" y="350" type="curve" smooth="yes"/>
      <point x="-4" y="348"/>
      <point x="-2" y="346"/>
      <point x="0" y="346" type="curve"/>
      <point x="274" y="346" type="line"/>
      <point x="271" y="354" type="line"/>
      <point x="200" y="354" type="line"/>
      <point x="249" y="475" type="line"/>
      <point x="252" y="475" type="line"/>
      <point x="372" y="161" type="line"/>
      <point x="121" y="161" type="line"/>
      <point x="184" y="315" type="line"/>
      <point x="164" y="315" type="line"/>
      <point x="34" y="0" type="line"/>
      <point x="57" y="0" type="line"/>
      <point x="69" y="36" type="line"/>
      <point x="113" y="141" type="line"/>
      <point x="379" y="141" type="line"/>
      <point x="419" y="36" type="line"/>
      <point x="429" y="0" type="line"/>
      <point x="452" y="0" type="line"/>
      <point x="262" y="506" type="line"/>
    </contour>
    <contour>
      <point x="494" y="354" type="curve"/>
      <point x="346" y="354" type="line"/>
      <point x="349" y="346" type="line"/>
      <point x="494" y="346" type="line"/>
      <point x="497" y="346"/>
      <point x="498" y="348"/>
      <point x="498" y="350" type="curve" smooth="yes"/>
      <point x="498" y="353"/>
      <point x="497" y="354"/>
    </contour>
  </outline>
</glyph>
<glyph name="a.2.3" format="1">
  <advance width="494"/>
  <outline>
    <contour>
      <point x="498" y="548" type="curve" smooth="yes"/>
      <point x="497" y="551"/>
      <point x="495" y="552"/>
      <point x="493" y="551" type="curve"/>
      <point x="301" y="474" type="line"/>
      <point x="304" y="467" type="line"/>
      <point x="496" y="543" type="line"/>
      <point x="498" y="544"/>
      <point x="499" y="546"/>
    </contour>
    <contour>
      <point x="182" y="427" type="line"/>
      <point x="-1" y="354" type="line"/>
      <point x="-3" y="354"/>
      <point x="-4" y="351"/>
      <point x="-3" y="349" type="curve" smooth="yes"/>
      <point x="-3" y="347"/>
      <point x="-1" y="346"/>
      <point x="0" y="346" type="curve" smooth="yes"/>
      <point x="1" y="346"/>
      <point x="1" y="346"/>
      <point x="2" y="347" type="curve"/>
      <point x="178" y="417" type="line"/>
    </contour>
    <contour>
      <point x="241" y="506" type="line"/>
      <point x="34" y="0" type="line"/>
      <point x="57" y="0" type="line"/>
      <point x="69" y="36" type="line"/>
      <point x="113" y="141" type="line"/>
      <point x="379" y="141" type="line"/>
      <point x="419" y="36" type="line"/>
      <point x="429" y="0" type="line"/>
      <point x="452" y="0" type="line"/>
      <point x="262" y="506" type="line"/>
    </contour>
    <contour>
      <point x="121" y="161" type="line"/>
      <point x="249" y="475" type="line"/>
      <point x="252" y="475" type="line"/>
      <point x="372" y="161" type="line"/>
    </contour>
  </outline>
</glyph>
<glyph name="a.3.0.kern" format="1">
  <advance width="449"/>
  <outline>
    <contour>
      <point x="452" y="-40" type="curve"/>
      <point x="314" y="141" type="line"/>
      <point x="388" y="141" type="line"/>
      <point x="430" y="39" type="line"/>
      <point x="442" y="0" type="line"/>
      <point x="465" y="0" type="line"/>
      <point x="259" y="506" type="line"/>
      <point x="237" y="506" type="line"/>
      <point x="27" y="0" type="line"/>
      <point x="50" y="0" type="line"/>
      <point x="62" y="36" type="line"/>
      <point x="106" y="141" type="line"/>
      <point x="266" y="141" type="line"/>
      <point x="251" y="161" type="line"/>
      <point x="115" y="161" type="line"/>
      <point x="245" y="475" type="line"/>
      <point x="248" y="475" type="line"/>
      <point x="380" y="161" type="line"/>
      <point x="299" y="161" type="line"/>
      <point x="200" y="291" type="line"/>
      <point x="196" y="282" type="line"/>
      <point x="445" y="-45" type="line" smooth="yes"/>
      <point x="446" y="-46"/>
      <point x="447" y="-47"/>
      <point x="449" y="-47" type="curve" smooth="yes"/>
      <point x="450" y="-47"/>
      <point x="451" y="-46"/>
      <point x="451" y="-46" type="curve"/>
      <point x="453" y="-44"/>
      <point x="454" y="-42"/>
    </contour>
    <contour>
      <point x="151" y="355" type="line"/>
      <point x="3" y="549" type="line" smooth="yes"/>
      <point x="2" y="551"/>
      <point x="-1" y="552"/>
      <point x="-3" y="550" type="curve" smooth="yes"/>
      <point x="-5" y="549"/>
      <point x="-5" y="546"/>
      <point x="-4" y="544" type="curve" smooth="yes"/>
      <point x="148" y="346" type="line"/>
    </contour>
    <contour>
      <point x="181" y="-36" type="curve" smooth="yes"/>
      <point x="177" y="-36"/>
      <point x="175" y="-38"/>
      <point x="175" y="-42" type="curve" smooth="yes"/>
      <point x="175" y="-45"/>
      <point x="177" y="-48"/>
      <point x="181" y="-48" type="curve" smooth="yes"/>
      <point x="184" y="-48"/>
      <point x="187" y="-45"/>
      <point x="187" y="-42" type="curve" smooth="yes"/>
      <point x="187" y="-38"/>
      <point x="184" y="-36"/>
    </contour>
    <contour>
      <point x="181" y="14" type="curve" smooth="yes"/>
      <point x="177" y="14"/>
      <point x="175" y="11"/>
      <point x="175" y="7" type="curve" smooth="yes"/>
      <point x="175" y="4"/>
      <point x="177" y="1"/>
      <point x="181" y="1" type="curve" smooth="yes"/>
      <point x="184" y="1"/>
      <point x="187" y="4"/>
      <point x="187" y="7" type="curve" smooth="yes"/>
      <point x="187" y="11"/>
      <point x="184" y="14"/>
    </contour>
    <contour>
      <point x="181" y="63" type="curve" smooth="yes"/>
      <point x="177" y="63"/>
      <point x="175" y="60"/>
      <point x="175" y="56" type="curve" smooth="yes"/>
      <point x="175" y="53"/>
      <point x="177" y="50"/>
      <point x="181" y="50" type="curve" smooth="yes"/>
      <point x="184" y="50"/>
      <point x="187" y="53"/>
      <point x="187" y="56" type="curve" smooth="yes"/>
      <point x="187" y="60"/>
      <point x="184" y="63"/>
    </contour>
    <contour>
      <point x="181" y="112" type="curve" smooth="yes"/>
      <point x="177" y="112"/>
      <point x="175" y="109"/>
      <point x="175" y="106" type="curve" smooth="yes"/>
      <point x="175" y="102"/>
      <point x="177" y="99"/>
      <point x="181" y="99" type="curve" smooth="yes"/>
      <point x="184" y="99"/>
      <point x="187" y="102"/>
      <point x="187" y="106" type="curve" smooth="yes"/>
      <point x="187" y="109"/>
      <point x="184" y="112"/>
    </contour>
    <contour>
      <point x="181" y="161" type="curve" smooth="yes"/>
      <point x="177" y="161"/>
      <point x="175" y="158"/>
      <point x="175" y="155" type="curve" smooth="yes"/>
      <point x="175" y="151"/>
      <point x="177" y="149"/>
      <point x="181" y="149" type="curve" smooth="yes"/>
      <point x="184" y="149"/>
      <point x="187" y="151"/>
      <point x="187" y="155" type="curve" smooth="yes"/>
      <point x="187" y="158"/>
      <point x="184" y="161"/>
    </contour>
    <contour>
      <point x="181" y="210" type="curve" smooth="yes"/>
      <point x="177" y="210"/>
      <point x="175" y="207"/>
      <point x="175" y="204" type="curve" smooth="yes"/>
      <point x="175" y="200"/>
      <point x="177" y="198"/>
      <point x="181" y="198" type="curve" smooth="yes"/>
      <point x="184" y="198"/>
      <point x="187" y="200"/>
      <point x="187" y="204" type="curve" smooth="yes"/>
      <point x="187" y="207"/>
      <point x="184" y="210"/>
    </contour>
    <contour>
      <point x="181" y="259" type="curve" smooth="yes"/>
      <point x="177" y="259"/>
      <point x="175" y="256"/>
      <point x="175" y="253" type="curve" smooth="yes"/>
      <point x="175" y="249"/>
      <point x="177" y="247"/>
      <point x="181" y="247" type="curve" smooth="yes"/>
      <point x="184" y="247"/>
      <point x="187" y="249"/>
      <point x="187" y="253" type="curve" smooth="yes"/>
      <point x="187" y="256"/>
      <point x="184" y="259"/>
    </contour>
    <contour>
      <point x="181" y="308" type="curve" smooth="yes"/>
      <point x="177" y="308"/>
      <point x="175" y="305"/>
      <point x="175" y="302" type="curve" smooth="yes"/>
      <point x="175" y="299"/>
      <point x="177" y="296"/>
      <point x="181" y="296" type="curve" smooth="yes"/>
      <point x="184" y="296"/>
      <point x="187" y="299"/>
      <point x="187" y="302" type="curve" smooth="yes"/>
      <point x="187" y="305"/>
      <point x="184" y="308"/>
    </contour>
    <contour>
      <point x="181" y="357" type="curve" smooth="yes"/>
      <point x="177" y="357"/>
      <point x="175" y="354"/>
      <point x="175" y="351" type="curve" smooth="yes"/>
      <point x="175" y="348"/>
      <point x="177" y="345"/>
      <point x="181" y="345" type="curve" smooth="yes"/>
      <point x="184" y="345"/>
      <point x="187" y="348"/>
      <point x="187" y="351" type="curve" smooth="yes"/>
      <point x="187" y="354"/>
      <point x="184" y="357"/>
    </contour>
    <contour>
      <point x="181" y="406" type="curve" smooth="yes"/>
      <point x="177" y="406"/>
      <point x="175" y="404"/>
      <point x="175" y="400" type="curve" smooth="yes"/>
      <point x="175" y="397"/>
      <point x="177" y="394"/>
      <point x="181" y="394" type="curve" smooth="yes"/>
      <point x="184" y="394"/>
      <point x="187" y="397"/>
      <point x="187" y="400" type="curve" smooth="yes"/>
      <point x="187" y="404"/>
      <point x="184" y="406"/>
    </contour>
    <contour>
      <point x="181" y="455" type="curve" smooth="yes"/>
      <point x="177" y="455"/>
      <point x="175" y="453"/>
      <point x="175" y="449" type="curve" smooth="yes"/>
      <point x="175" y="446"/>
      <point x="177" y="443"/>
      <point x="181" y="443" type="curve" smooth="yes"/>
      <point x="184" y="443"/>
      <point x="187" y="446"/>
      <point x="187" y="449" type="curve" smooth="yes"/>
      <point x="187" y="453"/>
      <point x="184" y="455"/>
    </contour>
    <contour>
      <point x="181" y="504" type="curve" smooth="yes"/>
      <point x="177" y="504"/>
      <point x="175" y="502"/>
      <point x="175" y="498" type="curve" smooth="yes"/>
      <point x="175" y="495"/>
      <point x="177" y="492"/>
      <point x="181" y="492" type="curve" smooth="yes"/>
      <point x="184" y="492"/>
      <point x="187" y="495"/>
      <point x="187" y="498" type="curve" smooth="yes"/>
      <point x="187" y="502"/>
      <point x="184" y="504"/>
    </contour>
    <contour>
      <point x="181" y="554" type="curve" smooth="yes"/>
      <point x="177" y="554"/>
      <point x="175" y="551"/>
      <point x="175" y="547" type="curve" smooth="yes"/>
      <point x="175" y="544"/>
      <point x="177" y="541"/>
      <point x="181" y="541" type="curve" smooth="yes"/>
      <point x="184" y="541"/>
      <point x="187" y="544"/>
      <point x="187" y="547" type="curve" smooth="yes"/>
      <point x="187" y="551"/>
      <point x="184" y="554"/>
    </contour>
    <contour>
      <point x="136" y="-36" type="curve" smooth="yes"/>
      <point x="132" y="-36"/>
      <point x="130" y="-38"/>
      <point x="130" y="-42" type="curve" smooth="yes"/>
      <point x="130" y="-45"/>
      <point x="132" y="-48"/>
      <point x="136" y="-48" type="curve" smooth="yes"/>
      <point x="139" y="-48"/>
      <point x="142" y="-45"/>
      <point x="142" y="-42" type="curve" smooth="yes"/>
      <point x="142" y="-38"/>
      <point x="139" y="-36"/>
    </contour>
    <contour>
      <point x="136" y="14" type="curve" smooth="yes"/>
      <point x="132" y="14"/>
      <point x="130" y="11"/>
      <point x="130" y="7" type="curve" smooth="yes"/>
      <point x="130" y="4"/>
      <point x="132" y="1"/>
      <point x="136" y="1" type="curve" smooth="yes"/>
      <point x="139" y="1"/>
      <point x="142" y="4"/>
      <point x="142" y="7" type="curve" smooth="yes"/>
      <point x="142" y="11"/>
      <point x="139" y="14"/>
    </contour>
    <contour>
      <point x="136" y="63" type="curve" smooth="yes"/>
      <point x="132" y="63"/>
      <point x="130" y="60"/>
      <point x="130" y="56" type="curve" smooth="yes"/>
      <point x="130" y="53"/>
      <point x="132" y="50"/>
      <point x="136" y="50" type="curve" smooth="yes"/>
      <point x="139" y="50"/>
      <point x="142" y="53"/>
      <point x="142" y="56" type="curve" smooth="yes"/>
      <point x="142" y="60"/>
      <point x="139" y="63"/>
    </contour>
    <contour>
      <point x="136" y="112" type="curve" smooth="yes"/>
      <point x="132" y="112"/>
      <point x="130" y="109"/>
      <point x="130" y="106" type="curve" smooth="yes"/>
      <point x="130" y="102"/>
      <point x="132" y="99"/>
      <point x="136" y="99" type="curve" smooth="yes"/>
      <point x="139" y="99"/>
      <point x="142" y="102"/>
      <point x="142" y="106" type="curve" smooth="yes"/>
      <point x="142" y="109"/>
      <point x="139" y="112"/>
    </contour>
    <contour>
      <point x="136" y="161" type="curve" smooth="yes"/>
      <point x="132" y="161"/>
      <point x="130" y="158"/>
      <point x="130" y="155" type="curve" smooth="yes"/>
      <point x="130" y="151"/>
      <point x="132" y="149"/>
      <point x="136" y="149" type="curve" smooth="yes"/>
      <point x="139" y="149"/>
      <point x="142" y="151"/>
      <point x="142" y="155" type="curve" smooth="yes"/>
      <point x="142" y="158"/>
      <point x="139" y="161"/>
    </contour>
    <contour>
      <point x="136" y="210" type="curve" smooth="yes"/>
      <point x="132" y="210"/>
      <point x="130" y="207"/>
      <point x="130" y="204" type="curve" smooth="yes"/>
      <point x="130" y="200"/>
      <point x="132" y="198"/>
      <point x="136" y="198" type="curve" smooth="yes"/>
      <point x="139" y="198"/>
      <point x="142" y="200"/>
      <point x="142" y="204" type="curve" smooth="yes"/>
      <point x="142" y="207"/>
      <point x="139" y="210"/>
    </contour>
    <contour>
      <point x="136" y="259" type="curve" smooth="yes"/>
      <point x="132" y="259"/>
      <point x="130" y="256"/>
      <point x="130" y="253" type="curve" smooth="yes"/>
      <point x="130" y="249"/>
      <point x="132" y="247"/>
      <point x="136" y="247" type="curve" smooth="yes"/>
      <point x="139" y="247"/>
      <point x="142" y="249"/>
      <point x="142" y="253" type="curve" smooth="yes"/>
      <point x="142" y="256"/>
      <point x="139" y="259"/>
    </contour>
    <contour>
      <point x="136" y="308" type="curve" smooth="yes"/>
      <point x="132" y="308"/>
      <point x="130" y="305"/>
      <point x="130" y="302" type="curve" smooth="yes"/>
      <point x="130" y="299"/>
      <point x="132" y="296"/>
      <point x="136" y="296" type="curve" smooth="yes"/>
      <point x="139" y="296"/>
      <point x="142" y="299"/>
      <point x="142" y="302" type="curve" smooth="yes"/>
      <point x="142" y="305"/>
      <point x="139" y="308"/>
    </contour>
    <contour>
      <point x="136" y="357" type="curve" smooth="yes"/>
      <point x="132" y="357"/>
      <point x="130" y="354"/>
      <point x="130" y="351" type="curve" smooth="yes"/>
      <point x="130" y="348"/>
      <point x="132" y="345"/>
      <point x="136" y="345" type="curve" smooth="yes"/>
      <point x="139" y="345"/>
      <point x="142" y="348"/>
      <point x="142" y="351" type="curve" smooth="yes"/>
      <point x="142" y="354"/>
      <point x="139" y="357"/>
    </contour>
    <contour>
      <point x="136" y="406" type="curve" smooth="yes"/>
      <point x="132" y="406"/>
      <point x="130" y="404"/>
      <point x="130" y="400" type="curve" smooth="yes"/>
      <point x="130" y="397"/>
      <point x="132" y="394"/>
      <point x="136" y="394" type="curve" smooth="yes"/>
      <point x="139" y="394"/>
      <point x="142" y="397"/>
      <point x="142" y="400" type="curve" smooth="yes"/>
      <point x="142" y="404"/>
      <point x="139" y="406"/>
    </contour>
    <contour>
      <point x="136" y="455" type="curve" smooth="yes"/>
      <point x="132" y="455"/>
      <point x="130" y="453"/>
      <point x="130" y="449" type="curve" smooth="yes"/>
      <point x="130" y="446"/>
      <point x="132" y="443"/>
      <point x="136" y="443" type="curve" smooth="yes"/>
      <point x="139" y="443"/>
      <point x="142" y="446"/>
      <point x="142" y="449" type="curve" smooth="yes"/>
      <point x="142" y="453"/>
      <point x="139" y="455"/>
    </contour>
    <contour>
      <point x="136" y="504" type="curve" smooth="yes"/>
      <point x="132" y="504"/>
      <point x="130" y="502"/>
      <point x="130" y="498" type="curve" smooth="yes"/>
      <point x="130" y="495"/>
      <point x="132" y="492"/>
      <point x="136" y="492" type="curve" smooth="yes"/>
      <point x="139" y="492"/>
      <point x="142" y="495"/>
      <point x="142" y="498" type="curve" smooth="yes"/>
      <point x="142" y="502"/>
      <point x="139" y="504"/>
    </contour>
    <contour>
      <point x="136" y="554" type="curve" smooth="yes"/>
      <point x="132" y="554"/>
      <point x="130" y="551"/>
      <point x="130" y="547" type="curve" smooth="yes"/>
      <point x="130" y="544"/>
      <point x="132" y="541"/>
      <point x="136" y="541" type="curve" smooth="yes"/>
      <point x="139" y="541"/>
      <point x="142" y="544"/>
      <point x="142" y="547" type="curve" smooth="yes"/>
      <point x="142" y="551"/>
      <point x="139" y="554"/>
    </contour>
    <contour>
      <point x="91" y="-36" type="curve" smooth="yes"/>
      <point x="87" y="-36"/>
      <point x="85" y="-38"/>
      <point x="85" y="-42" type="curve" smooth="yes"/>
      <point x="85" y="-45"/>
      <point x="87" y="-48"/>
      <point x="91" y="-48" type="curve" smooth="yes"/>
      <point x="94" y="-48"/>
      <point x="97" y="-45"/>
      <point x="97" y="-42" type="curve" smooth="yes"/>
      <point x="97" y="-38"/>
      <point x="94" y="-36"/>
    </contour>
    <contour>
      <point x="91" y="14" type="curve" smooth="yes"/>
      <point x="87" y="14"/>
      <point x="85" y="11"/>
      <point x="85" y="7" type="curve" smooth="yes"/>
      <point x="85" y="4"/>
      <point x="87" y="1"/>
      <point x="91" y="1" type="curve" smooth="yes"/>
      <point x="94" y="1"/>
      <point x="97" y="4"/>
      <point x="97" y="7" type="curve" smooth="yes"/>
      <point x="97" y="11"/>
      <point x="94" y="14"/>
    </contour>
    <contour>
      <point x="91" y="63" type="curve" smooth="yes"/>
      <point x="87" y="63"/>
      <point x="85" y="60"/>
      <point x="85" y="56" type="curve" smooth="yes"/>
      <point x="85" y="53"/>
      <point x="87" y="50"/>
      <point x="91" y="50" type="curve" smooth="yes"/>
      <point x="94" y="50"/>
      <point x="97" y="53"/>
      <point x="97" y="56" type="curve" smooth="yes"/>
      <point x="97" y="60"/>
      <point x="94" y="63"/>
    </contour>
    <contour>
      <point x="91" y="112" type="curve" smooth="yes"/>
      <point x="87" y="112"/>
      <point x="85" y="109"/>
      <point x="85" y="106" type="curve" smooth="yes"/>
      <point x="85" y="102"/>
      <point x="87" y="99"/>
      <point x="91" y="99" type="curve" smooth="yes"/>
      <point x="94" y="99"/>
      <point x="97" y="102"/>
      <point x="97" y="106" type="curve" smooth="yes"/>
      <point x="97" y="109"/>
      <point x="94" y="112"/>
    </contour>
    <contour>
      <point x="91" y="161" type="curve" smooth="yes"/>
      <point x="87" y="161"/>
      <point x="85" y="158"/>
      <point x="85" y="155" type="curve" smooth="yes"/>
      <point x="85" y="151"/>
      <point x="87" y="149"/>
      <point x="91" y="149" type="curve" smooth="yes"/>
      <point x="94" y="149"/>
      <point x="97" y="151"/>
      <point x="97" y="155" type="curve" smooth="yes"/>
      <point x="97" y="158"/>
      <point x="94" y="161"/>
    </contour>
    <contour>
      <point x="91" y="210" type="curve" smooth="yes"/>
      <point x="87" y="210"/>
      <point x="85" y="207"/>
      <point x="85" y="204" type="curve" smooth="yes"/>
      <point x="85" y="200"/>
      <point x="87" y="198"/>
      <point x="91" y="198" type="curve" smooth="yes"/>
      <point x="94" y="198"/>
      <point x="97" y="200"/>
      <point x="97" y="204" type="curve" smooth="yes"/>
      <point x="97" y="207"/>
      <point x="94" y="210"/>
    </contour>
    <contour>
      <point x="91" y="259" type="curve" smooth="yes"/>
      <point x="87" y="259"/>
      <point x="85" y="256"/>
      <point x="85" y="253" type="curve" smooth="yes"/>
      <point x="85" y="249"/>
      <point x="87" y="247"/>
      <point x="91" y="247" type="curve" smooth="yes"/>
      <point x="94" y="247"/>
      <point x="97" y="249"/>
      <point x="97" y="253" type="curve" smooth="yes"/>
      <point x="97" y="256"/>
      <point x="94" y="259"/>
    </contour>
    <contour>
      <point x="91" y="308" type="curve" smooth="yes"/>
      <point x="87" y="308"/>
      <point x="85" y="305"/>
      <point x="85" y="302" type="curve" smooth="yes"/>
      <point x="85" y="299"/>
      <point x="87" y="296"/>
      <point x="91" y="296" type="curve" smooth="yes"/>
      <point x="94" y="296"/>
      <point x="97" y="299"/>
      <point x="97" y="302" type="curve" smooth="yes"/>
      <point x="97" y="305"/>
      <point x="94" y="308"/>
    </contour>
    <contour>
      <point x="91" y="357" type="curve" smooth="yes"/>
      <point x="87" y="357"/>
      <point x="85" y="354"/>
      <point x="85" y="351" type="curve" smooth="yes"/>
      <point x="85" y="348"/>
      <point x="87" y="345"/>
      <point x="91" y="345" type="curve" smooth="yes"/>
      <point x="94" y="345"/>
      <point x="97" y="348"/>
      <point x="97" y="351" type="curve" smooth="yes"/>
      <point x="97" y="354"/>
      <point x="94" y="357"/>
    </contour>
    <contour>
      <point x="91" y="406" type="curve" smooth="yes"/>
      <point x="87" y="406"/>
      <point x="85" y="404"/>
      <point x="85" y="400" type="curve" smooth="yes"/>
      <point x="85" y="397"/>
      <point x="87" y="394"/>
      <point x="91" y="394" type="curve" smooth="yes"/>
      <point x="94" y="394"/>
      <point x="97" y="397"/>
      <point x="97" y="400" type="curve" smooth="yes"/>
      <point x="97" y="404"/>
      <point x="94" y="406"/>
    </contour>
    <contour>
      <point x="91" y="455" type="curve" smooth="yes"/>
      <point x="87" y="455"/>
      <point x="85" y="453"/>
      <point x="85" y="449" type="curve" smooth="yes"/>
      <point x="85" y="446"/>
      <point x="87" y="443"/>
      <point x="91" y="443" type="curve" smooth="yes"/>
      <point x="94" y="443"/>
      <point x="97" y="446"/>
      <point x="97" y="449" type="curve" smooth="yes"/>
      <point x="97" y="453"/>
      <point x="94" y="455"/>
    </contour>
    <contour>
      <point x="91" y="504" type="curve" smooth="yes"/>
      <point x="87" y="504"/>
      <point x="85" y="502"/>
      <point x="85" y="498" type="curve" smooth="yes"/>
      <point x="85" y="495"/>
      <point x="87" y="492"/>
      <point x="91" y="492" type="curve" smooth="yes"/>
      <point x="94" y="492"/>
      <point x="97" y="495"/>
      <point x="97" y="498" type="curve" smooth="yes"/>
      <point x="97" y="502"/>
      <point x="94" y="504"/>
    </contour>
    <contour>
      <point x="91" y="554" type="curve" smooth="yes"/>
      <point x="87" y="554"/>
      <point x="85" y="551"/>
      <point x="85" y="547" type="curve" smooth="yes"/>
      <point x="85" y="544"/>
      <point x="87" y="541"/>
      <point x="91" y="541" type="curve" smooth="yes"/>
      <point x="94" y="541"/>
      <point x="97" y="544"/>
      <point x="97" y="547" type="curve" smooth="yes"/>
      <point x="97" y="551"/>
      <point x="94" y="554"/>
    </contour>
    <contour>
      <point x="46" y="-36" type="curve" smooth="yes"/>
      <point x="42" y="-36"/>
      <point x="40" y="-38"/>
      <point x="40" y="-42" type="curve" smooth="yes"/>
      <point x="40" y="-45"/>
      <point x="42" y="-48"/>
      <point x="46" y="-48" type="curve" smooth="yes"/>
      <point x="49" y="-48"/>
      <point x="52" y="-45"/>
      <point x="52" y="-42" type="curve" smooth="yes"/>
      <point x="52" y="-38"/>
      <point x="49" y="-36"/>
    </contour>
    <contour>
      <point x="46" y="14" type="curve" smooth="yes"/>
      <point x="42" y="14"/>
      <point x="40" y="11"/>
      <point x="40" y="7" type="curve" smooth="yes"/>
      <point x="40" y="4"/>
      <point x="42" y="1"/>
      <point x="46" y="1" type="curve" smooth="yes"/>
      <point x="49" y="1"/>
      <point x="52" y="4"/>
      <point x="52" y="7" type="curve" smooth="yes"/>
      <point x="52" y="11"/>
      <point x="49" y="14"/>
    </contour>
    <contour>
      <point x="46" y="63" type="curve" smooth="yes"/>
      <point x="42" y="63"/>
      <point x="40" y="60"/>
      <point x="40" y="56" type="curve" smooth="yes"/>
      <point x="40" y="53"/>
      <point x="42" y="50"/>
      <point x="46" y="50" type="curve" smooth="yes"/>
      <point x="49" y="50"/>
      <point x="52" y="53"/>
      <point x="52" y="56" type="curve" smooth="yes"/>
      <point x="52" y="60"/>
      <point x="49" y="63"/>
    </contour>
    <contour>
      <point x="46" y="112" type="curve" smooth="yes"/>
      <point x="42" y="112"/>
      <point x="40" y="109"/>
      <point x="40" y="106" type="curve" smooth="yes"/>
      <point x="40" y="102"/>
      <point x="42" y="99"/>
      <point x="46" y="99" type="curve" smooth="yes"/>
      <point x="49" y="99"/>
      <point x="52" y="102"/>
      <point x="52" y="106" type="curve" smooth="yes"/>
      <point x="52" y="109"/>
      <point x="49" y="112"/>
    </contour>
    <contour>
      <point x="46" y="161" type="curve" smooth="yes"/>
      <point x="42" y="161"/>
      <point x="40" y="158"/>
      <point x="40" y="155" type="curve" smooth="yes"/>
      <point x="40" y="151"/>
      <point x="42" y="149"/>
      <point x="46" y="149" type="curve" smooth="yes"/>
      <point x="49" y="149"/>
      <point x="52" y="151"/>
      <point x="52" y="155" type="curve" smooth="yes"/>
      <point x="52" y="158"/>
      <point x="49" y="161"/>
    </contour>
    <contour>
      <point x="46" y="210" type="curve" smooth="yes"/>
      <point x="42" y="210"/>
      <point x="40" y="207"/>
      <point x="40" y="204" type="curve" smooth="yes"/>
      <point x="40" y="200"/>
      <point x="42" y="198"/>
      <point x="46" y="198" type="curve" smooth="yes"/>
      <point x="49" y="198"/>
      <point x="52" y="200"/>
      <point x="52" y="204" type="curve" smooth="yes"/>
      <point x="52" y="207"/>
      <point x="49" y="210"/>
    </contour>
    <contour>
      <point x="46" y="259" type="curve" smooth="yes"/>
      <point x="42" y="259"/>
      <point x="40" y="256"/>
      <point x="40" y="253" type="curve" smooth="yes"/>
      <point x="40" y="249"/>
      <point x="42" y="247"/>
      <point x="46" y="247" type="curve" smooth="yes"/>
      <point x="49" y="247"/>
      <point x="52" y="249"/>
      <point x="52" y="253" type="curve" smooth="yes"/>
      <point x="52" y="256"/>
      <point x="49" y="259"/>
    </contour>
    <contour>
      <point x="46" y="308" type="curve" smooth="yes"/>
      <point x="42" y="308"/>
      <point x="40" y="305"/>
      <point x="40" y="302" type="curve" smooth="yes"/>
      <point x="40" y="299"/>
      <point x="42" y="296"/>
      <point x="46" y="296" type="curve" smooth="yes"/>
      <point x="49" y="296"/>
      <point x="52" y="299"/>
      <point x="52" y="302" type="curve" smooth="yes"/>
      <point x="52" y="305"/>
      <point x="49" y="308"/>
    </contour>
    <contour>
      <point x="46" y="357" type="curve" smooth="yes"/>
      <point x="42" y="357"/>
      <point x="40" y="354"/>
      <point x="40" y="351" type="curve" smooth="yes"/>
      <point x="40" y="348"/>
      <point x="42" y="345"/>
      <point x="46" y="345" type="curve" smooth="yes"/>
      <point x="49" y="345"/>
      <point x="52" y="348"/>
      <point x="52" y="351" type="curve" smooth="yes"/>
      <point x="52" y="354"/>
      <point x="49" y="357"/>
    </contour>
    <contour>
      <point x="46" y="406" type="curve" smooth="yes"/>
      <point x="42" y="406"/>
      <point x="40" y="404"/>
      <point x="40" y="400" type="curve" smooth="yes"/>
      <point x="40" y="397"/>
      <point x="42" y="394"/>
      <point x="46" y="394" type="curve" smooth="yes"/>
      <point x="49" y="394"/>
      <point x="52" y="397"/>
      <point x="52" y="400" type="curve" smooth="yes"/>
      <point x="52" y="404"/>
      <point x="49" y="406"/>
    </contour>
    <contour>
      <point x="46" y="455" type="curve" smooth="yes"/>
      <point x="42" y="455"/>
      <point x="40" y="453"/>
      <point x="40" y="449" type="curve" smooth="yes"/>
      <point x="40" y="446"/>
      <point x="42" y="443"/>
      <point x="46" y="443" type="curve" smooth="yes"/>
      <point x="49" y="443"/>
      <point x="52" y="446"/>
      <point x="52" y="449" type="curve" smooth="yes"/>
      <point x="52" y="453"/>
      <point x="49" y="455"/>
    </contour>
    <contour>
      <point x="46" y="504" type="curve" smooth="yes"/>
      <point x="42" y="504"/>
      <point x="40" y="502"/>
      <point x="40" y="498" type="curve" smooth="yes"/>
      <point x="40" y="495"/>
      <point x="42" y="492"/>
      <point x="46" y="492" type="curve" smooth="yes"/>
      <point x="49" y="492"/>
      <point x="52" y="495"/>
      <point x="52" y="498" type="curve" smooth="yes"/>
      <point x="52" y="502"/>
      <point x="49" y="504"/>
    </contour>
    <contour>
      <point x="46" y="554" type="curve" smooth="yes"/>
      <point x="42" y="554"/>
      <point x="40" y="551"/>
      <point x="40" y="547" type="curve" smooth="yes"/>
      <point x="40" y="544"/>
      <point x="42" y="541"/>
      <point x="46" y="541" type="curve" smooth="yes"/>
      <point x="49" y="541"/>
      <point x="52" y="544"/>
      <point x="52" y="547" type="curve" smooth="yes"/>
      <point x="52" y="551"/>
      <point x="49" y="554"/>
    </contour>
    <contour>
      <point x="1" y="-36" type="curve" smooth="yes"/>
      <point x="-3" y="-36"/>
      <point x="-5" y="-38"/>
      <point x="-5" y="-42" type="curve" smooth="yes"/>
      <point x="-5" y="-45"/>
      <point x="-3" y="-48"/>
      <point x="1" y="-48" type="curve" smooth="yes"/>
      <point x="4" y="-48"/>
      <point x="7" y="-45"/>
      <point x="7" y="-42" type="curve" smooth="yes"/>
      <point x="7" y="-38"/>
      <point x="4" y="-36"/>
    </contour>
    <contour>
      <point x="1" y="14" type="curve" smooth="yes"/>
      <point x="-3" y="14"/>
      <point x="-5" y="11"/>
      <point x="-5" y="7" type="curve" smooth="yes"/>
      <point x="-5" y="4"/>
      <point x="-3" y="1"/>
      <point x="1" y="1" type="curve" smooth="yes"/>
      <point x="4" y="1"/>
      <point x="7" y="4"/>
      <point x="7" y="7" type="curve" smooth="yes"/>
      <point x="7" y="11"/>
      <point x="4" y="14"/>
    </contour>
    <contour>
      <point x="1" y="63" type="curve" smooth="yes"/>
      <point x="-3" y="63"/>
      <point x="-5" y="60"/>
      <point x="-5" y="56" type="curve" smooth="yes"/>
      <point x="-5" y="53"/>
      <point x="-3" y="50"/>
      <point x="1" y="50" type="curve" smooth="yes"/>
      <point x="4" y="50"/>
      <point x="7" y="53"/>
      <point x="7" y="56" type="curve" smooth="yes"/>
      <point x="7" y="60"/>
      <point x="4" y="63"/>
    </contour>
    <contour>
      <point x="1" y="112" type="curve" smooth="yes"/>
      <point x="-3" y="112"/>
      <point x="-5" y="109"/>
      <point x="-5" y="106" type="curve" smooth="yes"/>
      <point x="-5" y="102"/>
      <point x="-3" y="99"/>
      <point x="1" y="99" type="curve" smooth="yes"/>
      <point x="4" y="99"/>
      <point x="7" y="102"/>
      <point x="7" y="106" type="curve" smooth="yes"/>
      <point x="7" y="109"/>
      <point x="4" y="112"/>
    </contour>
    <contour>
      <point x="1" y="161" type="curve" smooth="yes"/>
      <point x="-3" y="161"/>
      <point x="-5" y="158"/>
      <point x="-5" y="155" type="curve" smooth="yes"/>
      <point x="-5" y="151"/>
      <point x="-3" y="149"/>
      <point x="1" y="149" type="curve" smooth="yes"/>
      <point x="4" y="149"/>
      <point x="7" y="151"/>
      <point x="7" y="155" type="curve" smooth="yes"/>
      <point x="7" y="158"/>
      <point x="4" y="161"/>
    </contour>
    <contour>
      <point x="1" y="210" type="curve" smooth="yes"/>
      <point x="-3" y="210"/>
      <point x="-5" y="207"/>
      <point x="-5" y="204" type="curve" smooth="yes"/>
      <point x="-5" y="200"/>
      <point x="-3" y="198"/>
      <point x="1" y="198" type="curve" smooth="yes"/>
      <point x="4" y="198"/>
      <point x="7" y="200"/>
      <point x="7" y="204" type="curve" smooth="yes"/>
      <point x="7" y="207"/>
      <point x="4" y="210"/>
    </contour>
    <contour>
      <point x="1" y="259" type="curve" smooth="yes"/>
      <point x="-3" y="259"/>
      <point x="-5" y="256"/>
      <point x="-5" y="253" type="curve" smooth="yes"/>
      <point x="-5" y="249"/>
      <point x="-3" y="247"/>
      <point x="1" y="247" type="curve" smooth="yes"/>
      <point x="4" y="247"/>
      <point x="7" y="249"/>
      <point x="7" y="253" type="curve" smooth="yes"/>
      <point x="7" y="256"/>
      <point x="4" y="259"/>
    </contour>
    <contour>
      <point x="1" y="308" type="curve" smooth="yes"/>
      <point x="-3" y="308"/>
      <point x="-5" y="305"/>
      <point x="-5" y="302" type="curve" smooth="yes"/>
      <point x="-5" y="299"/>
      <point x="-3" y="296"/>
      <point x="1" y="296" type="curve" smooth="yes"/>
      <point x="4" y="296"/>
      <point x="7" y="299"/>
      <point x="7" y="302" type="curve" smooth="yes"/>
      <point x="7" y="305"/>
      <point x="4" y="308"/>
    </contour>
    <contour>
      <point x="1" y="357" type="curve" smooth="yes"/>
      <point x="-3" y="357"/>
      <point x="-5" y="354"/>
      <point x="-5" y="351" type="curve" smooth="yes"/>
      <point x="-5" y="348"/>
      <point x="-3" y="345"/>
      <point x="1" y="345" type="curve" smooth="yes"/>
      <point x="4" y="345"/>
      <point x="7" y="348"/>
      <point x="7" y="351" type="curve" smooth="yes"/>
      <point x="7" y="354"/>
      <point x="4" y="357"/>
    </contour>
    <contour>
      <point x="1" y="406" type="curve" smooth="yes"/>
      <point x="-3" y="406"/>
      <point x="-5" y="404"/>
      <point x="-5" y="400" type="curve" smooth="yes"/>
      <point x="-5" y="397"/>
      <point x="-3" y="394"/>
      <point x="1" y="394" type="curve" smooth="yes"/>
      <point x="4" y="394"/>
      <point x="7" y="397"/>
      <point x="7" y="400" type="curve" smooth="yes"/>
      <point x="7" y="404"/>
      <point x="4" y="406"/>
    </contour>
    <contour>
      <point x="1" y="455" type="curve" smooth="yes"/>
      <point x="-3" y="455"/>
      <point x="-5" y="453"/>
      <point x="-5" y="449" type="curve" smooth="yes"/>
      <point x="-5" y="446"/>
      <point x="-3" y="443"/>
      <point x="1" y="443" type="curve" smooth="yes"/>
      <point x="4" y="443"/>
      <point x="7" y="446"/>
      <point x="7" y="449" type="curve" smooth="yes"/>
      <point x="7" y="453"/>
      <point x="4" y="455"/>
    </contour>
    <contour>
      <point x="1" y="504" type="curve" smooth="yes"/>
      <point x="-3" y="504"/>
      <point x="-5" y="502"/>
      <point x="-5" y="498" type="curve" smooth="yes"/>
      <point x="-5" y="495"/>
      <point x="-3" y="492"/>
      <point x="1" y="492" type="curve" smooth="yes"/>
      <point x="4" y="492"/>
      <point x="7" y="495"/>
      <point x="7" y="498" type="curve" smooth="yes"/>
      <point x="7" y="502"/>
      <point x="4" y="504"/>
    </contour>
    <contour>
      <point x="1" y="554" type="curve" smooth="yes"/>
      <point x="-3" y="554"/>
      <point x="-5" y="551"/>
      <point x="-5" y="547" type="curve" smooth="yes"/>
      <point x="-5" y="544"/>
      <point x="-3" y="541"/>
      <point x="1" y="541" type="curve" smooth="yes"/>
      <point x="4" y="541"/>
      <point x="7" y="544"/>
      <point x="7" y="547" type="curve" smooth="yes"/>
      <point x="7" y="551"/>
      <point x="4" y="554"/>
    </contour>
  </outline>
</glyph>
<glyph name="a.3.2" format="1">
  <advance width="494"/>
  <outline>
    <contour>
      <point x="241" y="506" type="line"/>
      <point x="34" y="0" type="line"/>
      <point x="57" y="0" type="line"/>
      <point x="69" y="36" type="line"/>
      <point x="113" y="141" type="line"/>
      <point x="379" y="141" type="line"/>
      <point x="419" y="36" type="line"/>
      <point x="429" y="0" type="line"/>
      <point x="452" y="0" type="line"/>
      <point x="262" y="506" type="line"/>
    </contour>
    <contour>
      <point x="121" y="161" type="line"/>
      <point x="249" y="475" type="line"/>
      <point x="252" y="475" type="line"/>
      <point x="372" y="161" type="line"/>
    </contour>
    <contour>
      <point x="201" y="472" type="line"/>
      <point x="2" y="551" type="line"/>
      <point x="0" y="552"/>
      <point x="-3" y="551"/>
      <point x="-3" y="548" type="curve" smooth="yes"/>
      <point x="-4" y="546"/>
      <point x="-3" y="544"/>
      <point x="-1" y="543" type="curve"/>
      <point x="197" y="464" type="line"/>
    </contour>
    <contour>
      <point x="496" y="354" type="curve"/>
      <point x="320" y="424" type="line"/>
      <point x="324" y="414" type="line"/>
      <point x="493" y="347" type="line"/>
      <point x="493" y="346"/>
      <point x="494" y="346"/>
      <point x="494" y="346" type="curve" smooth="yes"/>
      <point x="496" y="346"/>
      <point x="498" y="347"/>
      <point x="498" y="349" type="curve" smooth="yes"/>
      <point x="499" y="351"/>
      <point x="498" y="354"/>
    </contour>
  </outline>
</glyph>
<glyph name="a.sub" format="1">
  <advance width="86"/>
  <outline>
    <contour>
      <point x="35" y="664" type="curve" smooth="yes"/>
      <point x="28" y="664"/>
      <point x="22" y="666"/>
      <point x="17" y="669" type="curve" smooth="yes"/>
      <point x="13" y="673"/>
      <point x="11" y="679"/>
      <point x="11" y="686" type="curve" smooth="yes"/>
      <point x="11" y="693"/>
      <point x="13" y="699"/>
      <point x="18" y="703" type="curve" smooth="yes"/>
      <point x="23" y="707"/>
      <point x="29" y="709"/>
      <point x="37" y="709" type="curve" smooth="yes"/>
      <point x="45" y="709"/>
      <point x="52" y="709"/>
      <point x="58" y="708" type="curve" smooth="yes"/>
      <point x="58" y="717"/>
      <point x="57" y="724"/>
      <point x="55" y="727" type="curve" smooth="yes"/>
      <point x="52" y="731"/>
      <point x="48" y="732"/>
      <point x="41" y="732" type="curve" smooth="yes"/>
      <point x="34" y="732"/>
      <point x="25" y="731"/>
      <point x="16" y="727" type="curve" smooth="yes"/>
      <point x="13" y="735" type="line"/>
      <point x="23" y="739"/>
      <point x="32" y="740"/>
      <point x="40" y="740" type="curve" smooth="yes"/>
      <point x="50" y="740"/>
      <point x="57" y="738"/>
      <point x="61" y="734" type="curve" smooth="yes"/>
      <point x="64" y="729"/>
      <point x="66" y="721"/>
      <point x="66" y="709" type="curve" smooth="yes"/>
      <point x="66" y="676" type="line"/>
      <point x="68" y="665" type="line"/>
      <point x="60" y="664" type="line"/>
      <point x="58" y="673" type="line"/>
      <point x="56" y="671"/>
      <point x="52" y="669"/>
      <point x="48" y="667" type="curve" smooth="yes"/>
      <point x="43" y="665"/>
      <point x="39" y="664"/>
    </contour>
    <contour>
      <point x="35" y="672" type="curve" smooth="yes"/>
      <point x="39" y="672"/>
      <point x="43" y="673"/>
      <point x="48" y="675" type="curve" smooth="yes"/>
      <point x="53" y="678"/>
      <point x="56" y="680"/>
      <point x="58" y="682" type="curve" smooth="yes"/>
      <point x="58" y="701" type="line"/>
      <point x="51" y="701"/>
      <point x="44" y="702"/>
      <point x="38" y="702" type="curve" smooth="yes"/>
      <point x="32" y="702"/>
      <point x="27" y="700"/>
      <point x="24" y="698" type="curve" smooth="yes"/>
      <point x="21" y="695"/>
      <point x="19" y="691"/>
      <point x="19" y="687" type="curve" smooth="yes"/>
      <point x="19" y="677"/>
      <point x="25" y="672"/>
    </contour>
  </outline>
</glyph>
<glyph name="a.top" format="1">
  <advance width="86"/>
  <outline>
    <contour>
      <point x="35" y="505" type="curve" smooth="yes"/>
      <point x="28" y="505"/>
      <point x="22" y="507"/>
      <point x="17" y="510" type="curve"/>
      <point x="13" y="514"/>
      <point x="11" y="520"/>
      <point x="11" y="527" type="curve" smooth="yes"/>
      <point x="11" y="534"/>
      <point x="13" y="540"/>
      <point x="18" y="544" type="curve" smooth="yes"/>
      <point x="23" y="548"/>
      <point x="29" y="550"/>
      <point x="37" y="550" type="curve" smooth="yes"/>
      <point x="45" y="550"/>
      <point x="52" y="550"/>
      <point x="58" y="549" type="curve"/>
      <point x="58" y="558"/>
      <point x="57" y="565"/>
      <point x="55" y="568" type="curve" smooth="yes"/>
      <point x="52" y="572"/>
      <point x="48" y="573"/>
      <point x="41" y="573" type="curve" smooth="yes"/>
      <point x="34" y="573"/>
      <point x="25" y="572"/>
      <point x="16" y="568" type="curve"/>
      <point x="13" y="576" type="line"/>
      <point x="23" y="580"/>
      <point x="32" y="581"/>
      <point x="40" y="581" type="curve" smooth="yes"/>
      <point x="50" y="581"/>
      <point x="57" y="579"/>
      <point x="61" y="575" type="curve"/>
      <point x="64" y="570"/>
      <point x="66" y="562"/>
      <point x="66" y="550" type="curve" smooth="yes"/>
      <point x="66" y="517" type="line"/>
      <point x="68" y="506" type="line"/>
      <point x="60" y="505" type="line"/>
      <point x="58" y="514" type="line"/>
      <point x="56" y="512"/>
      <point x="52" y="510"/>
      <point x="48" y="508" type="curve" smooth="yes"/>
      <point x="43" y="506"/>
      <point x="39" y="505"/>
    </contour>
    <contour>
      <point x="35" y="513" type="curve" smooth="yes"/>
      <point x="39" y="513"/>
      <point x="43" y="514"/>
      <point x="48" y="516" type="curve" smooth="yes"/>
      <point x="53" y="519"/>
      <point x="56" y="521"/>
      <point x="58" y="523" type="curve"/>
      <point x="58" y="542" type="line"/>
      <point x="51" y="542"/>
      <point x="44" y="543"/>
      <point x="38" y="543" type="curve" smooth="yes"/>
      <point x="32" y="543"/>
      <point x="27" y="541"/>
      <point x="24" y="539" type="curve" smooth="yes"/>
      <point x="21" y="536"/>
      <point x="19" y="532"/>
      <point x="19" y="528" type="curve" smooth="yes"/>
      <point x="19" y="518"/>
      <point x="25" y="513"/>
    </contour>
  </outline>
</glyph>
<glyph name="acircumflex.0" format="1">
  <advance width="494"/>
  <outline>
    <contour>
      <point x="494" y="-38" type="curve"/>
      <point x="0" y="-38" type="line"/>
      <point x="-2" y="-38"/>
      <point x="-4" y="-40"/>
      <point x="-4" y="-42" type="curve" smooth="yes"/>
      <point x="-4" y="-44"/>
      <point x="-2" y="-46"/>
      <point x="0" y="-46" type="curve"/>
      <point x="494" y="-46" type="line"/>
      <point x="496" y="-46"/>
      <point x="498" y="-44"/>
      <point x="498" y="-42" type="curve" smooth="yes"/>
      <point x="498" y="-40"/>
      <point x="496" y="-38"/>
    </contour>
    <contour>
      <point x="69" y="36" type="line"/>
      <point x="112" y="141" type="line"/>
      <point x="379" y="141" type="line"/>
      <point x="419" y="36" type="line"/>
      <point x="429" y="0" type="line"/>
      <point x="452" y="0" type="line"/>
      <point x="396" y="148" type="line"/>
      <point x="262" y="506" type="line"/>
      <point x="241" y="506" type="line"/>
      <point x="34" y="0" type="line"/>
      <point x="57" y="0" type="line"/>
    </contour>
    <contour>
      <point x="249" y="475" type="line"/>
      <point x="252" y="475" type="line"/>
      <point x="372" y="161" type="line"/>
      <point x="120" y="161" type="line"/>
    </contour>
    <contour>
      <point x="253" y="606" type="line"/>
      <point x="253" y="606"/>
      <point x="304" y="562"/>
      <point x="345" y="532" type="curve"/>
      <point x="349" y="533" type="line"/>
      <point x="357" y="545" type="line" smooth="yes"/>
      <point x="319" y="574"/>
      <point x="258" y="626"/>
      <point x="258" y="626" type="curve"/>
      <point x="245" y="626" type="line"/>
      <point x="245" y="626"/>
      <point x="181" y="571"/>
      <point x="146" y="545" type="curve" smooth="yes"/>
      <point x="154" y="533" type="line"/>
      <point x="159" y="532" type="line" smooth="yes"/>
      <point x="198" y="561"/>
      <point x="250" y="606"/>
      <point x="250" y="606" type="curve"/>
    </contour>
  </outline>
</glyph>
<glyph name="acircumflex.001" format="1">
  <advance width="494"/>
  <outline>
    <contour>
      <point x="251" y="491" type="move" name="mark0"/>
    </contour>
    <contour>
      <point x="0" y="0" type="move" name="mark1"/>
    </contour>
    <contour>
      <point x="150" y="559" type="line"/>
      <point x="155" y="559" type="line"/>
      <point x="190" y="598"/>
      <point x="220" y="635"/>
      <point x="251" y="676" type="curve"/>
      <point x="282" y="635"/>
      <point x="312" y="598"/>
      <point x="347" y="559" type="curve"/>
      <point x="352" y="559" type="line"/>
      <point x="361" y="571" type="line"/>
      <point x="328" y="608"/>
      <point x="297" y="648"/>
      <point x="260" y="697" type="curve"/>
      <point x="242" y="697" type="line"/>
      <point x="205" y="648"/>
      <point x="174" y="608"/>
      <point x="141" y="571" type="curve"/>
    </contour>
    <contour>
      <point x="452" y="0" type="line"/>
      <point x="262" y="491" type="line"/>
      <point x="241" y="491" type="line"/>
      <point x="34" y="0" type="line"/>
      <point x="57" y="0" type="line"/>
      <point x="69" y="35" type="line"/>
      <point x="122" y="161" type="line"/>
      <point x="370" y="161" type="line"/>
      <point x="419" y="35" type="line"/>
      <point x="429" y="0" type="line"/>
    </contour>
    <contour>
      <point x="362" y="180" type="line"/>
      <point x="130" y="180" type="line"/>
      <point x="249" y="461" type="line"/>
      <point x="252" y="461" type="line"/>
    </contour>
  </outline>
</glyph>
<glyph name="acircumflex.0.kern" format="1">
  <advance width="449"/>
  <outline>
    <contour>
      <point x="449" y="-38" type="curve"/>
      <point x="0" y="-38" type="line" smooth="yes"/>
      <point x="-2" y="-38"/>
      <point x="-4" y="-40"/>
      <point x="-4" y="-42" type="curve" smooth="yes"/>
      <point x="-4" y="-44"/>
      <point x="-2" y="-46"/>
      <point x="0" y="-46" type="curve" smooth="yes"/>
      <point x="449" y="-46" type="line" smooth="yes"/>
      <point x="451" y="-46"/>
      <point x="453" y="-44"/>
      <point x="453" y="-42" type="curve" smooth="yes"/>
      <point x="453" y="-40"/>
      <point x="451" y="-38"/>
    </contour>
    <contour>
      <point x="62" y="36" type="line"/>
      <point x="106" y="141" type="line"/>
      <point x="377" y="141" type="line"/>
      <point x="418" y="36" type="line"/>
      <point x="428" y="0" type="line"/>
      <point x="452" y="0" type="line"/>
      <point x="395" y="148" type="line"/>
      <point x="259" y="506" type="line"/>
      <point x="237" y="506" type="line"/>
      <point x="27" y="0" type="line"/>
      <point x="48" y="0" type="line"/>
    </contour>
    <contour>
      <point x="245" y="475" type="line"/>
      <point x="248" y="475" type="line"/>
      <point x="370" y="161" type="line"/>
      <point x="115" y="161" type="line"/>
    </contour>
    <contour>
      <point x="253" y="606" type="line"/>
      <point x="253" y="606"/>
      <point x="304" y="562"/>
      <point x="345" y="532" type="curve"/>
      <point x="349" y="533" type="line"/>
      <point x="357" y="545" type="line"/>
      <point x="319" y="574"/>
      <point x="258" y="626"/>
      <point x="258" y="626" type="curve"/>
      <point x="245" y="626" type="line"/>
      <point x="245" y="626"/>
      <point x="181" y="571"/>
      <point x="146" y="545" type="curve"/>
      <point x="154" y="533" type="line"/>
      <point x="159" y="532" type="line"/>
      <point x="198" y="561"/>
      <point x="250" y="606"/>
      <point x="250" y="606" type="curve"/>
    </contour>
  </outline>
</glyph>
<glyph name="acircumflex.1.2.kern" format="1">
  <advance width="449"/>
  <outline>
    <contour>
      <point x="296" y="288" type="line"/>
      <point x="139" y="219" type="line"/>
      <point x="245" y="475" type="line"/>
      <point x="248" y="475" type="line"/>
      <point x="370" y="161" type="line"/>
      <point x="94" y="161" type="line"/>
      <point x="28" y="2" type="line"/>
      <point x="28" y="0" type="line"/>
      <point x="50" y="0" type="line"/>
      <point x="62" y="36" type="line"/>
      <point x="106" y="141" type="line"/>
      <point x="377" y="141" type="line"/>
      <point x="419" y="36" type="line"/>
      <point x="429" y="0" type="line"/>
      <point x="452" y="0" type="line"/>
      <point x="259" y="506" type="line"/>
      <point x="237" y="506" type="line"/>
      <point x="113" y="208" type="line"/>
      <point x="-2" y="158" type="line" smooth="yes"/>
      <point x="-4" y="157"/>
      <point x="-5" y="155"/>
      <point x="-4" y="152" type="curve" smooth="yes"/>
      <point x="-3" y="151"/>
      <point x="-2" y="150"/>
      <point x="0" y="150" type="curve"/>
      <point x="1" y="150" type="line"/>
      <point x="299" y="280" type="line"/>
    </contour>
    <contour>
      <point x="453" y="352" type="curve" smooth="yes"/>
      <point x="452" y="354"/>
      <point x="449" y="355"/>
      <point x="447" y="354" type="curve" smooth="yes"/>
      <point x="360" y="316" type="line"/>
      <point x="363" y="308" type="line"/>
      <point x="450" y="347" type="line" smooth="yes"/>
      <point x="452" y="348"/>
      <point x="453" y="350"/>
    </contour>
    <contour>
      <point x="253" y="606" type="line"/>
      <point x="253" y="606"/>
      <point x="304" y="562"/>
      <point x="345" y="532" type="curve"/>
      <point x="349" y="533" type="line"/>
      <point x="357" y="545" type="line"/>
      <point x="319" y="574"/>
      <point x="258" y="626"/>
      <point x="258" y="626" type="curve"/>
      <point x="245" y="626" type="line"/>
      <point x="245" y="626"/>
      <point x="181" y="571"/>
      <point x="146" y="545" type="curve"/>
      <point x="154" y="533" type="line"/>
      <point x="159" y="532" type="line"/>
      <point x="198" y="561"/>
      <point x="250" y="606"/>
      <point x="250" y="606" type="curve"/>
    </contour>
  </outline>
</glyph>
<glyph name="acircumflex.2" format="1">
  <advance width="494"/>
  <outline>
    <contour>
      <point x="498" y="353" type="curve" smooth="yes"/>
      <point x="496" y="355"/>
      <point x="494" y="355"/>
      <point x="492" y="354" type="curve"/>
      <point x="359" y="248" type="line"/>
      <point x="359" y="248" type="line"/>
      <point x="359" y="248" type="line"/>
      <point x="262" y="506" type="line"/>
      <point x="241" y="506" type="line"/>
      <point x="39" y="-6" type="line"/>
      <point x="-2" y="-39" type="line"/>
      <point x="-4" y="-40"/>
      <point x="-4" y="-43"/>
      <point x="-3" y="-45" type="curve" smooth="yes"/>
      <point x="-2" y="-46"/>
      <point x="-1" y="-46"/>
      <point x="0" y="-46" type="curve" smooth="yes"/>
      <point x="1" y="-46"/>
      <point x="2" y="-46"/>
      <point x="3" y="-45" type="curve"/>
      <point x="206" y="116" type="line"/>
      <point x="193" y="116" type="line"/>
      <point x="70" y="19" type="line"/>
      <point x="76" y="36" type="line"/>
      <point x="117" y="141" type="line"/>
      <point x="379" y="141" type="line"/>
      <point x="419" y="36" type="line"/>
      <point x="429" y="0" type="line"/>
      <point x="452" y="0" type="line"/>
      <point x="397" y="148" type="line"/>
      <point x="373" y="210" type="line"/>
      <point x="358" y="198" type="line"/>
      <point x="372" y="161" type="line"/>
      <point x="125" y="161" type="line"/>
      <point x="249" y="475" type="line"/>
      <point x="252" y="475" type="line"/>
      <point x="343" y="236" type="line"/>
      <point x="343" y="236" type="line"/>
      <point x="343" y="236" type="line"/>
      <point x="280" y="186" type="line"/>
      <point x="294" y="186" type="line"/>
      <point x="497" y="347" type="line"/>
      <point x="499" y="349"/>
      <point x="499" y="352"/>
    </contour>
    <contour>
      <point x="253" y="606" type="line"/>
      <point x="253" y="606"/>
      <point x="304" y="562"/>
      <point x="345" y="532" type="curve"/>
      <point x="349" y="533" type="line"/>
      <point x="357" y="545" type="line"/>
      <point x="319" y="574"/>
      <point x="258" y="626"/>
      <point x="258" y="626" type="curve"/>
      <point x="245" y="626" type="line"/>
      <point x="245" y="626"/>
      <point x="181" y="571"/>
      <point x="146" y="545" type="curve"/>
      <point x="154" y="533" type="line"/>
      <point x="159" y="532" type="line"/>
      <point x="198" y="561"/>
      <point x="250" y="606"/>
      <point x="250" y="606" type="curve"/>
    </contour>
  </outline>
</glyph>
<glyph name="acircumflex.2.0" format="1">
  <advance width="494"/>
  <outline>
    <contour>
      <point x="497" y="-40" type="curve"/>
      <point x="455" y="-7" type="line"/>
      <point x="262" y="504" type="line"/>
      <point x="241" y="504" type="line"/>
      <point x="136" y="247" type="line"/>
      <point x="3" y="353" type="line"/>
      <point x="1" y="354"/>
      <point x="-2" y="354"/>
      <point x="-3" y="352" type="curve" smooth="yes"/>
      <point x="-5" y="350"/>
      <point x="-4" y="347"/>
      <point x="-2" y="346" type="curve"/>
      <point x="132" y="239" type="line"/>
      <point x="34" y="0" type="line"/>
      <point x="57" y="0" type="line"/>
      <point x="69" y="36" type="line"/>
      <point x="113" y="141" type="line"/>
      <point x="198" y="141" type="line"/>
      <point x="174" y="161" type="line"/>
      <point x="121" y="161" type="line"/>
      <point x="148" y="227" type="line"/>
      <point x="492" y="-47" type="line"/>
      <point x="492" y="-48"/>
      <point x="493" y="-48"/>
      <point x="494" y="-48" type="curve" smooth="yes"/>
      <point x="496" y="-48"/>
      <point x="497" y="-47"/>
      <point x="498" y="-46" type="curve" smooth="yes"/>
      <point x="499" y="-44"/>
      <point x="499" y="-42"/>
    </contour>
    <contour>
      <point x="419" y="36" type="line"/>
      <point x="424" y="18" type="line"/>
      <point x="269" y="141" type="line"/>
      <point x="379" y="141" type="line"/>
    </contour>
    <contour>
      <point x="249" y="473" type="line"/>
      <point x="252" y="473" type="line"/>
      <point x="372" y="161" type="line"/>
      <point x="244" y="161" type="line"/>
      <point x="151" y="235" type="line"/>
    </contour>
    <contour>
      <point x="253" y="606" type="line"/>
      <point x="253" y="606"/>
      <point x="304" y="562"/>
      <point x="345" y="532" type="curve"/>
      <point x="349" y="533" type="line"/>
      <point x="357" y="545" type="line"/>
      <point x="319" y="574"/>
      <point x="258" y="626"/>
      <point x="258" y="626" type="curve"/>
      <point x="245" y="626" type="line"/>
      <point x="245" y="626"/>
      <point x="181" y="571"/>
      <point x="146" y="545" type="curve"/>
      <point x="154" y="533" type="line"/>
      <point x="159" y="532" type="line"/>
      <point x="198" y="561"/>
      <point x="250" y="606"/>
      <point x="250" y="606" type="curve"/>
    </contour>
  </outline>
</glyph>
<glyph name="acircumflex.2.0.kern" format="1">
  <advance width="449"/>
  <outline>
    <contour>
      <point x="246" y="141" type="line"/>
      <point x="377" y="141" type="line"/>
      <point x="418" y="36" type="line"/>
      <point x="428" y="0" type="line"/>
      <point x="452" y="0" type="line"/>
      <point x="259" y="506" type="line"/>
      <point x="237" y="506" type="line"/>
      <point x="27" y="0" type="line"/>
      <point x="50" y="0" type="line"/>
      <point x="62" y="36" type="line"/>
      <point x="106" y="141" type="line"/>
      <point x="192" y="141" type="line"/>
      <point x="166" y="161" type="line"/>
      <point x="115" y="161" type="line"/>
      <point x="245" y="475" type="line"/>
      <point x="248" y="475" type="line"/>
      <point x="370" y="161" type="line"/>
      <point x="223" y="161" type="line"/>
      <point x="167" y="210" type="line"/>
      <point x="163" y="202" type="line"/>
      <point x="182" y="186" type="line"/>
      <point x="182" y="186"/>
      <point x="182" y="186"/>
      <point x="182" y="186" type="curve"/>
      <point x="446" y="-46" type="line"/>
      <point x="447" y="-46"/>
      <point x="448" y="-47"/>
      <point x="449" y="-47" type="curve" smooth="yes"/>
      <point x="450" y="-47"/>
      <point x="451" y="-46"/>
      <point x="452" y="-45" type="curve" smooth="yes"/>
      <point x="454" y="-43"/>
      <point x="453" y="-41"/>
      <point x="452" y="-39" type="curve"/>
    </contour>
    <contour>
      <point x="112" y="258" type="line"/>
      <point x="3" y="354" type="line"/>
      <point x="1" y="355"/>
      <point x="-2" y="355"/>
      <point x="-3" y="353" type="curve" smooth="yes"/>
      <point x="-5" y="352"/>
      <point x="-5" y="349"/>
      <point x="-3" y="347" type="curve"/>
      <point x="109" y="250" type="line"/>
    </contour>
    <contour>
      <point x="253" y="606" type="line"/>
      <point x="253" y="606"/>
      <point x="304" y="562"/>
      <point x="345" y="532" type="curve"/>
      <point x="349" y="533" type="line"/>
      <point x="357" y="545" type="line"/>
      <point x="319" y="574"/>
      <point x="258" y="626"/>
      <point x="258" y="626" type="curve"/>
      <point x="245" y="626" type="line"/>
      <point x="245" y="626"/>
      <point x="181" y="571"/>
      <point x="146" y="545" type="curve"/>
      <point x="154" y="533" type="line"/>
      <point x="159" y="532" type="line"/>
      <point x="198" y="561"/>
      <point x="250" y="606"/>
      <point x="250" y="606" type="curve"/>
    </contour>
  </outline>
</glyph>
<glyph name="acircumflex.2.2" format="1">
  <advance width="494"/>
  <outline>
    <contour>
      <point x="241" y="506" type="line"/>
      <point x="180" y="354" type="line"/>
      <point x="0" y="354" type="line"/>
      <point x="-2" y="354"/>
      <point x="-4" y="353"/>
      <point x="-4" y="350" type="curve" smooth="yes"/>
      <point x="-4" y="348"/>
      <point x="-2" y="346"/>
      <point x="0" y="346" type="curve"/>
      <point x="274" y="346" type="line"/>
      <point x="271" y="354" type="line"/>
      <point x="200" y="354" type="line"/>
      <point x="249" y="475" type="line"/>
      <point x="252" y="475" type="line"/>
      <point x="372" y="161" type="line"/>
      <point x="121" y="161" type="line"/>
      <point x="184" y="315" type="line"/>
      <point x="164" y="315" type="line"/>
      <point x="34" y="0" type="line"/>
      <point x="57" y="0" type="line"/>
      <point x="69" y="36" type="line"/>
      <point x="113" y="141" type="line"/>
      <point x="379" y="141" type="line"/>
      <point x="419" y="36" type="line"/>
      <point x="429" y="0" type="line"/>
      <point x="452" y="0" type="line"/>
      <point x="262" y="506" type="line"/>
    </contour>
    <contour>
      <point x="494" y="354" type="curve"/>
      <point x="346" y="354" type="line"/>
      <point x="349" y="346" type="line"/>
      <point x="494" y="346" type="line"/>
      <point x="497" y="346"/>
      <point x="498" y="348"/>
      <point x="498" y="350" type="curve" smooth="yes"/>
      <point x="498" y="353"/>
      <point x="497" y="354"/>
    </contour>
    <contour>
      <point x="253" y="606" type="line"/>
      <point x="253" y="606"/>
      <point x="304" y="562"/>
      <point x="345" y="532" type="curve"/>
      <point x="349" y="533" type="line"/>
      <point x="357" y="545" type="line"/>
      <point x="319" y="574"/>
      <point x="258" y="626"/>
      <point x="258" y="626" type="curve"/>
      <point x="245" y="626" type="line"/>
      <point x="245" y="626"/>
      <point x="181" y="571"/>
      <point x="146" y="545" type="curve"/>
      <point x="154" y="533" type="line"/>
      <point x="159" y="532" type="line"/>
      <point x="198" y="561"/>
      <point x="250" y="606"/>
      <point x="250" y="606" type="curve"/>
    </contour>
  </outline>
</glyph>
<glyph name="acircumflex.2.2.kern" format="1">
  <advance width="449"/>
  <outline>
    <contour>
      <point x="271" y="354" type="line"/>
      <point x="195" y="354" type="line"/>
      <point x="245" y="475" type="line"/>
      <point x="248" y="475" type="line"/>
      <point x="370" y="161" type="line"/>
      <point x="115" y="161" type="line"/>
      <point x="178" y="314" type="line"/>
      <point x="157" y="314" type="line"/>
      <point x="27" y="0" type="line"/>
      <point x="50" y="0" type="line"/>
      <point x="62" y="36" type="line"/>
      <point x="106" y="141" type="line"/>
      <point x="377" y="141" type="line"/>
      <point x="418" y="36" type="line"/>
      <point x="428" y="0" type="line"/>
      <point x="452" y="0" type="line"/>
      <point x="259" y="506" type="line"/>
      <point x="237" y="506" type="line"/>
      <point x="174" y="354" type="line"/>
      <point x="0" y="354" type="line" smooth="yes"/>
      <point x="-2" y="354"/>
      <point x="-4" y="353"/>
      <point x="-4" y="350" type="curve" smooth="yes"/>
      <point x="-4" y="348"/>
      <point x="-2" y="346"/>
      <point x="0" y="346" type="curve" smooth="yes"/>
      <point x="274" y="346" type="line"/>
    </contour>
    <contour>
      <point x="348" y="346" type="line"/>
      <point x="449" y="346" type="line" smooth="yes"/>
      <point x="451" y="346"/>
      <point x="453" y="348"/>
      <point x="453" y="350" type="curve" smooth="yes"/>
      <point x="453" y="353"/>
      <point x="451" y="354"/>
      <point x="449" y="354" type="curve" smooth="yes"/>
      <point x="345" y="354" type="line"/>
    </contour>
    <contour>
      <point x="253" y="606" type="line"/>
      <point x="253" y="606"/>
      <point x="304" y="562"/>
      <point x="345" y="532" type="curve"/>
      <point x="349" y="533" type="line"/>
      <point x="357" y="545" type="line"/>
      <point x="319" y="574"/>
      <point x="258" y="626"/>
      <point x="258" y="626" type="curve"/>
      <point x="245" y="626" type="line"/>
      <point x="245" y="626"/>
      <point x="181" y="571"/>
      <point x="146" y="545" type="curve"/>
      <point x="154" y="533" type="line"/>
      <point x="159" y="532" type="line"/>
      <point x="198" y="561"/>
      <point x="250" y="606"/>
      <point x="250" y="606" type="curve"/>
    </contour>
  </outline>
</glyph>
<glyph name="acircumflex.3.2.kern" format="1">
  <advance width="449"/>
  <outline>
    <contour>
      <point x="326" y="399" type="line"/>
      <point x="447" y="347" type="line"/>
      <point x="448" y="346"/>
      <point x="448" y="346"/>
      <point x="449" y="346" type="curve" smooth="yes"/>
      <point x="450" y="346"/>
      <point x="452" y="347"/>
      <point x="453" y="349" type="curve" smooth="yes"/>
      <point x="453" y="351"/>
      <point x="452" y="353"/>
      <point x="450" y="354" type="curve"/>
      <point x="322" y="410" type="line"/>
    </contour>
    <contour>
      <point x="-2" y="543" type="curve"/>
      <point x="191" y="458" type="line"/>
      <point x="194" y="466" type="line"/>
      <point x="1" y="551" type="line"/>
      <point x="-1" y="552"/>
      <point x="-3" y="551"/>
      <point x="-4" y="549" type="curve" smooth="yes"/>
      <point x="-5" y="546"/>
      <point x="-4" y="544"/>
    </contour>
    <contour>
      <point x="62" y="36" type="line"/>
      <point x="106" y="141" type="line"/>
      <point x="377" y="141" type="line"/>
      <point x="418" y="36" type="line"/>
      <point x="428" y="0" type="line"/>
      <point x="452" y="0" type="line"/>
      <point x="395" y="148" type="line"/>
      <point x="259" y="506" type="line"/>
      <point x="237" y="506" type="line"/>
      <point x="27" y="0" type="line"/>
      <point x="48" y="0" type="line"/>
    </contour>
    <contour>
      <point x="245" y="475" type="line"/>
      <point x="248" y="475" type="line"/>
      <point x="370" y="161" type="line"/>
      <point x="115" y="161" type="line"/>
    </contour>
    <contour>
      <point x="253" y="606" type="line"/>
      <point x="253" y="606"/>
      <point x="304" y="562"/>
      <point x="345" y="532" type="curve"/>
      <point x="349" y="533" type="line"/>
      <point x="357" y="545" type="line"/>
      <point x="319" y="574"/>
      <point x="258" y="626"/>
      <point x="258" y="626" type="curve"/>
      <point x="245" y="626" type="line"/>
      <point x="245" y="626"/>
      <point x="181" y="571"/>
      <point x="146" y="545" type="curve"/>
      <point x="154" y="533" type="line"/>
      <point x="159" y="532" type="line"/>
      <point x="198" y="561"/>
      <point x="250" y="606"/>
      <point x="250" y="606" type="curve"/>
    </contour>
  </outline>
</glyph>
<glyph name="acircumflex.3.3.kern" format="1">
  <advance width="449"/>
  <outline>
    <contour>
      <point x="62" y="36" type="line"/>
      <point x="106" y="141" type="line"/>
      <point x="377" y="141" type="line"/>
      <point x="418" y="36" type="line"/>
      <point x="428" y="0" type="line"/>
      <point x="452" y="0" type="line"/>
      <point x="395" y="148" type="line"/>
      <point x="259" y="506" type="line"/>
      <point x="237" y="506" type="line"/>
      <point x="27" y="0" type="line"/>
      <point x="48" y="0" type="line"/>
    </contour>
    <contour>
      <point x="245" y="475" type="line"/>
      <point x="248" y="475" type="line"/>
      <point x="370" y="161" type="line"/>
      <point x="115" y="161" type="line"/>
    </contour>
    <contour>
      <point x="449" y="551" type="curve"/>
      <point x="349" y="551" type="line"/>
      <point x="311" y="580"/>
      <point x="258" y="626"/>
      <point x="258" y="626" type="curve"/>
      <point x="245" y="626" type="line"/>
      <point x="245" y="626"/>
      <point x="190" y="578"/>
      <point x="154" y="551" type="curve"/>
      <point x="0" y="551" type="line" smooth="yes"/>
      <point x="-2" y="551"/>
      <point x="-4" y="549"/>
      <point x="-4" y="547" type="curve" smooth="yes"/>
      <point x="-4" y="545"/>
      <point x="-2" y="543"/>
      <point x="0" y="543" type="curve" smooth="yes"/>
      <point x="449" y="543" type="line" smooth="yes"/>
      <point x="451" y="543"/>
      <point x="453" y="545"/>
      <point x="453" y="547" type="curve" smooth="yes"/>
      <point x="453" y="549"/>
      <point x="451" y="551"/>
    </contour>
    <contour>
      <point x="253" y="606" type="line"/>
      <point x="253" y="606"/>
      <point x="285" y="577"/>
      <point x="319" y="551" type="curve"/>
      <point x="183" y="551" type="line"/>
      <point x="216" y="577"/>
      <point x="250" y="606"/>
      <point x="250" y="606" type="curve"/>
    </contour>
  </outline>
</glyph>
<glyph name="adieresis.1.2" format="1">
  <advance width="494"/>
  <outline>
    <contour>
      <point x="100" y="161" type="line"/>
      <point x="100" y="161" type="line"/>
      <point x="100" y="161" type="line"/>
    </contour>
    <contour>
      <point x="100" y="161" type="line"/>
      <point x="100" y="161" type="line"/>
      <point x="100" y="161" type="line"/>
    </contour>
    <contour>
      <point x="241" y="506" type="line"/>
      <point x="119" y="206" type="line"/>
      <point x="-1" y="158" type="line"/>
      <point x="-3" y="157"/>
      <point x="-4" y="155"/>
      <point x="-3" y="153" type="curve" smooth="yes"/>
      <point x="-3" y="151"/>
      <point x="-1" y="150"/>
      <point x="0" y="150" type="curve" smooth="yes"/>
      <point x="1" y="150"/>
      <point x="1" y="150"/>
      <point x="2" y="150" type="curve"/>
      <point x="304" y="270" type="line"/>
      <point x="301" y="278" type="line"/>
      <point x="143" y="215" type="line"/>
      <point x="249" y="475" type="line"/>
      <point x="252" y="475" type="line"/>
      <point x="372" y="161" type="line"/>
      <point x="100" y="161" type="line"/>
      <point x="35" y="2" type="line"/>
      <point x="35" y="0" type="line"/>
      <point x="57" y="0" type="line"/>
      <point x="69" y="36" type="line"/>
      <point x="113" y="141" type="line"/>
      <point x="379" y="141" type="line"/>
      <point x="419" y="36" type="line"/>
      <point x="429" y="0" type="line"/>
      <point x="452" y="0" type="line"/>
      <point x="262" y="506" type="line"/>
    </contour>
    <contour>
      <point x="498" y="352" type="curve" smooth="yes"/>
      <point x="497" y="354"/>
      <point x="495" y="355"/>
      <point x="493" y="354" type="curve"/>
      <point x="365" y="304" type="line"/>
      <point x="368" y="296" type="line"/>
      <point x="496" y="347" type="line"/>
      <point x="498" y="347"/>
      <point x="499" y="350"/>
    </contour>
    <contour>
      <point x="161" y="587" type="curve" smooth="yes"/>
      <point x="161" y="599"/>
      <point x="169" y="607"/>
      <point x="181" y="607" type="curve" smooth="yes"/>
      <point x="193" y="607"/>
      <point x="201" y="599"/>
      <point x="201" y="587" type="curve" smooth="yes"/>
      <point x="201" y="575"/>
      <point x="193" y="567"/>
      <point x="181" y="567" type="curve" smooth="yes"/>
      <point x="169" y="567"/>
      <point x="161" y="575"/>
    </contour>
    <contour>
      <point x="301" y="587" type="curve" smooth="yes"/>
      <point x="301" y="599"/>
      <point x="309" y="607"/>
      <point x="321" y="607" type="curve" smooth="yes"/>
      <point x="333" y="607"/>
      <point x="341" y="599"/>
      <point x="341" y="587" type="curve" smooth="yes"/>
      <point x="341" y="575"/>
      <point x="333" y="567"/>
      <point x="321" y="567" type="curve" smooth="yes"/>
      <point x="309" y="567"/>
      <point x="301" y="575"/>
    </contour>
  </outline>
</glyph>
<glyph name="adieresis.1.2.kern" format="1">
  <advance width="449"/>
  <outline>
    <contour>
      <point x="296" y="288" type="line"/>
      <point x="139" y="219" type="line"/>
      <point x="245" y="475" type="line"/>
      <point x="248" y="475" type="line"/>
      <point x="370" y="161" type="line"/>
      <point x="94" y="161" type="line"/>
      <point x="28" y="2" type="line"/>
      <point x="28" y="0" type="line"/>
      <point x="50" y="0" type="line"/>
      <point x="62" y="36" type="line"/>
      <point x="106" y="141" type="line"/>
      <point x="377" y="141" type="line"/>
      <point x="419" y="36" type="line"/>
      <point x="429" y="0" type="line"/>
      <point x="452" y="0" type="line"/>
      <point x="259" y="506" type="line"/>
      <point x="237" y="506" type="line"/>
      <point x="113" y="208" type="line"/>
      <point x="-2" y="158" type="line" smooth="yes"/>
      <point x="-4" y="157"/>
      <point x="-5" y="155"/>
      <point x="-4" y="152" type="curve" smooth="yes"/>
      <point x="-3" y="151"/>
      <point x="-2" y="150"/>
      <point x="0" y="150" type="curve"/>
      <point x="1" y="150" type="line"/>
      <point x="299" y="280" type="line"/>
    </contour>
    <contour>
      <point x="453" y="352" type="curve" smooth="yes"/>
      <point x="452" y="354"/>
      <point x="449" y="355"/>
      <point x="447" y="354" type="curve" smooth="yes"/>
      <point x="360" y="316" type="line"/>
      <point x="363" y="308" type="line"/>
      <point x="450" y="347" type="line" smooth="yes"/>
      <point x="452" y="348"/>
      <point x="453" y="350"/>
    </contour>
    <contour>
      <point x="161" y="587" type="curve" smooth="yes"/>
      <point x="161" y="599"/>
      <point x="169" y="607"/>
      <point x="181" y="607" type="curve" smooth="yes"/>
      <point x="193" y="607"/>
      <point x="201" y="599"/>
      <point x="201" y="587" type="curve" smooth="yes"/>
      <point x="201" y="575"/>
      <point x="193" y="567"/>
      <point x="181" y="567" type="curve" smooth="yes"/>
      <point x="169" y="567"/>
      <point x="161" y="575"/>
    </contour>
    <contour>
      <point x="301" y="587" type="curve" smooth="yes"/>
      <point x="301" y="599"/>
      <point x="309" y="607"/>
      <point x="321" y="607" type="curve" smooth="yes"/>
      <point x="333" y="607"/>
      <point x="341" y="599"/>
      <point x="341" y="587" type="curve" smooth="yes"/>
      <point x="341" y="575"/>
      <point x="333" y="567"/>
      <point x="321" y="567" type="curve" smooth="yes"/>
      <point x="309" y="567"/>
      <point x="301" y="575"/>
    </contour>
  </outline>
</glyph>
<glyph name="adieresis.2.1.kern" format="1">
  <advance width="449"/>
  <outline>
    <contour>
      <point x="325" y="213" type="line"/>
      <point x="165" y="282" type="line"/>
      <point x="245" y="475" type="line"/>
      <point x="248" y="475" type="line"/>
      <point x="370" y="161" type="line"/>
      <point x="115" y="161" type="line"/>
      <point x="150" y="246" type="line"/>
      <point x="132" y="253" type="line"/>
      <point x="27" y="0" type="line"/>
      <point x="50" y="0" type="line"/>
      <point x="62" y="36" type="line"/>
      <point x="106" y="141" type="line"/>
      <point x="377" y="141" type="line"/>
      <point x="418" y="36" type="line"/>
      <point x="428" y="0" type="line"/>
      <point x="452" y="0" type="line"/>
      <point x="259" y="506" type="line"/>
      <point x="237" y="506" type="line"/>
      <point x="147" y="290" type="line"/>
      <point x="1" y="354" type="line" smooth="yes"/>
      <point x="-1" y="355"/>
      <point x="-3" y="354"/>
      <point x="-4" y="352" type="curve" smooth="yes"/>
      <point x="-5" y="350"/>
      <point x="-4" y="348"/>
      <point x="-2" y="347" type="curve" smooth="yes"/>
      <point x="329" y="202" type="line"/>
    </contour>
    <contour>
      <point x="417" y="163" type="line"/>
      <point x="447" y="150" type="line"/>
      <point x="449" y="150" type="line"/>
      <point x="450" y="150"/>
      <point x="452" y="151"/>
      <point x="453" y="152" type="curve"/>
      <point x="453" y="155"/>
      <point x="452" y="157"/>
      <point x="450" y="158" type="curve" smooth="yes"/>
      <point x="413" y="174" type="line"/>
    </contour>
    <contour>
      <point x="161" y="587" type="curve" smooth="yes"/>
      <point x="161" y="599"/>
      <point x="169" y="607"/>
      <point x="181" y="607" type="curve" smooth="yes"/>
      <point x="193" y="607"/>
      <point x="201" y="599"/>
      <point x="201" y="587" type="curve" smooth="yes"/>
      <point x="201" y="575"/>
      <point x="193" y="567"/>
      <point x="181" y="567" type="curve" smooth="yes"/>
      <point x="169" y="567"/>
      <point x="161" y="575"/>
    </contour>
    <contour>
      <point x="301" y="587" type="curve" smooth="yes"/>
      <point x="301" y="599"/>
      <point x="309" y="607"/>
      <point x="321" y="607" type="curve" smooth="yes"/>
      <point x="333" y="607"/>
      <point x="341" y="599"/>
      <point x="341" y="587" type="curve" smooth="yes"/>
      <point x="341" y="575"/>
      <point x="333" y="567"/>
      <point x="321" y="567" type="curve" smooth="yes"/>
      <point x="309" y="567"/>
      <point x="301" y="575"/>
    </contour>
  </outline>
</glyph>
<glyph name="adieresis.3.1" format="1">
  <advance width="494"/>
  <outline>
    <contour>
      <point x="498" y="157" type="curve" smooth="yes"/>
      <point x="498" y="157"/>
      <point x="497" y="157"/>
      <point x="497" y="158" type="curve"/>
      <point x="349" y="275" type="line"/>
      <point x="262" y="506" type="line"/>
      <point x="241" y="506" type="line"/>
      <point x="34" y="0" type="line"/>
      <point x="57" y="0" type="line"/>
      <point x="69" y="36" type="line"/>
      <point x="113" y="141" type="line"/>
      <point x="379" y="141" type="line"/>
      <point x="419" y="36" type="line"/>
      <point x="429" y="0" type="line"/>
      <point x="452" y="0" type="line"/>
      <point x="376" y="204" type="line"/>
      <point x="347" y="227" type="line"/>
      <point x="372" y="161" type="line"/>
      <point x="121" y="161" type="line"/>
      <point x="249" y="475" type="line"/>
      <point x="252" y="475" type="line"/>
      <point x="319" y="299" type="line"/>
      <point x="233" y="368" type="line"/>
      <point x="229" y="359" type="line"/>
      <point x="492" y="151" type="line"/>
      <point x="492" y="150"/>
      <point x="493" y="150"/>
      <point x="494" y="150" type="curve" smooth="yes"/>
      <point x="496" y="150"/>
      <point x="497" y="150"/>
      <point x="498" y="151" type="curve" smooth="yes"/>
      <point x="499" y="153"/>
      <point x="499" y="155"/>
    </contour>
    <contour>
      <point x="176" y="413" type="line"/>
      <point x="3" y="550" type="line"/>
      <point x="1" y="552"/>
      <point x="-2" y="551"/>
      <point x="-3" y="550" type="curve" smooth="yes"/>
      <point x="-5" y="548"/>
      <point x="-4" y="545"/>
      <point x="-2" y="543" type="curve"/>
      <point x="173" y="404" type="line"/>
    </contour>
    <contour>
      <point x="161" y="587" type="curve" smooth="yes"/>
      <point x="161" y="599"/>
      <point x="169" y="607"/>
      <point x="181" y="607" type="curve" smooth="yes"/>
      <point x="193" y="607"/>
      <point x="201" y="599"/>
      <point x="201" y="587" type="curve" smooth="yes"/>
      <point x="201" y="575"/>
      <point x="193" y="567"/>
      <point x="181" y="567" type="curve" smooth="yes"/>
      <point x="169" y="567"/>
      <point x="161" y="575"/>
    </contour>
    <contour>
      <point x="301" y="587" type="curve" smooth="yes"/>
      <point x="301" y="599"/>
      <point x="309" y="607"/>
      <point x="321" y="607" type="curve" smooth="yes"/>
      <point x="333" y="607"/>
      <point x="341" y="599"/>
      <point x="341" y="587" type="curve" smooth="yes"/>
      <point x="341" y="575"/>
      <point x="333" y="567"/>
      <point x="321" y="567" type="curve" smooth="yes"/>
      <point x="309" y="567"/>
      <point x="301" y="575"/>
    </contour>
  </outline>
</glyph>
<glyph name="adieresis.3.1.kern" format="1">
  <advance width="449"/>
  <outline>
    <contour>
      <point x="452" y="157" type="curve"/>
      <point x="363" y="233" type="line"/>
      <point x="259" y="506" type="line"/>
      <point x="237" y="506" type="line"/>
      <point x="27" y="0" type="line"/>
      <point x="50" y="0" type="line"/>
      <point x="62" y="36" type="line"/>
      <point x="106" y="141" type="line"/>
      <point x="377" y="141" type="line"/>
      <point x="419" y="36" type="line"/>
      <point x="429" y="0" type="line"/>
      <point x="452" y="0" type="line"/>
      <point x="390" y="161" type="line"/>
      <point x="115" y="161" type="line"/>
      <point x="245" y="475" type="line"/>
      <point x="248" y="475" type="line"/>
      <point x="331" y="261" type="line"/>
      <point x="226" y="354" type="line"/>
      <point x="223" y="346" type="line"/>
      <point x="446" y="151" type="line" smooth="yes"/>
      <point x="447" y="150"/>
      <point x="448" y="150"/>
      <point x="449" y="150" type="curve" smooth="yes"/>
      <point x="450" y="150"/>
      <point x="451" y="150"/>
      <point x="452" y="151" type="curve" smooth="yes"/>
      <point x="454" y="153"/>
      <point x="453" y="156"/>
    </contour>
    <contour>
      <point x="168" y="394" type="line"/>
      <point x="172" y="402" type="line"/>
      <point x="3" y="550" type="line" smooth="yes"/>
      <point x="1" y="552"/>
      <point x="-2" y="552"/>
      <point x="-3" y="550" type="curve" smooth="yes"/>
      <point x="-5" y="548"/>
      <point x="-5" y="545"/>
      <point x="-3" y="544" type="curve" smooth="yes"/>
    </contour>
    <contour>
      <point x="161" y="587" type="curve" smooth="yes"/>
      <point x="161" y="599"/>
      <point x="169" y="607"/>
      <point x="181" y="607" type="curve" smooth="yes"/>
      <point x="193" y="607"/>
      <point x="201" y="599"/>
      <point x="201" y="587" type="curve" smooth="yes"/>
      <point x="201" y="575"/>
      <point x="193" y="567"/>
      <point x="181" y="567" type="curve" smooth="yes"/>
      <point x="169" y="567"/>
      <point x="161" y="575"/>
    </contour>
    <contour>
      <point x="301" y="587" type="curve" smooth="yes"/>
      <point x="301" y="599"/>
      <point x="309" y="607"/>
      <point x="321" y="607" type="curve" smooth="yes"/>
      <point x="333" y="607"/>
      <point x="341" y="599"/>
      <point x="341" y="587" type="curve" smooth="yes"/>
      <point x="341" y="575"/>
      <point x="333" y="567"/>
      <point x="321" y="567" type="curve" smooth="yes"/>
      <point x="309" y="567"/>
      <point x="301" y="575"/>
    </contour>
  </outline>
</glyph>
<glyph name="adieresis.3.2.kern" format="1">
  <advance width="449"/>
  <outline>
    <contour>
      <point x="326" y="399" type="line"/>
      <point x="447" y="347" type="line"/>
      <point x="448" y="346"/>
      <point x="448" y="346"/>
      <point x="449" y="346" type="curve" smooth="yes"/>
      <point x="450" y="346"/>
      <point x="452" y="347"/>
      <point x="453" y="349" type="curve" smooth="yes"/>
      <point x="453" y="351"/>
      <point x="452" y="353"/>
      <point x="450" y="354" type="curve"/>
      <point x="322" y="410" type="line"/>
    </contour>
    <contour>
      <point x="-2" y="543" type="curve"/>
      <point x="191" y="458" type="line"/>
      <point x="194" y="466" type="line"/>
      <point x="1" y="551" type="line"/>
      <point x="-1" y="552"/>
      <point x="-3" y="551"/>
      <point x="-4" y="549" type="curve" smooth="yes"/>
      <point x="-5" y="546"/>
      <point x="-4" y="544"/>
    </contour>
    <contour>
      <point x="62" y="36" type="line"/>
      <point x="106" y="141" type="line"/>
      <point x="377" y="141" type="line"/>
      <point x="418" y="36" type="line"/>
      <point x="428" y="0" type="line"/>
      <point x="452" y="0" type="line"/>
      <point x="395" y="148" type="line"/>
      <point x="259" y="506" type="line"/>
      <point x="237" y="506" type="line"/>
      <point x="27" y="0" type="line"/>
      <point x="48" y="0" type="line"/>
    </contour>
    <contour>
      <point x="245" y="475" type="line"/>
      <point x="248" y="475" type="line"/>
      <point x="370" y="161" type="line"/>
      <point x="115" y="161" type="line"/>
    </contour>
    <contour>
      <point x="161" y="587" type="curve" smooth="yes"/>
      <point x="161" y="599"/>
      <point x="169" y="607"/>
      <point x="181" y="607" type="curve" smooth="yes"/>
      <point x="193" y="607"/>
      <point x="201" y="599"/>
      <point x="201" y="587" type="curve" smooth="yes"/>
      <point x="201" y="575"/>
      <point x="193" y="567"/>
      <point x="181" y="567" type="curve" smooth="yes"/>
      <point x="169" y="567"/>
      <point x="161" y="575"/>
    </contour>
    <contour>
      <point x="301" y="587" type="curve" smooth="yes"/>
      <point x="301" y="599"/>
      <point x="309" y="607"/>
      <point x="321" y="607" type="curve" smooth="yes"/>
      <point x="333" y="607"/>
      <point x="341" y="599"/>
      <point x="341" y="587" type="curve" smooth="yes"/>
      <point x="341" y="575"/>
      <point x="333" y="567"/>
      <point x="321" y="567" type="curve" smooth="yes"/>
      <point x="309" y="567"/>
      <point x="301" y="575"/>
    </contour>
  </outline>
</glyph>
<glyph name="adieresis.3.3.kern" format="1">
  <advance width="449"/>
  <outline>
    <contour>
      <point x="449" y="551" type="curve"/>
      <point x="0" y="551" type="line"/>
      <point x="-2" y="551"/>
      <point x="-4" y="549"/>
      <point x="-4" y="547" type="curve" smooth="yes"/>
      <point x="-4" y="545"/>
      <point x="-2" y="543"/>
      <point x="0" y="543" type="curve"/>
      <point x="449" y="543" type="line"/>
      <point x="451" y="543"/>
      <point x="453" y="545"/>
      <point x="453" y="547" type="curve" smooth="yes"/>
      <point x="453" y="549"/>
      <point x="451" y="551"/>
    </contour>
    <contour>
      <point x="62" y="36" type="line"/>
      <point x="106" y="141" type="line"/>
      <point x="377" y="141" type="line"/>
      <point x="418" y="36" type="line"/>
      <point x="428" y="0" type="line"/>
      <point x="452" y="0" type="line"/>
      <point x="395" y="148" type="line"/>
      <point x="259" y="506" type="line"/>
      <point x="237" y="506" type="line"/>
      <point x="27" y="0" type="line"/>
      <point x="48" y="0" type="line"/>
    </contour>
    <contour>
      <point x="245" y="475" type="line"/>
      <point x="248" y="475" type="line"/>
      <point x="370" y="161" type="line"/>
      <point x="115" y="161" type="line"/>
    </contour>
    <contour>
      <point x="161" y="587" type="curve" smooth="yes"/>
      <point x="161" y="599"/>
      <point x="169" y="607"/>
      <point x="181" y="607" type="curve" smooth="yes"/>
      <point x="193" y="607"/>
      <point x="201" y="599"/>
      <point x="201" y="587" type="curve" smooth="yes"/>
      <point x="201" y="575"/>
      <point x="193" y="567"/>
      <point x="181" y="567" type="curve" smooth="yes"/>
      <point x="169" y="567"/>
      <point x="161" y="575"/>
    </contour>
    <contour>
      <point x="301" y="587" type="curve" smooth="yes"/>
      <point x="301" y="599"/>
      <point x="309" y="607"/>
      <point x="321" y="607" type="curve" smooth="yes"/>
      <point x="333" y="607"/>
      <point x="341" y="599"/>
      <point x="341" y="587" type="curve" smooth="yes"/>
      <point x="341" y="575"/>
      <point x="333" y="567"/>
      <point x="321" y="567" type="curve" smooth="yes"/>
      <point x="309" y="567"/>
      <point x="301" y="575"/>
    </contour>
  </outline>
</glyph>
<glyph name="ae.1" format="1">
  <advance width="688"/>
  <outline>
    <contour>
      <point x="412" y="20" type="line"/>
      <point x="376" y="232" type="line"/>
      <point x="566" y="262" type="line"/>
      <point x="568" y="279" type="line"/>
      <point x="565" y="281" type="line"/>
      <point x="373" y="250" type="line"/>
      <point x="333" y="486" type="line"/>
      <point x="557" y="485" type="line"/>
      <point x="561" y="502" type="line"/>
      <point x="558" y="506" type="line"/>
      <point x="307" y="506" type="line"/>
      <point x="22" y="0" type="line"/>
      <point x="48" y="0" type="line"/>
      <point x="64" y="36" type="line"/>
      <point x="152" y="192" type="line"/>
      <point x="356" y="228" type="line"/>
      <point x="389" y="36" type="line"/>
      <point x="394" y="0" type="line"/>
      <point x="646" y="0" type="line"/>
      <point x="649" y="16" type="line"/>
      <point x="647" y="20" type="line"/>
    </contour>
    <contour>
      <point x="165" y="214" type="line"/>
      <point x="310" y="474" type="line"/>
      <point x="313" y="474" type="line"/>
      <point x="352" y="247" type="line"/>
    </contour>
    <contour>
      <point x="692" y="155" type="curve" smooth="yes"/>
      <point x="692" y="158"/>
      <point x="689" y="159"/>
      <point x="687" y="158" type="curve"/>
      <point x="427" y="84" type="line"/>
      <point x="428" y="76" type="line"/>
      <point x="689" y="150" type="line"/>
      <point x="692" y="151"/>
      <point x="693" y="153"/>
    </contour>
    <contour>
      <point x="-1" y="-38" type="line"/>
      <point x="-3" y="-39"/>
      <point x="-4" y="-41"/>
      <point x="-4" y="-43" type="curve" smooth="yes"/>
      <point x="-3" y="-45"/>
      <point x="-2" y="-46"/>
      <point x="0" y="-46" type="curve" smooth="yes"/>
      <point x="1" y="-46"/>
      <point x="1" y="-46"/>
      <point x="1" y="-46" type="curve"/>
      <point x="360" y="56" type="line"/>
      <point x="359" y="65" type="line"/>
    </contour>
  </outline>
</glyph>
<glyph name="ae.1.1" format="1">
  <advance width="688"/>
  <outline>
    <contour>
      <point x="413" y="20" type="line"/>
      <point x="377" y="232" type="line"/>
      <point x="567" y="262" type="line"/>
      <point x="569" y="279" type="line"/>
      <point x="566" y="281" type="line"/>
      <point x="374" y="250" type="line"/>
      <point x="334" y="486" type="line"/>
      <point x="558" y="485" type="line"/>
      <point x="562" y="502" type="line"/>
      <point x="559" y="506" type="line"/>
      <point x="308" y="506" type="line"/>
      <point x="112" y="158" type="line"/>
      <point x="1" y="158" type="line"/>
      <point x="-1" y="158"/>
      <point x="-3" y="156"/>
      <point x="-3" y="154" type="curve" smooth="yes"/>
      <point x="-3" y="152"/>
      <point x="-1" y="150"/>
      <point x="1" y="150" type="curve"/>
      <point x="345" y="150" type="line"/>
      <point x="344" y="158" type="line"/>
      <point x="134" y="158" type="line"/>
      <point x="152" y="192" type="line"/>
      <point x="357" y="228" type="line"/>
      <point x="390" y="36" type="line"/>
      <point x="395" y="0" type="line"/>
      <point x="647" y="0" type="line"/>
      <point x="650" y="16" type="line"/>
      <point x="648" y="20" type="line"/>
    </contour>
    <contour>
      <point x="166" y="214" type="line"/>
      <point x="311" y="474" type="line"/>
      <point x="314" y="474" type="line"/>
      <point x="353" y="247" type="line"/>
    </contour>
    <contour>
      <point x="23" y="0" type="line"/>
      <point x="49" y="0" type="line"/>
      <point x="65" y="36" type="line"/>
      <point x="112" y="119" type="line"/>
      <point x="90" y="119" type="line"/>
    </contour>
    <contour>
      <point x="689" y="158" type="curve"/>
      <point x="415" y="158" type="line"/>
      <point x="417" y="150" type="line"/>
      <point x="689" y="150" type="line"/>
      <point x="692" y="150"/>
      <point x="693" y="152"/>
      <point x="693" y="154" type="curve" smooth="yes"/>
      <point x="693" y="156"/>
      <point x="692" y="158"/>
    </contour>
  </outline>
</glyph>
<glyph name="ae.1.2" format="1">
  <advance width="688"/>
  <outline>
    <contour>
      <point x="412" y="20" type="line"/>
      <point x="377" y="225" type="line"/>
      <point x="357" y="220" type="line"/>
      <point x="389" y="36" type="line"/>
      <point x="394" y="0" type="line"/>
      <point x="646" y="0" type="line"/>
      <point x="649" y="16" type="line"/>
      <point x="647" y="20" type="line"/>
    </contour>
    <contour>
      <point x="22" y="0" type="line"/>
      <point x="48" y="0" type="line"/>
      <point x="64" y="36" type="line"/>
      <point x="131" y="155" type="line"/>
      <point x="105" y="148" type="line"/>
    </contour>
    <contour>
      <point x="692" y="352" type="curve" smooth="yes"/>
      <point x="692" y="354"/>
      <point x="689" y="355"/>
      <point x="687" y="355" type="curve"/>
      <point x="371" y="264" type="line"/>
      <point x="333" y="486" type="line"/>
      <point x="557" y="485" type="line"/>
      <point x="561" y="502" type="line"/>
      <point x="558" y="506" type="line"/>
      <point x="307" y="506" type="line"/>
      <point x="133" y="196" type="line"/>
      <point x="-1" y="158" type="line"/>
      <point x="-3" y="158"/>
      <point x="-4" y="155"/>
      <point x="-4" y="153" type="curve" smooth="yes"/>
      <point x="-3" y="151"/>
      <point x="-2" y="150"/>
      <point x="0" y="150" type="curve" smooth="yes"/>
      <point x="1" y="150"/>
      <point x="1" y="150"/>
      <point x="1" y="150" type="curve"/>
      <point x="689" y="347" type="line"/>
      <point x="692" y="347"/>
      <point x="693" y="350"/>
    </contour>
    <contour>
      <point x="310" y="474" type="line"/>
      <point x="313" y="474" type="line"/>
      <point x="351" y="259" type="line"/>
      <point x="158" y="204" type="line"/>
    </contour>
  </outline>
</glyph>
<glyph name="ae.2.1" format="1">
  <advance width="688"/>
  <outline>
    <contour>
      <point x="689" y="158" type="curve"/>
      <point x="412" y="237" type="line"/>
      <point x="566" y="262" type="line"/>
      <point x="568" y="279" type="line"/>
      <point x="565" y="281" type="line"/>
      <point x="373" y="250" type="line"/>
      <point x="333" y="486" type="line"/>
      <point x="557" y="485" type="line"/>
      <point x="561" y="502" type="line"/>
      <point x="558" y="506" type="line"/>
      <point x="307" y="506" type="line"/>
      <point x="22" y="0" type="line"/>
      <point x="48" y="0" type="line"/>
      <point x="64" y="36" type="line"/>
      <point x="151" y="192" type="line"/>
      <point x="324" y="222" type="line"/>
      <point x="280" y="234" type="line"/>
      <point x="165" y="214" type="line"/>
      <point x="310" y="474" type="line"/>
      <point x="313" y="474" type="line"/>
      <point x="351" y="255" type="line"/>
      <point x="235" y="288" type="line"/>
      <point x="231" y="281" type="line"/>
      <point x="687" y="150" type="line"/>
      <point x="687" y="150"/>
      <point x="688" y="150"/>
      <point x="688" y="150" type="curve" smooth="yes"/>
      <point x="690" y="150"/>
      <point x="692" y="151"/>
      <point x="692" y="153" type="curve" smooth="yes"/>
      <point x="693" y="155"/>
      <point x="692" y="158"/>
    </contour>
    <contour>
      <point x="412" y="20" type="line"/>
      <point x="381" y="206" type="line"/>
      <point x="359" y="212" type="line"/>
      <point x="389" y="36" type="line"/>
      <point x="394" y="0" type="line"/>
      <point x="646" y="0" type="line"/>
      <point x="649" y="17" type="line"/>
      <point x="647" y="20" type="line"/>
    </contour>
    <contour>
      <point x="167" y="307" type="line"/>
      <point x="1" y="355" type="line"/>
      <point x="-1" y="355"/>
      <point x="-3" y="354"/>
      <point x="-4" y="352" type="curve" smooth="yes"/>
      <point x="-4" y="350"/>
      <point x="-3" y="347"/>
      <point x="-1" y="347" type="curve"/>
      <point x="162" y="300" type="line"/>
    </contour>
  </outline>
</glyph>
<glyph name="ae.2.3" format="1">
  <advance width="688"/>
  <outline>
    <contour>
      <point x="692" y="548" type="curve" smooth="yes"/>
      <point x="692" y="550"/>
      <point x="689" y="552"/>
      <point x="687" y="551" type="curve"/>
      <point x="-1" y="355" type="line"/>
      <point x="-3" y="354"/>
      <point x="-4" y="352"/>
      <point x="-4" y="350" type="curve" smooth="yes"/>
      <point x="-3" y="348"/>
      <point x="-2" y="346"/>
      <point x="0" y="346" type="curve" smooth="yes"/>
      <point x="1" y="346"/>
      <point x="1" y="347"/>
      <point x="1" y="347" type="curve"/>
      <point x="689" y="543" type="line"/>
      <point x="692" y="544"/>
      <point x="693" y="546"/>
    </contour>
    <contour>
      <point x="412" y="20" type="line"/>
      <point x="376" y="232" type="line"/>
      <point x="566" y="262" type="line"/>
      <point x="568" y="279" type="line"/>
      <point x="565" y="281" type="line"/>
      <point x="373" y="250" type="line"/>
      <point x="346" y="413" type="line"/>
      <point x="325" y="407" type="line"/>
      <point x="352" y="247" type="line"/>
      <point x="165" y="214" type="line"/>
      <point x="263" y="389" type="line"/>
      <point x="237" y="382" type="line"/>
      <point x="22" y="0" type="line"/>
      <point x="48" y="0" type="line"/>
      <point x="64" y="36" type="line"/>
      <point x="151" y="192" type="line"/>
      <point x="356" y="228" type="line"/>
      <point x="389" y="36" type="line"/>
      <point x="394" y="0" type="line"/>
      <point x="646" y="0" type="line"/>
      <point x="649" y="17" type="line"/>
      <point x="647" y="20" type="line"/>
    </contour>
  </outline>
</glyph>
<glyph name="ae.3" format="1">
  <advance width="688"/>
  <outline>
    <contour>
      <point x="413" y="20" type="line"/>
      <point x="377" y="232" type="line"/>
      <point x="567" y="262" type="line"/>
      <point x="569" y="279" type="line"/>
      <point x="566" y="281" type="line"/>
      <point x="374" y="250" type="line"/>
      <point x="334" y="486" type="line"/>
      <point x="558" y="485" type="line"/>
      <point x="562" y="502" type="line"/>
      <point x="559" y="506" type="line"/>
      <point x="308" y="506" type="line"/>
      <point x="28" y="-13" type="line"/>
      <point x="-2" y="-39" type="line"/>
      <point x="-4" y="-40"/>
      <point x="-4" y="-43"/>
      <point x="-3" y="-45" type="curve" smooth="yes"/>
      <point x="-2" y="-46"/>
      <point x="-1" y="-47"/>
      <point x="0" y="-47" type="curve" smooth="yes"/>
      <point x="1" y="-47"/>
      <point x="2" y="-46"/>
      <point x="3" y="-45" type="curve"/>
      <point x="278" y="190" type="line"/>
      <point x="262" y="187" type="line"/>
      <point x="69" y="23" type="line"/>
      <point x="163" y="197" type="line"/>
      <point x="357" y="228" type="line"/>
      <point x="390" y="36" type="line"/>
      <point x="395" y="0" type="line"/>
      <point x="647" y="0" type="line"/>
      <point x="650" y="16" type="line"/>
      <point x="648" y="20" type="line"/>
    </contour>
    <contour>
      <point x="177" y="220" type="line"/>
      <point x="311" y="474" type="line"/>
      <point x="314" y="474" type="line"/>
      <point x="353" y="247" type="line"/>
    </contour>
    <contour>
      <point x="692" y="550" type="curve" smooth="yes"/>
      <point x="690" y="552"/>
      <point x="687" y="552"/>
      <point x="686" y="550" type="curve"/>
      <point x="392" y="299" type="line"/>
      <point x="393" y="289" type="line"/>
      <point x="691" y="544" type="line"/>
      <point x="693" y="545"/>
      <point x="693" y="548"/>
    </contour>
  </outline>
</glyph>
<glyph name="ae.3.0" format="1">
  <advance width="688"/>
  <outline>
    <contour>
      <point x="691" y="-39" type="curve"/>
      <point x="376" y="231" type="line"/>
      <point x="567" y="262" type="line"/>
      <point x="569" y="279" type="line"/>
      <point x="566" y="281" type="line"/>
      <point x="374" y="250" type="line"/>
      <point x="334" y="486" type="line"/>
      <point x="558" y="485" type="line"/>
      <point x="562" y="502" type="line"/>
      <point x="559" y="506" type="line"/>
      <point x="308" y="506" type="line"/>
      <point x="23" y="0" type="line"/>
      <point x="49" y="0" type="line"/>
      <point x="65" y="36" type="line"/>
      <point x="152" y="192" type="line"/>
      <point x="327" y="222" type="line"/>
      <point x="307" y="239" type="line"/>
      <point x="166" y="214" type="line"/>
      <point x="311" y="474" type="line"/>
      <point x="314" y="474" type="line"/>
      <point x="353" y="251" type="line"/>
      <point x="260" y="331" type="line"/>
      <point x="255" y="323" type="line"/>
      <point x="686" y="-45" type="line"/>
      <point x="686" y="-46"/>
      <point x="687" y="-46"/>
      <point x="688" y="-46" type="curve" smooth="yes"/>
      <point x="690" y="-46"/>
      <point x="691" y="-46"/>
      <point x="692" y="-45" type="curve" smooth="yes"/>
      <point x="693" y="-43"/>
      <point x="693" y="-40"/>
    </contour>
    <contour>
      <point x="413" y="20" type="line"/>
      <point x="388" y="170" type="line"/>
      <point x="364" y="191" type="line"/>
      <point x="390" y="36" type="line"/>
      <point x="395" y="0" type="line"/>
      <point x="586" y="0" type="line"/>
      <point x="563" y="20" type="line"/>
    </contour>
    <contour>
      <point x="207" y="376" type="line"/>
      <point x="3" y="550" type="line"/>
      <point x="1" y="552"/>
      <point x="-1" y="552"/>
      <point x="-3" y="550" type="curve" smooth="yes"/>
      <point x="-4" y="548"/>
      <point x="-4" y="545"/>
      <point x="-2" y="544" type="curve"/>
      <point x="202" y="368" type="line"/>
    </contour>
  </outline>
</glyph>
<glyph name="ae.3.1" format="1">
  <advance width="688"/>
  <outline>
    <contour>
      <point x="690" y="158" type="curve"/>
      <point x="386" y="332" type="line"/>
      <point x="388" y="321" type="line"/>
      <point x="686" y="151" type="line"/>
      <point x="687" y="150"/>
      <point x="688" y="150"/>
      <point x="688" y="150" type="curve" smooth="yes"/>
      <point x="690" y="150"/>
      <point x="691" y="151"/>
      <point x="692" y="152" type="curve" smooth="yes"/>
      <point x="693" y="154"/>
      <point x="693" y="157"/>
    </contour>
    <contour>
      <point x="413" y="20" type="line"/>
      <point x="377" y="232" type="line"/>
      <point x="460" y="245" type="line"/>
      <point x="434" y="260" type="line"/>
      <point x="374" y="250" type="line"/>
      <point x="334" y="486" type="line"/>
      <point x="558" y="485" type="line"/>
      <point x="562" y="502" type="line"/>
      <point x="559" y="506" type="line"/>
      <point x="308" y="506" type="line"/>
      <point x="23" y="0" type="line"/>
      <point x="49" y="0" type="line"/>
      <point x="65" y="36" type="line"/>
      <point x="153" y="192" type="line"/>
      <point x="357" y="228" type="line"/>
      <point x="390" y="36" type="line"/>
      <point x="395" y="0" type="line"/>
      <point x="647" y="0" type="line"/>
      <point x="650" y="17" type="line"/>
      <point x="648" y="20" type="line"/>
    </contour>
    <contour>
      <point x="166" y="214" type="line"/>
      <point x="311" y="474" type="line"/>
      <point x="314" y="474" type="line"/>
      <point x="353" y="247" type="line"/>
    </contour>
    <contour>
      <point x="231" y="420" type="line"/>
      <point x="3" y="551" type="line"/>
      <point x="0" y="552"/>
      <point x="-2" y="551"/>
      <point x="-3" y="549" type="curve" smooth="yes"/>
      <point x="-5" y="547"/>
      <point x="-4" y="544"/>
      <point x="-2" y="543" type="curve"/>
      <point x="227" y="413" type="line"/>
    </contour>
  </outline>
</glyph>
<glyph name="agrave.1.2.kern" format="1">
  <advance width="449"/>
  <outline>
    <contour>
      <point x="296" y="288" type="line"/>
      <point x="139" y="219" type="line"/>
      <point x="245" y="475" type="line"/>
      <point x="248" y="475" type="line"/>
      <point x="370" y="161" type="line"/>
      <point x="94" y="161" type="line"/>
      <point x="28" y="2" type="line"/>
      <point x="28" y="0" type="line"/>
      <point x="50" y="0" type="line"/>
      <point x="62" y="36" type="line"/>
      <point x="106" y="141" type="line"/>
      <point x="377" y="141" type="line"/>
      <point x="419" y="36" type="line"/>
      <point x="429" y="0" type="line"/>
      <point x="452" y="0" type="line"/>
      <point x="259" y="506" type="line"/>
      <point x="237" y="506" type="line"/>
      <point x="113" y="208" type="line"/>
      <point x="-2" y="158" type="line" smooth="yes"/>
      <point x="-4" y="157"/>
      <point x="-5" y="155"/>
      <point x="-4" y="152" type="curve" smooth="yes"/>
      <point x="-3" y="151"/>
      <point x="-2" y="150"/>
      <point x="0" y="150" type="curve"/>
      <point x="1" y="150" type="line"/>
      <point x="299" y="280" type="line"/>
    </contour>
    <contour>
      <point x="453" y="352" type="curve" smooth="yes"/>
      <point x="452" y="354"/>
      <point x="449" y="355"/>
      <point x="447" y="354" type="curve" smooth="yes"/>
      <point x="360" y="316" type="line"/>
      <point x="363" y="308" type="line"/>
      <point x="450" y="347" type="line" smooth="yes"/>
      <point x="452" y="348"/>
      <point x="453" y="350"/>
    </contour>
    <contour>
      <point x="319" y="538" type="line"/>
      <point x="273" y="561"/>
      <point x="235" y="580"/>
      <point x="190" y="607" type="curve"/>
      <point x="187" y="612" type="line"/>
      <point x="194" y="623" type="line"/>
      <point x="199" y="624" type="line"/>
      <point x="251" y="594"/>
      <point x="289" y="574"/>
      <point x="331" y="553" type="curve"/>
      <point x="324" y="540" type="line"/>
    </contour>
  </outline>
</glyph>
<glyph name="agrave.1.3.kern" format="1">
  <advance width="449"/>
  <outline>
    <contour>
      <point x="259" y="386" type="line"/>
      <point x="179" y="316" type="line"/>
      <point x="245" y="475" type="line"/>
      <point x="248" y="475" type="line"/>
      <point x="370" y="161" type="line"/>
      <point x="115" y="161" type="line"/>
      <point x="146" y="236" type="line"/>
      <point x="113" y="207" type="line"/>
      <point x="94" y="161" type="line"/>
      <point x="28" y="2" type="line"/>
      <point x="28" y="0" type="line"/>
      <point x="50" y="0" type="line"/>
      <point x="62" y="36" type="line"/>
      <point x="106" y="141" type="line"/>
      <point x="377" y="141" type="line"/>
      <point x="418" y="36" type="line"/>
      <point x="428" y="0" type="line"/>
      <point x="452" y="0" type="line"/>
      <point x="259" y="506" type="line"/>
      <point x="237" y="506" type="line"/>
      <point x="147" y="288" type="line"/>
      <point x="-3" y="157" type="line" smooth="yes"/>
      <point x="-5" y="156"/>
      <point x="-5" y="153"/>
      <point x="-3" y="151" type="curve"/>
      <point x="-3" y="150"/>
      <point x="-1" y="150"/>
      <point x="0" y="150" type="curve" smooth="yes"/>
      <point x="1" y="150"/>
      <point x="2" y="150"/>
      <point x="3" y="151" type="curve" smooth="yes"/>
      <point x="262" y="378" type="line"/>
    </contour>
    <contour>
      <point x="318" y="427" type="line"/>
      <point x="451" y="544" type="line" smooth="yes"/>
      <point x="453" y="545"/>
      <point x="453" y="548"/>
      <point x="452" y="550" type="curve"/>
      <point x="450" y="551"/>
      <point x="448" y="551"/>
      <point x="446" y="550" type="curve" smooth="yes"/>
      <point x="315" y="435" type="line"/>
    </contour>
    <contour>
      <point x="319" y="538" type="line"/>
      <point x="273" y="561"/>
      <point x="235" y="580"/>
      <point x="190" y="607" type="curve"/>
      <point x="187" y="612" type="line"/>
      <point x="194" y="623" type="line"/>
      <point x="199" y="624" type="line"/>
      <point x="251" y="594"/>
      <point x="289" y="574"/>
      <point x="331" y="553" type="curve"/>
      <point x="324" y="540" type="line"/>
    </contour>
  </outline>
</glyph>
<glyph name="agrave.2" format="1">
  <advance width="494"/>
  <outline>
    <contour>
      <point x="498" y="353" type="curve" smooth="yes"/>
      <point x="496" y="355"/>
      <point x="494" y="355"/>
      <point x="492" y="354" type="curve"/>
      <point x="359" y="248" type="line"/>
      <point x="359" y="248" type="line"/>
      <point x="359" y="248" type="line"/>
      <point x="262" y="506" type="line"/>
      <point x="241" y="506" type="line"/>
      <point x="39" y="-6" type="line"/>
      <point x="-2" y="-39" type="line"/>
      <point x="-4" y="-40"/>
      <point x="-4" y="-43"/>
      <point x="-3" y="-45" type="curve" smooth="yes"/>
      <point x="-2" y="-46"/>
      <point x="-1" y="-46"/>
      <point x="0" y="-46" type="curve" smooth="yes"/>
      <point x="1" y="-46"/>
      <point x="2" y="-46"/>
      <point x="3" y="-45" type="curve"/>
      <point x="206" y="116" type="line"/>
      <point x="193" y="116" type="line"/>
      <point x="70" y="19" type="line"/>
      <point x="76" y="36" type="line"/>
      <point x="117" y="141" type="line"/>
      <point x="379" y="141" type="line"/>
      <point x="419" y="36" type="line"/>
      <point x="429" y="0" type="line"/>
      <point x="452" y="0" type="line"/>
      <point x="397" y="148" type="line"/>
      <point x="373" y="210" type="line"/>
      <point x="358" y="198" type="line"/>
      <point x="372" y="161" type="line"/>
      <point x="125" y="161" type="line"/>
      <point x="249" y="475" type="line"/>
      <point x="252" y="475" type="line"/>
      <point x="343" y="236" type="line"/>
      <point x="343" y="236" type="line"/>
      <point x="343" y="236" type="line"/>
      <point x="280" y="186" type="line"/>
      <point x="294" y="186" type="line"/>
      <point x="497" y="347" type="line"/>
      <point x="499" y="349"/>
      <point x="499" y="352"/>
    </contour>
    <contour>
      <point x="319" y="538" type="line"/>
      <point x="273" y="561"/>
      <point x="235" y="580"/>
      <point x="190" y="607" type="curve"/>
      <point x="187" y="612" type="line"/>
      <point x="194" y="623" type="line"/>
      <point x="199" y="624" type="line"/>
      <point x="251" y="594"/>
      <point x="289" y="574"/>
      <point x="331" y="553" type="curve"/>
      <point x="324" y="540" type="line"/>
    </contour>
  </outline>
</glyph>
<glyph name="agrave.2.0" format="1">
  <advance width="494"/>
  <outline>
    <contour>
      <point x="497" y="-40" type="curve"/>
      <point x="455" y="-7" type="line"/>
      <point x="262" y="504" type="line"/>
      <point x="241" y="504" type="line"/>
      <point x="136" y="247" type="line"/>
      <point x="3" y="353" type="line"/>
      <point x="1" y="354"/>
      <point x="-2" y="354"/>
      <point x="-3" y="352" type="curve" smooth="yes"/>
      <point x="-5" y="350"/>
      <point x="-4" y="347"/>
      <point x="-2" y="346" type="curve"/>
      <point x="132" y="239" type="line"/>
      <point x="34" y="0" type="line"/>
      <point x="57" y="0" type="line"/>
      <point x="69" y="36" type="line"/>
      <point x="113" y="141" type="line"/>
      <point x="198" y="141" type="line"/>
      <point x="174" y="161" type="line"/>
      <point x="121" y="161" type="line"/>
      <point x="148" y="227" type="line"/>
      <point x="492" y="-47" type="line"/>
      <point x="492" y="-48"/>
      <point x="493" y="-48"/>
      <point x="494" y="-48" type="curve" smooth="yes"/>
      <point x="496" y="-48"/>
      <point x="497" y="-47"/>
      <point x="498" y="-46" type="curve" smooth="yes"/>
      <point x="499" y="-44"/>
      <point x="499" y="-42"/>
    </contour>
    <contour>
      <point x="419" y="36" type="line"/>
      <point x="424" y="18" type="line"/>
      <point x="269" y="141" type="line"/>
      <point x="379" y="141" type="line"/>
    </contour>
    <contour>
      <point x="249" y="473" type="line"/>
      <point x="252" y="473" type="line"/>
      <point x="372" y="161" type="line"/>
      <point x="244" y="161" type="line"/>
      <point x="151" y="235" type="line"/>
    </contour>
    <contour>
      <point x="319" y="538" type="line"/>
      <point x="273" y="561"/>
      <point x="235" y="580"/>
      <point x="190" y="607" type="curve"/>
      <point x="187" y="612" type="line"/>
      <point x="194" y="623" type="line"/>
      <point x="199" y="624" type="line"/>
      <point x="251" y="594"/>
      <point x="289" y="574"/>
      <point x="331" y="553" type="curve"/>
      <point x="324" y="540" type="line"/>
    </contour>
  </outline>
</glyph>
<glyph name="agrave.2.kern" format="1">
  <advance width="449"/>
  <outline>
    <contour>
      <point x="452" y="353" type="curve" smooth="yes"/>
      <point x="450" y="355"/>
      <point x="448" y="355"/>
      <point x="446" y="354" type="curve" smooth="yes"/>
      <point x="350" y="270" type="line"/>
      <point x="262" y="505" type="line"/>
      <point x="241" y="505" type="line"/>
      <point x="40" y="-1" type="line"/>
      <point x="-3" y="-39" type="line" smooth="yes"/>
      <point x="-5" y="-41"/>
      <point x="-5" y="-43"/>
      <point x="-3" y="-45" type="curve"/>
      <point x="-3" y="-46"/>
      <point x="-1" y="-46"/>
      <point x="0" y="-46" type="curve" smooth="yes"/>
      <point x="1" y="-46"/>
      <point x="2" y="-46"/>
      <point x="3" y="-45" type="curve" smooth="yes"/>
      <point x="187" y="116" type="line"/>
      <point x="174" y="116" type="line"/>
      <point x="72" y="27" type="line"/>
      <point x="75" y="36" type="line"/>
      <point x="117" y="141" type="line"/>
      <point x="379" y="141" type="line"/>
      <point x="419" y="36" type="line"/>
      <point x="429" y="0" type="line"/>
      <point x="452" y="0" type="line"/>
      <point x="396" y="148" type="line"/>
      <point x="365" y="231" type="line"/>
      <point x="350" y="217" type="line"/>
      <point x="371" y="161" type="line"/>
      <point x="125" y="161" type="line"/>
      <point x="249" y="474" type="line"/>
      <point x="252" y="474" type="line"/>
      <point x="334" y="256" type="line"/>
      <point x="254" y="186" type="line"/>
      <point x="267" y="186" type="line"/>
      <point x="451" y="347" type="line" smooth="yes"/>
      <point x="453" y="349"/>
      <point x="453" y="351"/>
    </contour>
    <contour>
      <point x="319" y="538" type="line"/>
      <point x="273" y="561"/>
      <point x="235" y="580"/>
      <point x="190" y="607" type="curve"/>
      <point x="187" y="612" type="line"/>
      <point x="194" y="623" type="line"/>
      <point x="199" y="624" type="line"/>
      <point x="251" y="594"/>
      <point x="289" y="574"/>
      <point x="331" y="553" type="curve"/>
      <point x="324" y="540" type="line"/>
    </contour>
  </outline>
</glyph>
